<svg id="ehD6xwKvbQa1" xmlns="http://www.w3.org/2000/svg" xmlns:xlink="http://www.w3.org/1999/xlink" viewBox="0 0 500 500" shape-rendering="geometricPrecision" text-rendering="geometricPrecision"><g><ellipse rx="230.287" ry="132.956" transform="translate(250 342.937)" fill="#f5f5f5"/></g><g><path d="M451.497,324.247L320.664,399.818c-1.122.648-2.943.648-4.066,0L98.412,273.849c-1.122-.648-1.122-1.699,0-2.347L229.245,195.93c1.123-.648,2.943-.648,4.066,0L451.497,321.9c1.123.648,1.123,1.699,0,2.347Z" fill="#e6e6e6"/><ellipse rx="81.411" ry="47.003" transform="translate(166.809 399.063)" fill="#e6e6e6"/><ellipse rx="58.962" ry="34.042" transform="translate(249.451 354.218)" fill="#e6e6e6"/></g><g><g><g><g><path d="M421.421,290.951c0,0,2.039-16.368,10.327-28.999s19.574-20.449,30.034-21.164c10.46-.714,18.798,8.992,7.545,15.474-11.253,6.483-31.193,13.008-40.6,37.607l-7.306-2.918Z" fill="#27debf"/></g><g opacity="0.3"><path d="M421.421,290.951c0,0,2.039-16.368,10.327-28.999s19.574-20.449,30.034-21.164c10.46-.714,18.798,8.992,7.545,15.474-11.253,6.483-31.193,13.008-40.6,37.607l-7.306-2.918Z"/></g><g><path d="M424.531,286.728c-.038-.007-.074-.018-.11-.034-.285-.119-.419-.446-.299-.73c11.32-27.043,32.437-38.159,42.023-40.259.3-.068.598.125.665.426.066.302-.124.599-.426.665-9.389,2.056-30.09,12.981-41.232,39.599-.105.248-.368.382-.621.333Z" fill="#fff"/></g></g><g><g><g><path d="M482.391,278.726c-.893,2.012-3.09,3.06-5.136,3.883-2.033.816-4.262,1.706-5.367,3.609-2.226,3.843,1.426,9.248-.963,12.991-1.003,1.569-2.868,2.395-4.701,2.724-1.523.285-3.074.282-4.619.412-.743-.016-1.479-.07-2.196-.171-2.119-.308-4.418-.408-6.36.677-3.055,1.716-3.994,5.573-5.85,8.548-2.225,3.561-6.159,5.892-10.292,6.453-2.431.321-4.719,1.028-6.423-1.263-.806-1.084-1.212-2.405-1.603-3.697-1.617-5.336-3.233-10.672-4.85-16.008-.626-2.067-1.231-4.398-.204-6.299.746-1.38,2.19-2.203,3.5-3.067c2.608-1.72,4.928-3.871,6.854-6.33c1.846-2.357,2.73-5.177,4.412-7.524c3.237-4.516,9.049-7.638,14.649-6.701c3.221.539,6.372,2.351,9.693,2.199c3.23-.148,6.394-1.011,9.692-.781c3.449.241,6.967,1.703,8.933,4.664c1.105,1.661,1.64,3.855.831,5.681Z" fill="#27debf"/></g></g><g opacity="0.1"><g><path d="M482.391,278.726c-.893,2.012-3.09,3.06-5.136,3.883-2.033.816-4.262,1.706-5.367,3.609-2.226,3.843,1.426,9.248-.963,12.991-1.003,1.569-2.868,2.395-4.701,2.724-1.523.285-3.074.282-4.619.412-.743-.016-1.479-.07-2.196-.171-2.119-.308-4.418-.408-6.36.677-3.055,1.716-3.994,5.573-5.85,8.548-2.225,3.561-6.159,5.892-10.292,6.453-2.431.321-4.719,1.028-6.423-1.263-.806-1.084-1.212-2.405-1.603-3.697-1.617-5.336-3.233-10.672-4.85-16.008-.626-2.067-1.231-4.398-.204-6.299.746-1.38,2.19-2.203,3.5-3.067c2.608-1.72,4.928-3.871,6.854-6.33c1.846-2.357,2.73-5.177,4.412-7.524c3.237-4.516,9.049-7.638,14.649-6.701c3.221.539,6.372,2.351,9.693,2.199c3.23-.148,6.394-1.011,9.692-.781c3.449.241,6.967,1.703,8.933,4.664c1.105,1.661,1.64,3.855.831,5.681Z"/></g></g><g><path d="M430.204,307.407c-.013-.003-.026-.006-.039-.009-.264-.07-.421-.342-.35-.606c8.031-30.106,39.753-34.45,47.175-33.913.268.022.477.257.459.53-.02.273-.257.478-.53.459-7.26-.526-38.289,3.725-46.147,33.18-.068.251-.317.405-.568.359Z" fill="#fff"/></g><g><path d="M465.452,292.159c-.096-.018-.188-.064-.262-.139-.079-.081-8.168-8.058-21.586-6.086-.27.036-.523-.147-.563-.418s.148-.523.418-.563c13.937-2.046,22.352,6.285,22.435,6.369.193.195.19.508-.004.701-.119.118-.283.164-.438.136Z" fill="#fff"/></g></g></g></g><g><g><g><g><path d="M328.634,290.222v86.139c0,.712-.5,1.578-1.117,1.934l-2.376,1.371c-.617.356-1.617.356-2.234,0l-2.375-1.371c-.617-.356-1.117-1.222-1.117-1.934v-86.139c0-.712.5-1.001,1.117-.645l2.375,1.371c.617.356,1.617.356,2.234,0l2.375-1.371c.618-.356,1.118-.067,1.118.645Z" fill="#37474f"/><path d="M322.907,379.667l-2.375-1.371c-.617-.356-1.117-1.222-1.117-1.934v-86.139c0-.712.5-1.001,1.117-.645l2.375,1.371c.617.356,1.117,1.222,1.117,1.934v86.139c0,.712-.5,1.001-1.117.645Z" fill="#455a64"/></g><g><path d="M429.91,231.715v86.14c0,.712-.5,1.578-1.117,1.934l-2.376,1.371c-.617.356-1.617.356-2.234,0l-2.375-1.371c-.617-.356-1.117-1.222-1.117-1.934v-86.14c0-.712.5-1.001,1.117-.645l2.375,1.371c.617.356,1.617.356,2.234,0l2.375-1.371c.618-.356,1.118-.067,1.118.645Z" fill="#37474f"/><path d="M424.184,321.16l-2.375-1.371c-.617-.356-1.117-1.222-1.117-1.934v-86.14c0-.712.5-1.001,1.117-.645l2.375,1.371c.617.356,1.117,1.222,1.117,1.934v86.14c0,.712-.5,1.001-1.117.645Z" fill="#455a64"/></g><g><path d="M152.653,188.557v86.139c0,.712-.5,1.578-1.117,1.934l-2.376,1.371c-.617.356-1.617.356-2.234,0l-2.375-1.371c-.617-.356-1.117-1.222-1.117-1.934v-86.139c0-.712.5-1.001,1.117-.645l2.375,1.371c.617.356,1.617.356,2.234,0l2.375-1.371c.617-.355,1.118-.067,1.118.645Z" fill="#37474f"/><path d="M146.926,278.002l-2.375-1.371c-.617-.356-1.117-1.222-1.117-1.934v-86.139c0-.712.5-1.001,1.117-.645l2.375,1.371c.617.356,1.117,1.222,1.117,1.934v86.139c0,.713-.5,1.001-1.117.645Z" fill="#455a64"/></g><g><g><g><path d="M451.946,239.588v-.81c0-1.297-.91-2.873-2.033-3.521L231.727,109.287c-1.123-.648-2.943-.648-4.066,0l-109.87,63.455c-1.123.648-2.033,2.225-2.033,3.521v.81c0,1.296.91,2.873,2.033,3.521l218.186,125.97c1.123.648,2.943.648,4.066,0l109.87-63.455c1.123-.648,2.033-2.224,2.033-3.521Z" fill="#37474f"/></g><g><path d="M338.01,301.549v5.508c.735,0,1.471-.172,2.034-.485L449.91,243.114c1.127-.657,2.035-2.222,2.035-3.521v-.814c0-1.142-.704-2.52-1.659-3.255.736.626.611,1.503-.376,2.082L340.044,301.064c-.563.328-1.298.485-2.034.485Z" fill="#27debf"/></g><g><path d="M338.01,301.549v5.508c.735,0,1.471-.172,2.034-.485L449.91,243.114c1.127-.657,2.035-2.222,2.035-3.521v-.814c0-1.142-.704-2.52-1.659-3.255.736.626.611,1.503-.376,2.082L340.044,301.064c-.563.328-1.298.485-2.034.485Z" fill="#263238"/></g><g><path d="M449.913,237.604l-109.87,63.455c-1.122.648-2.943.648-4.066,0L117.792,175.09c-1.123-.648-1.123-1.699,0-2.347l109.87-63.455c1.123-.648,2.943-.648,4.066,0l218.186,125.97c1.122.647,1.122,1.698-.001,2.346Z" fill="#455a64"/></g></g></g></g><g><path d="M280.883,194.133l-20.71,11.991c-.641.371-1.68.372-2.321.002L196.67,170.85c-.641-.37-.642-.97-.001-1.341l20.71-11.991c.64-.371,1.679-.372,2.32-.002l61.183,35.276c.641.37.642.97.001,1.341Z" opacity="0.15"/><g><g><path d="M197.924,167.383c0-.243.16-.485.481-.67l19.456-11.231c.641-.37,1.68-.37,2.32.001l59.367,34.332c.32.185.48.427.48.67c0,.242,0,1.798,0,2.04c0,.243-.16.485-.482.67L260.1,204.425c-.642.369-1.681.368-2.322-.002l-59.374-34.277c-.319-.184-.479-.426-.481-.667c0-.244.001-1.853.001-2.096Z" fill="#ebebeb"/><path d="M260.101,202.332l19.446-11.179c.641-.369.642-.968.002-1.339l-59.367-34.332c-.641-.37-1.68-.371-2.321-.001l-19.456,11.231c-.641.37-.641.97,0,1.34l59.374,34.277c.64.371,1.68.372,2.322.003Z" fill="#fff"/><path d="M259.014,202.608v2.086c.393-.009.786-.098,1.09-.268l19.439-11.23c.322-.188.482-.429.482-.67v-2.046c0,.241-.161.482-.482.67l-19.439,11.185c-.304.17-.697.264-1.09.273Z" fill="#e0e0e0"/></g><path d="M201.527,167.532c0-.012.009-.022.014-.024l1.925-1.111l2.613,1.508-1.937,1.149-2.61-1.507-.005-.015Zm3.014-1.739c0-.012.009-.022.014-.025l1.925-1.112l2.052,1.184-1.939,1.149-2.049-1.183-.003-.013Zm.635,3.847c0-.013.009-.022.014-.024l1.927-1.112l2.051,1.184-1.939,1.149-2.048-1.183-.005-.014Zm2.38-5.588c0-.013.009-.023.014-.026l1.925-1.111l3.314,1.913-1.937,1.15-3.313-1.912-.003-.014Zm.074,3.524c0-.013.009-.022.014-.025l1.925-1.112l1.63.941-1.939,1.15-1.628-.94-.002-.014Zm.635,3.847c0-.013.009-.022.014-.025l1.925-1.112l2.052,1.184-1.939,1.149-2.048-1.183-.004-.013Zm2.031-2.307c0-.013.01-.023.015-.026l1.925-1.111l1.629.941-1.937,1.149-1.628-.94-.004-.013Zm.274-6.804c0-.013.009-.023.014-.026l1.925-1.111l2.613,1.509-1.939,1.149-2.61-1.507-.003-.014Zm.783,10.894c0-.012.009-.022.014-.025l1.925-1.112l14.825,8.559-1.94,1.149-14.821-8.558-.003-.013Zm.555-6.641c0-.013.009-.023.014-.026l1.925-1.111l1.629.941-1.937,1.149-1.628-.939-.003-.014Zm1.056,4.09c0-.013.009-.023.014-.026l1.925-1.111l1.629.942-1.937,1.149-1.627-.939-.004-.015Zm.621-10.083c0-.013.009-.023.014-.026l1.925-1.112l1.629.941-1.937,1.15-1.628-.94-.003-.013Zm.635,3.847c0-.013.009-.022.014-.025l1.925-1.112l1.631.941-1.939,1.149-1.627-.94-.004-.013Zm.355,3.686c0-.013.009-.023.014-.026l1.925-1.111l1.629.941-1.939,1.15-1.626-.94-.003-.014Zm1.056,4.09c0-.013.009-.023.014-.026l1.925-1.111l1.629.941-1.939,1.15-1.626-.94-.003-.014Zm.621-10.083c0-.013.009-.023.014-.026l1.925-1.111l1.629.941-1.937,1.149-1.627-.939-.004-.014Zm.635,3.847c0-.013.009-.022.014-.025l1.925-1.112l1.63.941-1.939,1.15-1.627-.94-.003-.014Zm.353,3.686c0-.012.011-.022.015-.025l1.925-1.112l1.629.941-1.939,1.15-1.626-.94-.004-.014Zm.003-11.185c0-.013.009-.023.014-.025l1.925-1.112l2.051,1.185-1.939,1.149-2.047-1.183-.004-.014Zm1.055,15.275c0-.013.009-.023.014-.026l1.925-1.111l1.629.941-1.937,1.149-1.627-.939-.004-.014Zm.621-10.083c0-.013.009-.023.014-.026l1.925-1.111l1.629.941-1.937,1.149-1.627-.939-.004-.014Zm.635,3.847c0-.013.009-.023.014-.025l1.925-1.112l1.63.941-1.939,1.149-1.628-.94-.002-.013Zm.355,3.685c0-.013.009-.022.014-.025l1.925-1.112l1.629.941-1.939,1.149-1.626-.94-.003-.013Zm1.056,4.091c0-.013.009-.023.014-.026l1.925-1.111l1.629.941-1.937,1.149-1.627-.939-.004-.014Zm.526-14.363c0-.013.009-.022.014-.025l1.927-1.112l1.629.941-1.939,1.149-1.628-.94-.003-.013Zm.094,4.28c0-.013.011-.023.015-.026l1.925-1.111l1.629.941-1.939,1.15-1.626-.94-.004-.014Zm.636,3.847c0-.013.009-.023.014-.025l1.925-1.112l1.631.941-1.939,1.149-1.627-.94-.004-.013Zm.353,3.686c0-.013.011-.023.015-.026l1.925-1.111l1.629.941-1.939,1.15-1.626-.94-.004-.014Zm1.057,4.09c0-.012.01-.022.015-.025l1.925-1.112l1.629.941-1.939,1.15-1.626-.94-.004-.014Zm.527-14.362c0-.014.009-.023.014-.026l1.925-1.111l1.63.941-1.939,1.15-1.627-.94-.003-.014Zm.094,4.278c0-.013.009-.022.014-.024l1.927-1.112l1.629.941-1.939,1.149-1.626-.94-.005-.014Zm.636,3.848c0-.013.009-.023.013-.025l1.925-1.112l1.63.941-1.939,1.15-1.627-.939-.002-.015Zm.354,3.685c0-.013.009-.022.014-.025l1.927-1.112l1.629.941-1.939,1.149-1.626-.94-.005-.013Zm1.057,4.09c0-.013.009-.022.014-.025l1.925-1.112l1.629.941-1.937,1.149-1.628-.939-.003-.014Zm.526-14.362c0-.013.009-.023.014-.026l1.925-1.111l1.63.941-1.939,1.149-1.627-.94-.003-.013Zm.095,4.279c0-.013.009-.023.014-.026l1.925-1.111l1.629.941-1.939,1.15-1.626-.94-.003-.014Zm.295,14.093c0-.013.009-.023.014-.025l1.925-1.112l2.051,1.184-1.939,1.15-2.048-1.183-.003-.014Zm.34-10.245c0-.013.009-.023.014-.025l1.925-1.112l1.631.941-1.939,1.149-1.628-.94-.003-.013Zm.354,3.684c0-.012.009-.022.014-.024l1.927-1.112l1.629.941-1.939,1.149-1.626-.94-.005-.014Zm1.057,4.091c0-.013.009-.023.014-.026l1.925-1.111l1.629.941-1.939,1.149-1.626-.94-.003-.013Zm.526-14.362c0-.013.009-.022.014-.025l1.925-1.112l1.63.941-1.939,1.149-1.628-.94-.002-.013Zm.094,4.279c0-.013.011-.023.015-.026l1.925-1.111l1.629.941-1.939,1.149-1.626-.94-.004-.013Zm.636,3.847c0-.013.009-.023.014-.025l1.925-1.112l1.63.941-1.939,1.149-1.627-.94-.003-.013Zm.08,10.489c0-.013.011-.023.015-.026l1.925-1.111l2.051,1.184-1.937,1.15-2.049-1.183-.005-.014Zm.274-6.803c0-.013.011-.023.015-.026l1.925-1.111l1.629.941-1.939,1.149-1.626-.94-.004-.013Zm1.056,4.09c0-.013.01-.023.015-.026l1.925-1.111l1.629.941-1.937,1.149-1.627-.939-.005-.014Zm.621-10.084c0-.013.009-.022.014-.025l1.927-1.112l1.629.941-1.939,1.15-1.626-.94-.005-.014Zm.636,3.848c0-.012.009-.022.013-.025l1.925-1.112l1.629.941-1.937,1.149-1.628-.939-.002-.014Zm.354,3.685c0-.013.009-.022.014-.025l1.927-1.112l1.629.941-1.939,1.149-1.626-.94-.005-.013Zm.077-11.141c0-.013.009-.022.014-.025l1.925-1.112l1.63.941-1.939,1.149-1.627-.94-.003-.013Zm.071,18.188c0-.013.009-.023.014-.026l1.925-1.111l2.052,1.184-1.939,1.149-2.049-1.183-.003-.013Zm.908-2.957c0-.013.009-.022.014-.024l1.927-1.112l1.629.941-1.939,1.149-1.626-.94-.005-.014Zm.621-10.083c0-.014.012-.024.015-.026l1.924-1.11l1.631.94-1.939,1.15-1.626-.94-.005-.014Zm.636,3.848c0-.013.009-.022.014-.025l1.925-1.112l1.63.941-1.939,1.149-1.628-.94-.002-.013Zm.354,3.685c0-.013.009-.022.014-.025l1.927-1.112l1.629.941-1.939,1.149-1.626-.94-.005-.013Zm.077-11.142c0-.013.009-.022.014-.025l1.925-1.112l1.631.941-1.939,1.149-1.627-.94-.004-.013Zm.493,18.432c0-.013.009-.023.014-.025l1.925-1.112l2.613,1.509-1.939,1.149-2.61-1.507-.003-.014Zm.486-3.199c0-.013.011-.022.015-.025l1.925-1.112l5.139,2.967-1.939,1.149-5.136-2.966-.004-.013Zm.621-10.084c0-.013.009-.022.014-.025l1.927-1.111l1.629.941-1.939,1.149-1.626-.94-.005-.014Zm.636,3.848c0-.013.009-.023.014-.025l1.925-1.112l1.63.941-1.939,1.149-1.627-.94-.003-.013Zm.354,3.684c0-.012.009-.022.014-.024l1.927-1.112l1.629.941-1.939,1.149-1.626-.94-.005-.014Zm.077-11.14c0-.013.009-.023.014-.025l1.925-1.112l1.63.941-1.939,1.149-1.628-.94-.002-.013Zm1.6,5.147c0-.013.009-.022.014-.025l1.927-1.111l1.629.941-1.939,1.15-1.626-.94-.005-.015Zm.435,14.175c0-.012.009-.021.014-.024l1.927-1.113l1.629.941-1.939,1.149-1.626-.94-.005-.013Zm.202-10.326c0-.013.009-.023.013-.025l1.925-1.112l1.629.941-1.937,1.149-1.628-.939-.002-.014Zm.353,3.685c0-.012.009-.021.014-.024l1.927-1.113l1.488.86c.104.06.28.096.47.096.199,0,.379-.037.493-.102l2.528-1.46l1.91,1.104-4.95,2.89-3.874-2.237-.006-.014Zm.077-11.142c0-.012.009-.022.014-.025l1.925-1.112l1.63.941-1.939,1.149-1.628-.94-.002-.013Zm1.6,5.149c0-.013.009-.022.014-.025l1.925-1.112l1.63.941-1.939,1.149-1.626-.94-.004-.013Zm.437,14.174c0-.013.009-.023.014-.025l1.925-1.112l1.629.941-1.939,1.149-1.626-.94-.003-.013Zm.199-10.327c0-.013.009-.023.014-.025l1.925-1.112l1.629.941-1.939,1.149-1.626-.939-.003-.014Zm1.592-6.786c0-.013.009-.023.014-.025l1.925-1.112l1.631.941-1.939,1.149-1.627-.94-.004-.013Zm.439,4.478c0-.012.009-.022.014-.025l1.925-1.111l1.63.941-1.939,1.149-1.626-.94-.004-.014Zm.435,14.175c0-.013.009-.023.015-.026l1.925-1.111l1.629.941-1.939,1.15-1.626-.94-.004-.014Zm.348-3.281c0-.013.009-.023.014-.026l1.927-1.111l1.629.941-1.939,1.149-1.628-.94-.003-.013Zm1.445-13.832c0-.013.009-.023.014-.025l1.925-1.112l1.629.941-1.937,1.149-1.628-.939-.003-.014Zm.439,4.478c0-.013.009-.022.014-.025l1.925-1.111l2.894,1.67-1.939,1.15-2.889-1.669-.005-.015Zm.998,14.499c0-.013.009-.022.013-.025l1.925-1.112l4.298,2.481-1.939,1.15-4.294-2.48-.003-.014Zm.48-10.165c0-.013.009-.023.014-.026l1.925-1.111l1.63.941-1.937,1.149-1.629-.94-.003-.013Zm.75-7.272c0-.013.009-.023.014-.025l1.925-1.112l1.629.941-1.937,1.15-1.628-.939-.003-.015Zm1.784,15.696c0-.013.009-.023.014-.026l1.925-1.111l1.631.941L253.9,194.3l-1.629-.94-.004-.013Zm.133-6.884c0-.013.009-.023.014-.026l1.925-1.111l1.63.94-1.939,1.15-1.627-.94-.003-.013Zm.348-3.28c0-.013.009-.023.014-.025l1.925-1.112l1.63.941-1.939,1.149-1.628-.939-.002-.014Zm.402-3.993c0-.013.009-.023.014-.025l1.925-1.112l1.629.941-1.937,1.149-1.627-.939-.004-.014Zm1.437,18.977c0-.013.009-.023.014-.026l1.925-1.111l1.631.941-1.939,1.15-1.627-.94-.004-.014Zm.347-3.28c0-.013.009-.023.014-.026l1.925-1.111l1.63.941-1.939,1.15-1.627-.939-.003-.015Zm.134-6.884c0-.013.009-.023.014-.026l1.925-1.111l1.63.941-1.939,1.149-1.627-.94-.003-.013Zm.214,3.604c0-.013.009-.023.014-.025l1.925-1.112l1.629.941-1.937,1.149-1.627-.939-.004-.014Zm.133-6.884c0-.013.009-.023.014-.026l1.925-1.111l1.63.941-1.939,1.15-1.628-.939-.002-.015Zm.991-3.652c0-.013.009-.023.014-.025l1.925-1.112l1.63.941-1.939,1.149-1.627-.939-.003-.014Zm.848,18.636c0-.013.009-.023.013-.026l4.94-2.851l1.63.941-4.952,2.891-1.629-.94-.002-.015Zm.348-3.28c0-.013.009-.023.014-.026l1.925-1.111l1.63.941-1.939,1.15-1.628-.94-.002-.014Zm.347-3.28c0-.013.009-.023.014-.025l1.925-1.112l1.629.941-1.937,1.149-1.628-.939-.003-.014Zm.133-6.885c0-.013.009-.023.014-.026l1.925-1.111l1.63.941-1.939,1.149-1.627-.939-.003-.014Zm.213,3.605c0-.013.009-.022.014-.024l1.927-1.113l1.629.941-1.939,1.149-1.626-.939-.005-.014Zm.778-7.256c0-.013.009-.023.014-.025l1.925-1.112l1.63.941-1.939,1.15-1.627-.939-.003-.015Zm1.543,12.076c0-.013.009-.023.014-.025l1.925-1.112l1.629.941-1.937,1.15-1.627-.94-.004-.014Zm.346-3.281c0-.013.009-.022.014-.024l1.927-1.113l1.629.941-1.939,1.15-1.626-.94-.005-.014Zm.348-3.28c0-.013.009-.022.014-.025l1.925-1.112l1.63.941-1.939,1.149-1.626-.94-.004-.013Zm.43-3.976c0-.013.009-.023.014-.025l1.925-1.112l1.63.941-1.939,1.149-1.628-.94-.002-.013Zm1.543,12.076c0-.013.009-.023.014-.026l4.94-2.852l1.629.941-4.95,2.891-1.629-.94-.004-.014Zm.346-3.28c0-.012.009-.021.014-.024l1.927-1.113l1.629.941-1.939,1.15-1.626-.94-.005-.014Zm.348-3.28c0-.012.009-.021.014-.024l1.925-1.113l1.63.941-1.939,1.149-1.626-.94-.004-.013Zm1.766-4.099c0-.013.009-.023.014-.025l.818-.483l1.63.941-.837.516-1.622-.936-.003-.013Zm.901,5.639c0-.013.009-.022.014-.025l1.925-1.112l1.631.941-1.939,1.149-1.626-.94-.005-.013Zm1.766-4.099c0-.013.009-.023.014-.026l.818-.482l1.63.941-.837.516-1.621-.935-.004-.014Zm.901,5.638c0-.012.009-.022.014-.025l1.925-1.112l1.63.941-1.939,1.15-1.626-.939-.004-.015Zm1.766-4.098c0-.013.009-.023.014-.026l.818-.482l1.63.941-.837.516-1.622-.935-.003-.014Zm2.666,1.54c0-.013.01-.023.015-.026l.818-.483l1.63.941-.837.517-1.621-.936-.005-.013Z" fill="#455a64"/></g></g><g><polygon points="363.697,213.025 384.65,200.928 279.883,140.44 258.929,152.537" opacity="0.15"/><g><g><g><path d="M304.37,193.332l-14.959-8.649c-1.542-.89-2.313-2.057-2.313-3.224s-.006-2.081-.006-2.081l14.076-7.989c.822-.475,1.489-1.63,1.489-2.579v-18.443l26.128,15.098.001,18.443c0,.949-.667,2.104-1.489,2.579l-11.758,6.846c-3.085,1.78-8.085,1.78-11.169-.001Z" fill="#e6e6e6"/></g><path d="M322.512,187.173v2.072l4.789-2.76c.817-.473,1.487-1.625,1.487-2.579v-18.441l-4.978-2.872c-.103,1.264-.215,2.571-.318,3.843l3.49,2.02v14.409c0,.954-.662,2.106-1.487,2.579l-2.983,1.729Z" fill="#e0e0e0"/><path d="M326.983,182.87c0,.95-.667,2.104-1.489,2.579l-9.954,5.803c-3.084,1.781-8.085,1.781-11.169.001l-14.967-8.649c-3.084-1.78-3.085-4.666-.001-6.447l9.961-5.808c.823-.475,1.489-1.63,1.489-2.579v-14.411l26.129,15.098v14.413h.001Z" fill="#f5f5f5"/><path d="M296.332,172.103v-.002l3.033-1.751c.823-.475,1.489-1.63,1.489-2.579v-14.411l26.129,15.098v14.412c0,.95-.667,2.104-1.489,2.579l-2.981,1.721-26.181-15.067Z" fill="#ebebeb"/><path d="M287.094,179.38c0,0,0,.911,0,2.08s.774,2.33,2.313,3.224l14.961,8.645c1.479.86,3.396,1.29,5.33,1.324v-2.072c-1.935-.026-3.852-.473-5.33-1.324l-14.961-8.653c-1.539-.886-2.313-2.055-2.313-3.224Z" fill="#ebebeb"/></g><path d="M368.936,202.766c-.964.557-2.58.527-3.608-.067-12.846-7.416-88.203-50.923-101.047-58.338-1.028-.594-1.861-2.037-1.861-3.224v-88.444c0-1.187.782-2.601,1.746-3.157.964-.557,2.579-.527,3.607.067L368.82,107.94c1.028.594,1.861,2.037,1.861,3.224l.001,88.445c0,1.187-.782,2.601-1.746,3.157Z" fill="#455a64"/><path d="M365.328,202.697L264.282,144.359c-1.028-.594-1.861-2.037-1.861-3.224v-88.445c0-1.187.833-1.668,1.861-1.075l101.045,58.338c1.028.593,1.861,2.037,1.861,3.224l.001,88.445c0,1.188-.833,1.669-1.861,1.075Z" fill="#27debf"/><path d="M365.328,202.697L264.282,144.359c-1.028-.594-1.861-2.037-1.861-3.224v-88.445c0-1.187.833-1.668,1.861-1.075l101.045,58.338c1.028.593,1.861,2.037,1.861,3.224l.001,88.445c0,1.188-.833,1.669-1.861,1.075Z" fill="#37474f"/><path d="M365.602,203.066c1.032.456,2.459.439,3.336-.069.963-.559,1.745-1.969,1.745-3.164v-9.947l-3.491,2.02v9.947c0,1.085-.687,1.575-1.59,1.213Z" fill="#e0e0e0"/><path d="M367.189,191.905v9.947c0,1.187-.833,1.668-1.861,1.075L264.282,144.589c-1.028-.594-1.861-2.037-1.861-3.224v-9.947l104.768,60.487Z" fill="#fff"/><path d="M363.698,184.338l-.001-70.001c0-.712-.5-1.578-1.117-1.934L267.031,57.238c-.617-.356-1.117-.067-1.117.645l-.003,70.003c0,.712.5,1.578,1.117,1.934l95.553,55.164c.617.355,1.117.066,1.117-.646Z" fill="#27debf"/><path d="M363.698,184.338l-.001-70.001c0-.712-.5-1.578-1.117-1.934L267.031,57.238c-.617-.356-1.117-.067-1.117.645l-.003,70.003c0,.712.5,1.578,1.117,1.934l95.553,55.164c.617.355,1.117.066,1.117-.646Z" opacity="0.5" fill="#fff"/><path d="M358.047,113.756L272.973,64.638c-.617-.356-1.117-.067-1.117.645v61.943c0,.712.501,1.578,1.118,1.933l85.072,49.119c.617.355,1.118.066,1.118-.647v-61.94c0-.713-.5-1.579-1.117-1.935Z" fill="#455a64"/><g><path d="M281.781,79.834v38.943c0,.237-.167.334-.372.215l-6.24-3.603c-.206-.119-.372-.407-.372-.645v-38.942c0-.237.167-.333.372-.215l6.24,3.603c.205.118.372.407.372.644Z" fill="#263238"/><g><path d="M280.913,80.752l-2.06-1.189c-.154-.089-.279-.017-.279.161v2.379c0,.178.125.395.279.483l2.06,1.19c.154.089.279.017.279-.161v-2.38c.001-.178-.124-.394-.279-.483Z" fill="#37474f"/><path d="M277.727,78.913l-2.06-1.189c-.154-.089-.279-.017-.279.161v2.379c0,.178.125.395.279.484l2.06,1.19c.154.089.279.017.279-.161v-2.38c0-.179-.125-.395-.279-.484Z" fill="#37474f"/><path d="M280.913,84.361l-2.06-1.189c-.154-.089-.279-.017-.279.161v2.379c0,.178.125.395.279.483l2.06,1.19c.154.089.279.017.279-.161v-2.379c.001-.178-.124-.395-.279-.484Z" fill="#37474f"/><path d="M277.727,82.522l-2.06-1.189c-.154-.089-.279-.017-.279.161v2.379c0,.178.125.395.279.483l2.06,1.19c.154.089.279.017.279-.161v-2.379c0-.179-.125-.395-.279-.484Z" fill="#37474f"/><path d="M280.913,87.97l-2.06-1.189c-.154-.089-.279-.017-.279.161v2.379c0,.178.125.395.279.484l2.06,1.19c.154.089.279.017.279-.161v-2.38c.001-.178-.124-.394-.279-.484Z" fill="#37474f"/><path d="M277.727,86.131l-2.06-1.189c-.154-.089-.279-.017-.279.161v2.379c0,.178.125.394.279.483l2.06,1.19c.154.089.279.017.279-.161v-2.38c0-.177-.125-.394-.279-.483Z" fill="#37474f"/><path d="M280.913,91.58l-2.06-1.189c-.154-.089-.279-.017-.279.161v2.379c0,.178.125.394.279.483l2.06,1.19c.154.089.279.017.279-.161v-2.379c.001-.179-.124-.395-.279-.484Z" fill="#37474f"/><path d="M277.727,89.741l-2.06-1.189c-.154-.089-.279-.017-.279.161v2.379c0,.178.125.395.279.484l2.06,1.19c.154.089.279.017.279-.161v-2.38c0-.179-.125-.395-.279-.484Z" fill="#37474f"/><path d="M280.913,95.189L278.853,94c-.154-.089-.279-.017-.279.161v2.379c0,.178.125.395.279.484l2.06,1.19c.154.089.279.017.279-.161v-2.38c.001-.178-.124-.395-.279-.484Z" fill="#37474f"/><path d="M277.727,93.35l-2.06-1.189c-.154-.089-.279-.017-.279.161v2.379c0,.178.125.395.279.484l2.06,1.19c.154.089.279.017.279-.161v-2.379c0-.179-.125-.396-.279-.485Z" fill="#37474f"/><path d="M280.913,98.799l-2.06-1.189c-.154-.089-.279-.017-.279.161v2.379c0,.178.125.395.279.483l2.06,1.19c.154.089.279.017.279-.161v-2.379c.001-.179-.124-.395-.279-.484Z" fill="#37474f"/><path d="M277.727,96.96l-2.06-1.189c-.154-.089-.279-.017-.279.161v2.379c0,.178.125.395.279.483l2.06,1.19c.154.089.279.017.279-.161v-2.38c0-.178-.125-.394-.279-.483Z" fill="#37474f"/><path d="M280.913,102.408l-2.06-1.189c-.154-.089-.279-.017-.279.161v2.379c0,.178.125.395.279.484l2.06,1.19c.154.089.279.017.279-.161v-2.38c.001-.178-.124-.395-.279-.484Z" fill="#37474f"/><path d="M277.727,100.569l-2.06-1.189c-.154-.089-.279-.017-.279.161v2.379c0,.178.125.395.279.483l2.06,1.19c.154.089.279.017.279-.161v-2.379c0-.179-.125-.395-.279-.484Z" fill="#37474f"/><path d="M280.913,106.018l-2.06-1.189c-.154-.089-.279-.017-.279.161v2.379c0,.178.125.394.279.483l2.06,1.19c.154.089.279.017.279-.161v-2.38c.001-.178-.124-.395-.279-.483Z" fill="#37474f"/><path d="M277.727,104.178l-2.06-1.189c-.154-.089-.279-.017-.279.161v2.379c0,.178.125.394.279.484l2.06,1.19c.154.089.279.017.279-.161v-2.379c0-.179-.125-.396-.279-.485Z" fill="#37474f"/></g><path d="M280.776,110.541l-3.073-1.774c-.23-.133-.417-.025-.417.24l-.001,3.549c0,.266.186.589.416.721l3.073,1.775c.23.133.416.025.416-.24v-3.55c.003-.265-.184-.588-.414-.721Z" fill="#e0e0e0"/><path d="M275.978,111.145l2.522,1.457c.035.024.09.12.094.166v2.91l-2.523-1.457c-.035-.024-.09-.12-.094-.166l.001-2.91m-.414-.933c-.137,0-.23.109-.23.297l-.001,3.549c0,.266.186.589.416.721l3.074,1.775c.067.039.13.057.186.057.137,0,.23-.109.23-.297v-3.55c0-.266-.186-.589-.417-.721l-3.073-1.774c-.066-.039-.129-.057-.185-.057v0Z" fill="#455a64"/></g><path d="M346.42,120.2L291.064,88.24c-1.169-.675-2.117-.128-2.117,1.222v41.006c0,1.35.948,2.992,2.118,3.667l55.355,31.937c1.17.675,2.118.127,2.118-1.223l.001-40.983c-.001-1.349-.95-2.991-2.119-3.666Z" fill="#37474f"/><g><g><g><path d="M294.128,96.535c-.089,0-.16-.071-.16-.16v-.642c0-.057.03-.11.08-.139s.111-.029.161,0l.556.321c.076.044.102.143.059.22-.045.076-.143.101-.22.059l-.315-.182v.364c-.001.088-.072.159-.161.159Z" fill="#27debf"/></g><g><path d="M313.098,106.845c-.028,0-.055-.007-.081-.021l-1.151-.665c-.077-.044-.102-.143-.059-.22.044-.077.143-.102.22-.059l1.151.665c.077.044.103.143.059.22-.03.052-.083.08-.139.08Zm-2.302-1.329c-.028,0-.055-.007-.081-.021l-1.15-.665c-.076-.044-.102-.143-.059-.22.045-.077.144-.102.22-.059l1.15.665c.076.045.102.143.059.22-.03.052-.084.08-.139.08Zm-2.301-1.329c-.028,0-.055-.007-.081-.021l-1.151-.664c-.076-.045-.102-.143-.059-.22.044-.077.142-.102.22-.059l1.151.664c.076.045.103.143.059.22-.03.052-.084.08-.139.08Zm-2.302-1.329c-.028,0-.055-.007-.081-.021l-1.151-.664c-.076-.044-.102-.143-.059-.22.044-.077.142-.102.22-.059l1.151.664c.076.044.102.143.059.22-.03.051-.084.08-.139.08Zm-2.302-1.328c-.028,0-.055-.007-.081-.021l-1.151-.665c-.076-.045-.102-.143-.059-.22.045-.077.144-.102.22-.059l1.151.665c.076.044.102.143.059.22-.03.051-.083.08-.139.08Zm-2.302-1.329c-.028,0-.055-.007-.08-.021l-1.151-.665c-.076-.045-.102-.143-.059-.22.045-.077.144-.102.22-.059l1.151.665c.076.044.102.143.059.22-.031.051-.085.08-.14.08Zm-2.302-1.329c-.028,0-.055-.007-.081-.021l-1.15-.664c-.076-.044-.102-.143-.059-.22.044-.077.144-.102.22-.059l1.15.664c.076.045.103.143.059.22-.03.051-.084.08-.139.08Zm-2.301-1.329c-.028,0-.055-.007-.081-.021l-1.151-.664c-.077-.044-.103-.143-.059-.22s.141-.102.22-.059l1.151.664c.076.045.102.143.059.22-.03.051-.084.08-.139.08Z" fill="#27debf"/></g><g><path d="M314.805,108.473c-.089,0-.16-.071-.16-.16v-.55l-.477-.275c-.076-.045-.102-.143-.059-.22.045-.077.144-.103.22-.059l.557.322c.05.029.08.082.08.139v.642c-.001.09-.072.161-.161.161Z" fill="#27debf"/></g><g><path d="M314.805,139.444c-.089,0-.16-.071-.16-.16v-1.29c0-.089.071-.16.16-.16s.16.071.16.16v1.29c0,.088-.071.16-.16.16Zm0-2.581c-.089,0-.16-.071-.16-.16v-1.29c0-.089.071-.16.16-.16s.16.071.16.16v1.29c0,.088-.071.16-.16.16Zm0-2.581c-.089,0-.16-.071-.16-.16v-1.29c0-.089.071-.16.16-.16s.16.071.16.16v1.29c0,.088-.071.16-.16.16Zm0-2.581c-.089,0-.16-.071-.16-.16v-1.29c0-.089.071-.16.16-.16s.16.071.16.16v1.29c0,.089-.071.16-.16.16Zm0-2.581c-.089,0-.16-.071-.16-.16v-1.29c0-.089.071-.16.16-.16s.16.071.16.16v1.29c0,.089-.071.16-.16.16Zm0-2.581c-.089,0-.16-.071-.16-.16v-1.29c0-.089.071-.16.16-.16s.16.071.16.16v1.29c0,.089-.071.16-.16.16Zm0-2.581c-.089,0-.16-.071-.16-.16v-1.29c0-.089.071-.16.16-.16s.16.071.16.16v1.29c0,.089-.071.16-.16.16Zm0-2.58c-.089,0-.16-.071-.16-.16v-1.29c0-.089.071-.16.16-.16s.16.071.16.16v1.29c0,.088-.071.16-.16.16Zm0-2.581c-.089,0-.16-.071-.16-.16v-1.29c0-.089.071-.16.16-.16s.16.071.16.16v1.29c0,.088-.071.16-.16.16Zm0-2.581c-.089,0-.16-.071-.16-.16v-1.29c0-.089.071-.16.16-.16s.16.072.16.16v1.29c0,.088-.071.16-.16.16Zm0-2.581c-.089,0-.16-.071-.16-.16v-1.29c0-.089.071-.16.16-.16s.16.071.16.16v1.29c0,.088-.071.16-.16.16Zm0-2.581c-.089,0-.16-.071-.16-.16v-1.29c0-.089.071-.16.16-.16s.16.071.16.16v1.29c0,.089-.071.16-.16.16Z" fill="#27debf"/></g><g><path d="M314.805,141.376c-.028,0-.055-.007-.081-.021l-.556-.321c-.077-.044-.103-.143-.06-.219.045-.079.144-.103.219-.06l.316.182v-.364c0-.089.071-.16.16-.16s.16.071.16.16v.642c0,.057-.03.11-.08.139-.023.016-.05.022-.078.022Z" fill="#27debf"/></g><g><path d="M313.097,140.391c-.028,0-.055-.007-.081-.021l-1.151-.664c-.076-.044-.102-.143-.059-.22.045-.077.141-.102.22-.059l1.151.664c.076.045.102.143.059.22-.03.051-.083.08-.139.08Zm-2.302-1.329c-.028,0-.055-.007-.081-.021l-1.15-.664c-.077-.044-.103-.143-.059-.22.045-.077.144-.102.22-.059l1.15.664c.076.045.102.143.059.22-.03.051-.084.08-.139.08Zm-2.301-1.33c-.028,0-.055-.007-.081-.021l-1.151-.664c-.076-.045-.102-.143-.059-.22.045-.077.141-.102.22-.059l1.151.664c.076.044.102.143.059.22-.03.052-.084.08-.139.08Zm-2.302-1.329c-.028,0-.055-.007-.081-.021l-1.15-.664c-.076-.044-.102-.143-.059-.22.044-.077.144-.102.22-.059l1.15.664c.076.044.102.143.059.22-.03.052-.084.08-.139.08Zm-2.302-1.329c-.028,0-.055-.007-.081-.021l-1.151-.664c-.076-.044-.102-.143-.059-.22.044-.077.142-.102.22-.059l1.151.664c.077.044.103.143.059.22-.029.052-.083.08-.139.08Zm-2.302-1.328c-.028,0-.055-.007-.081-.021l-1.15-.665c-.076-.044-.102-.143-.059-.22.045-.077.144-.102.22-.059l1.15.665c.076.045.102.143.059.22-.03.052-.083.08-.139.08Zm-2.301-1.329c-.028,0-.055-.007-.081-.021l-1.151-.665c-.076-.044-.102-.143-.059-.22.045-.077.144-.102.22-.059l1.151.665c.076.044.103.143.059.22-.03.052-.084.08-.139.08Zm-2.302-1.329c-.028,0-.055-.007-.081-.021l-1.15-.665c-.077-.045-.103-.143-.059-.22s.144-.102.22-.059l1.15.665c.076.044.102.143.059.22-.03.051-.084.08-.139.08Z" fill="#27debf"/></g><g><path d="M294.684,129.759c-.028,0-.055-.007-.081-.021l-.556-.321c-.05-.029-.08-.082-.08-.139v-.642c0-.089.071-.16.16-.16s.16.071.16.16v.55l.476.274c.076.044.102.143.059.22-.029.05-.083.079-.138.079Z" fill="#27debf"/></g><g><path d="M294.128,127.506c-.089,0-.16-.071-.16-.16v-1.29c0-.089.071-.16.16-.16s.16.071.16.16v1.29c0,.088-.071.16-.16.16Zm0-2.581c-.089,0-.16-.071-.16-.16v-1.29c0-.089.071-.16.16-.16s.16.071.16.16v1.29c0,.088-.071.16-.16.16Zm0-2.581c-.089,0-.16-.071-.16-.16v-1.29c0-.089.071-.16.16-.16s.16.071.16.16v1.29c0,.088-.071.16-.16.16Zm0-2.581c-.089,0-.16-.071-.16-.16v-1.29c0-.089.071-.16.16-.16s.16.071.16.16v1.29c0,.089-.071.16-.16.16Zm0-2.581c-.089,0-.16-.071-.16-.16v-1.29c0-.089.071-.16.16-.16s.16.071.16.16v1.29c0,.089-.071.16-.16.16Zm0-2.581c-.089,0-.16-.071-.16-.16v-1.29c0-.089.071-.16.16-.16s.16.071.16.16v1.29c0,.089-.071.16-.16.16Zm0-2.581c-.089,0-.16-.071-.16-.16v-1.29c0-.089.071-.16.16-.16s.16.071.16.16v1.29c0,.089-.071.16-.16.16Zm0-2.581c-.089,0-.16-.071-.16-.16v-1.29c0-.089.071-.16.16-.16s.16.071.16.16v1.29c0,.089-.071.16-.16.16Zm0-2.581c-.089,0-.16-.071-.16-.16v-1.29c0-.089.071-.16.16-.16s.16.071.16.16v1.29c0,.089-.071.16-.16.16Zm0-2.58c-.089,0-.16-.071-.16-.16v-1.291c0-.089.071-.16.16-.16s.16.071.16.16v1.291c0,.088-.071.16-.16.16Zm0-2.581c-.089,0-.16-.071-.16-.16v-1.29c0-.089.071-.16.16-.16s.16.071.16.16v1.29c0,.089-.071.16-.16.16Zm0-2.581c-.089,0-.16-.071-.16-.16v-1.29c0-.089.071-.16.16-.16s.16.071.16.16v1.29c0,.089-.071.16-.16.16Z" fill="#27debf"/></g></g><g><g><path d="M294.393,96.477c-.061,0-.119-.034-.146-.094l-.265-.585c-.037-.08-.001-.176.08-.212.081-.037.176-.002.212.08l.265.584c.037.081.001.176-.08.212-.021.011-.043.015-.066.015Z" fill="#27debf"/></g><g><path d="M313.995,139.594c-.061,0-.119-.034-.146-.094l-.544-1.197c-.037-.081-.001-.175.08-.212.081-.038.176-.002.212.08l.544,1.197c.037.081.001.175-.08.212-.022.01-.044.014-.066.014Zm-1.089-2.395c-.061,0-.119-.034-.146-.094l-.545-1.197c-.037-.081-.001-.176.08-.212.079-.037.175-.002.212.08l.545,1.197c.037.081.001.175-.08.212-.021.009-.044.014-.066.014Zm-1.089-2.396c-.061,0-.119-.034-.146-.094l-.545-1.197c-.037-.081-.001-.175.08-.212.077-.038.176-.003.212.08l.545,1.197c.037.081.001.175-.08.212-.021.01-.043.014-.066.014Zm-1.089-2.395c-.061,0-.119-.034-.146-.094l-.545-1.197c-.037-.081-.001-.175.08-.212.078-.038.176-.002.212.08l.545,1.197c.037.081.001.176-.08.212-.021.01-.043.014-.066.014Zm-1.089-2.395c-.061,0-.119-.035-.146-.094l-.545-1.197c-.037-.081-.001-.175.08-.212.077-.037.175-.002.212.08l.545,1.197c.037.081.001.175-.08.212-.021.009-.043.014-.066.014Zm-1.089-2.396c-.061,0-.119-.035-.146-.094l-.545-1.197c-.037-.081-.001-.175.08-.212.078-.038.175-.003.212.08l.545,1.197c.037.081.001.175-.08.212-.021.01-.043.014-.066.014Zm-1.089-2.395c-.061,0-.119-.035-.146-.094l-.545-1.197c-.037-.081-.001-.176.08-.213.078-.037.176-.002.212.08l.545,1.197c.037.081.001.176-.08.213-.021.01-.043.014-.066.014Zm-1.089-2.395c-.061,0-.119-.034-.146-.094l-.545-1.198c-.037-.081-.001-.175.08-.213.077-.038.175-.002.212.08l.545,1.198c.037.081.001.175-.08.213-.021.009-.043.014-.066.014Zm-1.089-2.396c-.061,0-.119-.034-.146-.094l-.545-1.198c-.037-.081-.001-.176.08-.213.078-.037.176-.002.212.08l.545,1.198c.037.081.001.175-.08.212-.02.011-.043.015-.066.015Zm-1.089-2.395c-.061,0-.119-.034-.146-.094l-.545-1.198c-.037-.081-.001-.175.08-.212.077-.038.175-.002.212.08l.545,1.198c.037.081.001.175-.08.212-.02.01-.043.014-.066.014Zm-1.089-2.395c-.061,0-.119-.035-.146-.094l-.545-1.198c-.037-.081-.001-.176.08-.212.077-.037.175-.002.212.08l.545,1.198c.037.081.001.175-.08.212-.02.009-.043.014-.066.014Zm-1.089-2.396c-.061,0-.119-.035-.146-.094l-.545-1.198c-.037-.081-.001-.175.08-.212.078-.037.175-.003.212.08l.545,1.198c.037.081.001.175-.08.212-.02.01-.043.014-.066.014Zm-1.089-2.395c-.061,0-.119-.035-.146-.094l-.545-1.198c-.037-.081-.001-.175.08-.212.077-.038.176-.002.212.08l.545,1.198c.037.08.001.175-.08.212-.02.01-.043.014-.066.014Zm-1.088-2.395c-.061,0-.119-.035-.146-.094l-.545-1.198c-.037-.081-.001-.175.08-.212.078-.037.176-.002.212.08l.545,1.198c.037.081.001.175-.08.212-.021.01-.044.014-.066.014Zm-1.089-2.396c-.061,0-.119-.034-.146-.094l-.545-1.198c-.037-.081-.001-.175.08-.212.078-.038.176-.003.212.08l.545,1.198c.037.081.001.175-.08.212-.021.01-.044.014-.066.014Zm-1.089-2.395c-.061,0-.119-.034-.146-.094l-.545-1.198c-.037-.081-.001-.175.08-.213.077-.038.176-.002.212.08l.545,1.198c.037.081.001.175-.08.212-.021.011-.044.015-.066.015Zm-1.089-2.395c-.061,0-.119-.034-.146-.094l-.545-1.198c-.037-.081-.001-.176.08-.213.078-.037.175-.002.212.08l.545,1.198c.037.081.001.175-.08.212-.021.01-.044.015-.066.015Zm-1.089-2.396c-.061,0-.119-.034-.146-.094l-.545-1.198c-.037-.081-.001-.175.08-.212.077-.038.175-.002.212.08l.545,1.198c.037.081.001.175-.08.212-.021.01-.044.014-.066.014Z" fill="#27debf"/></g><g><path d="M314.805,141.376c-.061,0-.119-.034-.146-.094l-.266-.584c-.037-.081-.001-.176.08-.212.077-.037.175-.002.212.08l.266.584c.037.081.001.176-.08.212-.021.01-.043.014-.066.014Z" fill="#27debf"/></g></g><g><g><path d="M314.361,108.295c-.04,0-.08-.014-.111-.044-.065-.061-.066-.163-.005-.227l.444-.464c.061-.065.164-.067.227-.005.065.061.066.163.005.227l-.444.464c-.032.033-.074.049-.116.049Z" fill="#27debf"/></g><g><path d="M295.432,128.075c-.04,0-.08-.014-.111-.044-.065-.061-.066-.163-.005-.227l.861-.899c.061-.066.164-.067.227-.005.065.061.066.163.005.227l-.861.899c-.031.033-.074.049-.116.049Zm1.721-1.799c-.04,0-.08-.014-.111-.044-.065-.061-.066-.163-.005-.227l.861-.899c.06-.066.163-.066.227-.005.065.061.066.163.005.227l-.861.899c-.032.033-.074.049-.116.049Zm1.721-1.797c-.04,0-.08-.014-.111-.044-.065-.061-.066-.163-.005-.227l.861-.899c.06-.065.163-.067.227-.005.065.061.066.163.005.227l-.861.899c-.031.033-.074.049-.116.049Zm1.72-1.799c-.04,0-.08-.014-.111-.044-.065-.061-.066-.163-.005-.227l.861-.899c.06-.065.163-.067.227-.005.065.061.066.163.005.227l-.861.899c-.031.033-.074.049-.116.049Zm1.721-1.798c-.04,0-.08-.014-.111-.045-.065-.061-.066-.163-.005-.227l.861-.899c.061-.066.164-.066.227-.005.065.061.066.163.005.227l-.861.899c-.031.034-.074.05-.116.05Zm1.721-1.798c-.04,0-.08-.014-.111-.045-.065-.061-.066-.163-.005-.227l.861-.899c.061-.065.164-.066.227-.005.065.061.066.163.005.227l-.861.899c-.032.034-.074.05-.116.05Zm1.721-1.799c-.04,0-.08-.014-.111-.045-.065-.061-.066-.163-.005-.227l.861-.899c.061-.065.164-.067.227-.005.065.061.066.163.005.227l-.861.899c-.032.034-.074.05-.116.05Zm1.721-1.798c-.04,0-.08-.014-.111-.045-.065-.061-.066-.163-.005-.227l.86-.899c.06-.065.163-.067.227-.005.065.061.066.163.005.227l-.86.899c-.031.033-.074.05-.116.05Zm1.72-1.798c-.04,0-.08-.014-.111-.045-.065-.061-.066-.163-.005-.227l.861-.899c.06-.066.163-.066.227-.005.065.061.066.163.005.227l-.861.899c-.031.035-.074.05-.116.05Zm1.721-1.798c-.04,0-.08-.014-.111-.045-.065-.061-.066-.163-.005-.227l.86-.899c.06-.064.163-.067.227-.005.065.061.066.163.005.227l-.86.899c-.031.033-.074.05-.116.05Zm1.721-1.798c-.04,0-.08-.014-.111-.044-.065-.061-.066-.163-.005-.227l.861-.899c.061-.066.164-.067.227-.005.065.061.066.163.005.227l-.861.899c-.032.033-.074.049-.116.049Z" fill="#27debf"/></g><g><path d="M294.128,129.438c-.04,0-.08-.014-.111-.044-.065-.061-.066-.163-.005-.227l.444-.464c.061-.066.164-.067.227-.005.065.061.066.163.005.227l-.444.464c-.032.033-.074.049-.116.049Z" fill="#27debf"/></g></g><g><g><path d="M304.466,135.407c-.089,0-.16-.071-.16-.16v-.642c0-.089.071-.16.16-.16s.16.071.16.16v.642c.001.088-.071.16-.16.16Z" fill="#27debf"/></g><g><path d="M304.466,133.573c-.089,0-.16-.071-.16-.161v-1.191c0-.089.071-.16.16-.16s.16.071.16.16v1.191c.001.09-.071.161-.16.161Zm0-2.382c-.089,0-.16-.071-.16-.16v-1.191c0-.089.071-.16.16-.16s.16.071.16.16v1.191c.001.088-.071.16-.16.16Zm0-2.383c-.089,0-.16-.071-.16-.16v-1.191c0-.089.071-.16.16-.16s.16.071.16.16v1.191c.001.088-.071.16-.16.16Zm0-2.383c-.089,0-.16-.071-.16-.16v-1.191c0-.089.071-.16.16-.16s.16.071.16.16v1.191c.001.089-.071.16-.16.16Zm0-2.383c-.089,0-.16-.071-.16-.16v-1.191c0-.089.071-.16.16-.16s.16.071.16.16v1.191c.001.089-.071.16-.16.16Zm0-2.382c-.089,0-.16-.071-.16-.16v-1.191c0-.089.071-.16.16-.16s.16.071.16.16v1.191c.001.088-.071.16-.16.16Z" fill="#27debf"/></g><g><path d="M304.466,119.277c-.089,0-.16-.072-.16-.16v-.642c0-.057.03-.11.08-.139s.111-.029.161,0l.556.321c.076.044.103.143.059.22-.046.076-.143.101-.22.059l-.315-.182v.364c0,.087-.072.159-.161.159Z" fill="#27debf"/></g><g><path d="M313.21,123.683c-.028,0-.056-.007-.081-.021l-1.023-.591c-.076-.045-.102-.143-.059-.22.044-.077.143-.102.22-.059l1.023.591c.076.044.102.143.059.22-.03.051-.084.08-.139.08Zm-2.047-1.182c-.028,0-.055-.007-.081-.021l-1.024-.591c-.076-.044-.102-.143-.059-.22.044-.077.144-.102.22-.059l1.023.591c.076.045.102.143.059.22-.029.051-.083.08-.138.08Zm-2.047-1.181c-.028,0-.055-.007-.081-.021l-1.023-.591c-.077-.044-.103-.143-.059-.22.045-.077.144-.102.22-.059l1.023.591c.076.044.103.143.059.22-.03.051-.084.08-.139.08Zm-2.047-1.183c-.028,0-.055-.007-.081-.021l-1.023-.591c-.077-.044-.103-.143-.059-.22.045-.077.144-.102.22-.059l1.023.591c.076.045.103.143.059.22-.03.052-.084.08-.139.08Z" fill="#27debf"/></g><g><path d="M314.791,124.595c-.028,0-.054-.007-.08-.021l-.557-.321c-.077-.044-.103-.143-.06-.219.044-.078.141-.103.22-.06l.556.321c.077.045.103.143.06.219-.03.052-.084.081-.139.081Z" fill="#27debf"/></g></g><g><g><path d="M304.467,102.406c-.089,0-.16-.071-.16-.16v-.642c0-.089.071-.16.16-.16s.16.071.16.16v.642c.001.089-.071.16-.16.16Z" fill="#27debf"/></g><g><path d="M304.467,116.703c-.089,0-.16-.071-.16-.16v-1.191c0-.089.071-.16.16-.16s.16.071.16.16v1.191c.001.088-.071.16-.16.16Zm0-2.383c-.089,0-.16-.071-.16-.16v-1.191c0-.089.071-.16.16-.16s.16.071.16.16v1.191c.001.089-.071.16-.16.16Zm0-2.383c-.089,0-.16-.072-.16-.16v-1.191c0-.089.071-.16.16-.16s.16.071.16.16v1.191c.001.089-.071.16-.16.16Zm0-2.383c-.089,0-.16-.071-.16-.16v-1.191c0-.089.071-.16.16-.16s.16.071.16.16v1.191c.001.089-.071.16-.16.16Zm0-2.382c-.089,0-.16-.071-.16-.16v-1.191c0-.089.071-.16.16-.16s.16.071.16.16v1.191c.001.088-.071.16-.16.16Zm0-2.383c-.089,0-.16-.071-.16-.16v-1.191c0-.089.071-.16.16-.16s.16.071.16.16v1.191c.001.089-.071.16-.16.16Z" fill="#27debf"/></g><g><path d="M304.467,118.537c-.028,0-.055-.007-.081-.021l-.557-.322c-.076-.044-.102-.143-.059-.22.045-.077.144-.102.22-.059l.316.183v-.365c0-.089.071-.16.16-.16s.16.071.16.16v.643c0,.057-.03.111-.08.139-.023.016-.051.022-.079.022Z" fill="#27debf"/></g><g><path d="M302.887,117.625c-.028,0-.055-.007-.081-.021l-1.023-.591c-.076-.044-.102-.143-.059-.22.045-.077.144-.102.22-.059l1.023.591c.077.045.102.143.059.22-.03.051-.083.08-.139.08Zm-2.047-1.183c-.028,0-.055-.007-.081-.021l-1.023-.591c-.076-.044-.103-.143-.059-.22s.144-.102.22-.059l1.023.591c.077.044.103.143.059.22-.03.052-.083.08-.139.08Zm-2.047-1.181c-.028,0-.055-.007-.081-.021l-1.023-.591c-.076-.045-.103-.143-.059-.22s.145-.102.22-.059l1.023.591c.076.044.102.143.059.22-.03.052-.083.08-.139.08Zm-2.047-1.182c-.028,0-.055-.007-.081-.021l-1.023-.591c-.076-.044-.102-.143-.059-.22.045-.077.144-.102.22-.059l1.023.591c.076.044.102.143.059.22-.03.051-.083.08-.139.08Z" fill="#27debf"/></g><g><path d="M294.699,112.897c-.028,0-.055-.007-.081-.021l-.556-.321c-.076-.045-.103-.143-.059-.22.045-.077.142-.102.22-.059l.556.321c.076.044.102.143.059.22-.03.051-.084.08-.139.08Z" fill="#27debf"/></g></g><path d="M314.795,124.438c0,9.263-4.637,14.096-10.358,10.793-5.72-3.303-10.358-13.49-10.358-22.753c0-9.264,4.637-14.096,10.358-10.793c5.721,3.302,10.358,13.489,10.358,22.753Z" fill="none" stroke="#27debf" stroke-width="0.3365" stroke-linecap="round" stroke-linejoin="round" stroke-miterlimit="10"/></g><polygon points="320.121,143.642 337.581,153.723 320.12,115.164" fill="#27debf"/><path d="M271.857,65.275c.004-.705.502-.991,1.116-.636l85.075,49.118c.617.356,1.117,1.222,1.117,1.934v4.759L271.858,70.044v-4.769h-.001Z" fill="#37474f"/><path d="M314.806,165.465c.965.557,1.746,1.911,1.746,3.025s-.782,1.565-1.747,1.008-1.747-1.911-1.746-3.025.783-1.565,1.747-1.008Z" fill="#455a64"/><path d="M366.642,111.337c.335.585.542,1.247.55,1.84v78.731l3.491-2.02v-78.722c0-.593-.215-1.255-.55-1.84l-3.491,2.011Z" fill="#263238"/></g></g><g><path d="M323.124,241.999l-53.91-31.125c-.505-.291-1.323-.291-1.828,0l-32.473,18.748c-.505.292-.505.764,0,1.056l53.91,31.125c.505.292,1.323.292,1.828,0l32.472-18.748c.506-.292.506-.765.001-1.056Z" opacity="0.15"/><g><g><path d="M322.233,238.648L269.81,208.382c-.491-.283-1.287-.283-1.778,0l-31.577,18.231c-.491.284-.889.973-.889,1.54v.354c0,.567.398,1.256.889,1.54l52.424,30.266c.491.283,1.287.283,1.778,0l31.577-18.231c.491-.283.889-.973.889-1.539v-.354c-.001-.569-.399-1.258-.89-1.541Z" fill="#27debf"/></g><g><path d="M322.233,238.648L269.81,208.382c-.491-.283-1.287-.283-1.778,0l-31.577,18.231c-.491.284-.491.743,0,1.026l52.423,30.266c.491.284,1.287.284,1.778,0l31.577-18.231c.491-.283.491-.743,0-1.026Z" fill="#27debf"/></g><g opacity="0.2"><path d="M322.233,238.648L269.81,208.382c-.491-.283-1.287-.283-1.778,0l-31.577,18.231c-.491.284-.491.743,0,1.026l52.423,30.266c.491.284,1.287.284,1.778,0l31.577-18.231c.491-.283.491-.743,0-1.026Z"/></g><g><path d="M278.321,218.132c-.491-.284-1.288-.286-1.78-.006-3.911,2.228-19.356,11.173-23.237,13.421-.49.284-.49.744.001,1.028c5.108,2.947,30.662,17.69,35.747,20.636.491.284,1.286.285,1.777.001l23.238-13.416c.491-.283.491-.743,0-1.026l-35.746-20.638Z" fill="#37474f"/></g><g><g><path d="M261.869,219.695c1.561.901,1.561,2.362,0,3.264s-4.092.902-5.653,0c-1.561-.901-1.561-2.363,0-3.264s4.092-.901,5.653,0Z" fill="#37474f"/></g><g><path d="M253.086,223.086l2.536,1.48c.737.425.867,1.038.292,1.37-.576.332-1.639.258-2.376-.167l-2.536-1.48c-.737-.425-.867-1.038-.292-1.371.576-.332,1.64-.257,2.376.168Z" fill="#37474f"/><path d="M250.125,224.802l2.536,1.48c.737.424.867,1.038.292,1.37-.576.332-1.64.258-2.376-.167l-2.536-1.48c-.737-.425-.867-1.038-.292-1.37s1.639-.258,2.376.167Z" fill="#37474f"/><path d="M247.164,226.518l2.536,1.48c.737.424.867,1.038.292,1.37-.576.332-1.64.258-2.376-.167l-2.536-1.48c-.737-.424-.867-1.038-.292-1.37.576-.332,1.639-.258,2.376.167Z" fill="#37474f"/></g><g><path d="M270.107,213.301l2.536,1.48c.737.424.867,1.038.292,1.37-.576.332-1.639.258-2.376-.167l-2.536-1.48c-.737-.425-.867-1.038-.292-1.37.576-.333,1.64-.258,2.376.167Z" fill="#37474f"/><path d="M267.147,215.017l2.536,1.48c.737.424.867,1.038.292,1.37-.576.332-1.64.258-2.376-.167l-2.536-1.48c-.737-.424-.867-1.038-.292-1.37s1.639-.258,2.376.167Z" fill="#37474f"/><path d="M264.186,216.733l2.536,1.48c.737.424.867,1.038.292,1.37-.576.332-1.64.258-2.376-.167l-2.536-1.48c-.737-.424-.867-1.038-.292-1.37s1.639-.258,2.376.167Z" fill="#37474f"/></g></g><g opacity="0.3"><path d="M289.768,258.12v2.402c.318,0,.647-.072.893-.205l31.572-18.239c.493-.277.893-.965.893-1.54v-.349c0-.503-.318-1.109-.729-1.427.318.277.267.657-.164.913l-31.572,18.229c-.247.144-.565.216-.893.216Z"/></g><g opacity="0.5"><path d="M235.563,228.149v.359c0,.564.4,1.252.893,1.54l52.419,30.269c.246.144.565.205.893.205v-2.402c-.328,0-.647-.072-.893-.216l-52.419-30.269c-.431-.246-.483-.626-.164-.914-.41.33-.729.925-.729,1.428Z"/></g></g></g><g><path d="M269.186,172.007c-.384.671-1.158,1.08-2.224,1.294-.269.054-.549-.004-.785-.142l-21.338-12.494-1.916-2.257c-.148-.174.017-.434.237-.376l4.276,1.133l21.644,12.496c.121.069.175.225.106.346Z" opacity="0.15"/><g><g><path d="M248.374,157.525l-4.433-.868c-.129-.025-.216.128-.129.226l3.007,3.405l1.555-2.763Z" fill="#ffa8a7"/><path d="M243.812,156.883c-.087-.098.001-.251.129-.226l.865.17v0c-.242.15-.38.423-.358.708l.006.077-.642-.729Z" fill="#263238"/><path d="M263.348,169.767l-.363-.208-.439-.249-15.728-9.021c-.164-.482-.085-1.009.123-1.47.314-.704.925-1.259,1.43-1.291l15.718,9.016.836.48c-.556-.282-2.134,2.454-1.577,2.743Z" fill="#27debf"/><path d="M261.965,168.98l-.809-.466c-.239-.127-.102-.714.178-1.321.37-.807,1.097-1.589,1.414-1.421l.597.342.211.126c-.317-.168-1.045.613-1.415,1.42-.267.582-.403,1.148-.2,1.302l.002.002c.006.007.013.011.022.016Z" fill="#ebebeb"/><path d="M261.764,168.861c-.556-.295,1.035-3.034,1.591-2.74l.811.464c-.556-.294-2.146,2.445-1.591,2.739l-.811-.463Z" fill="#27debf"/><path d="M263.348,169.767l-.801-.458c-.548-.285.965-2.941,1.544-2.767.01.002.022.007.033.013l.803.467c-.558-.28-2.136,2.456-1.579,2.745Z" fill="#ebebeb"/><path d="M243.792,156.734l.15-.077l3.217,1.759l16.631,9.543c.031-.05.057-.053.078-.019-.473.737-.83,1.665-.518,1.827l-.363-.208-.439-.249-15.728-9.021v-.001l-3.007-3.405c-.042-.046-.043-.104-.021-.149Z" opacity="0.15"/><path d="M266.746,171.711l-3.398-1.944c-.238-.123-.106-.705.168-1.309.367-.809,1.092-1.597,1.411-1.436.002-.001.002-.001.004.001l3.408,1.952c.677.391.054,1.861-.701,2.518-.28.248-.594.358-.892.218Z" fill="#f28f8f"/></g><path d="M266.543,170.657c.195-.766.815-1.517,1.386-1.677.209-.059.383-.029.509.068.511.475-.084,1.824-.798,2.445-.275.243-.583.352-.876.224-.255-.148-.353-.54-.221-1.06Z" opacity="0.1"/></g></g><g><path d="M313.527,221.956l6.523,3.766c2.056,1.187,5.279,1.017,7.199-.38l10.76-7.857c1.92-1.397,1.811-3.494-.243-4.684l-3.271-1.896c-2.054-1.19-5.44-1.293-7.562-.229l-13.285,7.203c-2.123,1.065-2.177,2.89-.121,4.077Z" opacity="0.15"/><path d="M338.188,214.072l-7.445,5.821-5.494,4.299c-.533.249-1.143.387-1.754.421-.928.052-1.874-.129-2.605-.55l-5.838-3.37c0,0-.009,0-.009-.009-.011-.006-.022-.013-.033-.019-2.048-1.192-2.531-3.96-1.179-5.906.056-.081.113-.16.172-.239c1.109-1.496,2.76-2.579,4.694-2.975l2.957-.593c4.789-.971,8.718-1.444,9.173-1.135l7.316,4.239c.019-.001.037.007.045.016Z" fill="#fff"/><path d="M334.026,217.327l.418-.328-6.565-3.79l5.745-1.778c-.198-.115-.392-.227-.581-.336l-5.745,1.778-3.915-2.26c-.244.045-.492.092-.742.141l11.385,6.573Z" fill="#455a64"/><path d="M325.894,223.838c.008-.008.026-.017.034-.026c0-.009.009-.009.009-.009l5.227-3.774l7.058-5.098v-.8c0-.026-.009-.043-.034-.06-.009-.008-.026-.017-.043-.017-.524-.181-3.585.739-7.282,2.21l-2.45.971c-.765.301-1.47.722-2.089,1.238-1.762,1.453-2.829,3.645-2.829,6.01v.129c.611-.035,1.221-.172,1.754-.421l.645-.353Z" fill="#e6e6e6"/></g><g><path d="M347.019,227.761c.13-.242.389-.41.712-.46l50.866-7.869.2-.015c.423,0,.778.196.925.513l2.199,4.737l2.723,2.723c.078.077.124.172.162.268l1.514.874c.256.148.411.398.411.67c0,.271-.152.522-.411.672l-37.238,21.499c-.212.122-.434.147-.584.147-.149,0-.371-.025-.583-.147l-7.714-4.454c-.257-.149-.409-.4-.409-.671s.155-.522.411-.67l9.064-5.233-10.603,3.535c-.123.041-.255.062-.391.062-.305,0-.586-.105-.769-.289l-5.456-5.455c-.186-.187-.263-.447-.204-.694.064-.273.277-.489.584-.591l12.038-4.013-13.517,2.091-.196.015c-.424,0-.779-.197-.926-.513l-2.823-6.082c-.1-.21-.093-.447.015-.65Z" opacity="0.15"/><g><g><g><path d="M360.367,243.991c0-.062.04-.124.122-.171l37.238-21.499c.163-.094.427-.094.59,0l7.713,4.453c.081.047.122.109.122.17c0,.062,0,1.094,0,1.155c0,.062-.04.124-.122.171l-37.238,21.499c-.163.094-.427.094-.59,0l-7.712-4.453c-.081-.047-.122-.109-.122-.17-.001-.061,0-1.093-.001-1.155Z" fill="#f0f0f0"/><path d="M368.503,248.689v1.155c.104,0,.208-.023.289-.069l37.242-21.509c.081-.046.116-.104.116-.162v-1.155c0,.069-.035.116-.116.162l-37.242,21.498c-.081.045-.173.08-.289.08Z" fill="#e0e0e0"/><path d="M397.727,222.321L360.49,243.82c-.163.094-.163.247,0,.341l7.713,4.453c.163.094.427.094.59,0l37.238-21.499c.163-.094.163-.247,0-.341l-7.713-4.453c-.164-.094-.428-.094-.591,0Z" fill="#fafafa"/><g><polygon points="398.023,224.281 402.634,226.945 398.021,229.608 393.409,226.945" fill="#f28f8f"/><polygon points="398.023,224.281 402.634,226.945 398.021,229.608 393.409,226.945" opacity="0.9" fill="#f0f0f0"/><g><polygon points="386.213,231.1 390.825,233.763 386.211,236.426 381.6,233.763" fill="#f28f8f"/><polygon points="386.213,231.1 390.825,233.763 386.211,236.426 381.6,233.763" opacity="0.6" fill="#f0f0f0"/></g><g><polygon points="380.308,234.509 384.92,237.172 380.306,239.835 375.695,237.172" fill="#f28f8f"/><polygon points="380.308,234.509 384.92,237.172 380.306,239.835 375.695,237.172" opacity="0.5" fill="#f0f0f0"/></g><g><polygon points="374.403,237.918 379.015,240.581 374.402,243.244 369.79,240.581" fill="#f28f8f"/><polygon points="374.403,237.918 379.015,240.581 374.402,243.244 369.79,240.581" opacity="0.4" fill="#f0f0f0"/></g><g><polygon points="368.498,241.327 373.11,243.99 368.497,246.654 363.885,243.991" fill="#f28f8f"/></g><g><polygon points="392.118,227.69 396.73,230.354 392.116,233.017 387.505,230.354" fill="#f28f8f"/><polygon points="392.118,227.69 396.73,230.354 392.116,233.017 387.505,230.354" opacity="0.8" fill="#f0f0f0"/></g></g></g></g><g><path d="M397.555,223.654c.259.149.677.149.936,0c.258-.149.258-.391,0-.54s-.677-.149-.936,0c-.258.149-.258.391,0,.54Z" fill="#263238"/></g></g><g><g><path d="M352.399,235.41c.001-.083.076-.163.209-.207l45.607-15.202c.2-.066.455-.027.57.088l5.453,5.454c.04.04.058.083.056.126v1.145c.003.085-.072.169-.209.214L358.478,242.23c-.2.066-.455.027-.57-.088l-5.453-5.454c-.039-.039-.057-.082-.056-.124.002-.082,0-1.112,0-1.154Z" fill="#f0f0f0"/><path d="M358.153,241.088v1.167c.104.012.219.012.323-.023l45.606-15.202c.139-.046.219-.127.208-.219v-1.144c0,.081-.081.162-.208.208l-45.606,15.202c-.104.034-.219.046-.323.011Z" fill="#e0e0e0"/><path d="M398.214,220.001l-45.606,15.202c-.2.067-.268.214-.153.329l5.453,5.454c.115.115.37.155.57.088l45.607-15.202c.2-.067.268-.214.153-.329l-5.453-5.454c-.117-.115-.372-.155-.571-.088Z" fill="#fafafa"/><g><polygon points="397.62,221.938 400.881,225.2 395.231,227.083 391.97,223.822" fill="#27debf"/><g><polygon points="383.156,226.76 386.417,230.021 380.767,231.904 377.506,228.643" fill="#27debf"/><polygon points="383.156,226.76 386.417,230.021 380.767,231.904 377.506,228.643" opacity="0.25"/></g><g><polygon points="375.924,229.17 379.185,232.432 373.535,234.315 370.274,231.054" fill="#27debf"/><polygon points="375.924,229.17 379.185,232.432 373.535,234.315 370.274,231.054" opacity="0.35"/></g><g><polygon points="368.692,231.581 371.953,234.843 366.303,236.726 363.042,233.464" fill="#27debf"/><polygon points="368.692,231.581 371.953,234.843 366.303,236.726 363.042,233.464" opacity="0.35"/></g><g><polygon points="361.461,233.992 364.721,237.253 359.071,239.136 355.81,235.875" fill="#27debf"/><polygon points="361.461,233.992 364.721,237.253 359.071,239.136 355.81,235.875" opacity="0.5"/></g><g><polygon points="390.388,224.349 393.649,227.611 387.999,229.494 384.738,226.233" fill="#27debf"/><polygon points="390.388,224.349 393.649,227.611 387.999,229.494 384.738,226.233" opacity="0.15"/></g></g></g><g><path d="M397.45,221.262c.183.183.587.245.904.14.316-.106.425-.339.242-.522s-.587-.245-.904-.14c-.317.106-.425.34-.242.522Z" fill="#263238"/></g></g><g><g><g><path d="M347.51,225.843c.003-.105.125-.2.31-.229l50.867-7.869c.223-.035.451.042.511.17l2.823,6.083c.01.02.014.041.014.061v1.157c.001.107-.122.204-.309.233l-50.868,7.869c-.223.035-.451-.042-.511-.17l-2.823-6.083c-.01-.022-.015-.045-.014-.067v-1.155Z" fill="#f0f0f0"/><path d="M350.609,232.159v1.143c.081.012.162.035.254.012l50.862-7.867c.185-.023.312-.127.312-.231v-1.155c0,.104-.127.196-.312.231l-50.862,7.867c-.092.011-.173.011-.254,0Z" fill="#e0e0e0"/><path d="M398.687,217.745l-50.867,7.869c-.223.035-.355.167-.295.295l2.823,6.083c.06.129.289.205.511.17l50.868-7.869c.223-.035.355-.167.295-.295l-2.823-6.083c-.061-.128-.29-.204-.512-.17Z" fill="#fafafa"/><g><polygon points="397.245,219.528 398.932,223.166 392.631,224.141 390.943,220.503" fill="#27debf"/><polygon points="397.245,219.528 398.932,223.166 392.631,224.141 390.943,220.503" opacity="0.9" fill="#fff"/><g><polygon points="381.112,222.024 382.8,225.662 376.498,226.636 374.811,222.999" fill="#27debf"/><polygon points="381.112,222.024 382.8,225.662 376.498,226.636 374.811,222.999" opacity="0.75" fill="#fff"/></g><g><polygon points="373.046,223.272 374.734,226.909 368.432,227.884 366.745,224.247" fill="#27debf"/><polygon points="373.046,223.272 374.734,226.909 368.432,227.884 366.745,224.247" opacity="0.7" fill="#fff"/></g><g><polygon points="364.98,224.519 366.668,228.157 360.366,229.132 358.678,225.494" fill="#27debf"/><polygon points="364.98,224.519 366.668,228.157 360.366,229.132 358.678,225.494" opacity="0.6" fill="#fff"/></g><g><polygon points="356.914,225.767 358.602,229.405 352.3,230.38 350.612,226.742" fill="#27debf"/></g><g><polygon points="389.179,220.776 390.866,224.414 384.565,225.388 382.877,221.751" fill="#27debf"/><polygon points="389.179,220.776 390.866,224.414 384.565,225.388 382.877,221.751" opacity="0.8" fill="#fff"/></g></g></g></g><g><path d="M397.383,218.85c.095.204.457.325.81.27s.563-.264.468-.468-.458-.325-.811-.27c-.352.054-.561.264-.467.468Z" fill="#263238"/></g></g></g><g><g opacity="0.15"><path d="M329.865,276.501c4.467-1.995,11.588-1.995,15.906,0s4.318,5.229,0,7.223c-4.318,1.995-11.439,1.995-15.906,0-4.467-1.994-4.467-5.228,0-7.223Z"/></g><g><g><path d="M326.903,253.202l21.717.024-1.646,25.586h-.021c-.103.932-.973,1.851-2.632,2.563-3.537,1.517-9.369,1.517-13.028,0-1.716-.712-2.617-1.631-2.723-2.563h-.021l-1.646-25.61Z" fill="#fafafa"/></g><g><path d="M348.62,253.226l-.334,5.196c-.499.346-1.094.675-1.814.973-4.696,1.945-12.44,1.945-17.298,0-.21-.084-.385-.176-.576-.264-.774-.365-1.363-.767-1.363-.767l-.332-5.161l21.717.023Z" fill="#e0e0e0"/></g><g><g><path d="M326.514,254.068v-3.597h2.327c.311-.163.65-.321,1.023-.47c4.467-1.788,11.588-1.788,15.906-.001.359.149.678.308.977.471h2.261v3.597v0c0,1.172-1.08,2.344-3.238,3.238-4.318,1.788-11.439,1.788-15.906,0-2.233-.894-3.35-2.066-3.35-3.238Z" fill="#27debf"/></g><g opacity="0.2"><path d="M326.514,254.068v-3.597h2.327c.311-.163.65-.321,1.023-.47c4.467-1.788,11.588-1.788,15.906-.001.359.149.678.308.977.471h2.261v3.597v0c0,1.172-1.08,2.344-3.238,3.238-4.318,1.788-11.439,1.788-15.906,0-2.233-.894-3.35-2.066-3.35-3.238Z"/></g><g><path d="M329.865,247.234c4.467-1.788,11.588-1.788,15.906,0s4.318,4.688,0,6.476-11.439,1.788-15.906,0c-4.467-1.789-4.467-4.688,0-6.476Z" fill="#27debf"/></g><g><path d="M329.39,249.459h-.009l.901-2.401h14.96l.902,2.401h-.009c.335.934-.442,1.914-2.351,2.632-3.247,1.221-8.603,1.221-11.962,0-1.974-.718-2.778-1.697-2.432-2.632Z" fill="#27debf"/><path d="M329.39,249.459h-.009l.901-2.401h14.96l.902,2.401h-.009c.335.934-.442,1.914-2.351,2.632-3.247,1.221-8.603,1.221-11.962,0-1.974-.718-2.778-1.697-2.432-2.632Z" opacity="0.2"/><g><path d="M332.48,245.385c2.987-1.086,7.75-1.086,10.638,0s2.888,2.848,0,3.934c-2.888,1.087-7.65,1.086-10.638,0-2.987-1.087-2.987-2.848,0-3.934Z" fill="#27debf"/></g><g opacity="0.3"><path d="M332.48,245.385c2.987-1.086,7.75-1.086,10.638,0s2.888,2.848,0,3.934c-2.888,1.087-7.65,1.086-10.638,0-2.987-1.087-2.987-2.848,0-3.934Z" fill="#fff"/></g><g><path d="M331.276,247.354c.005.041.083.181.331.372.233.176.62.398,1.225.62c1.318.476,3.143.755,5.004.755s3.655-.274,4.921-.75c.594-.222.966-.45,1.184-.625.243-.197.31-.341.31-.377c0-.072-.259-.532-1.494-.998-1.267-.476-3.06-.749-4.921-.749s-3.685.274-5.004.755c-1.241.45-1.551.904-1.556.997Z" fill="#27debf"/></g><g opacity="0.2"><path d="M331.276,247.354c.005.041.083.181.331.372.233.176.62.398,1.225.62c1.318.476,3.143.755,5.004.755s3.655-.274,4.921-.75c.594-.222.966-.45,1.184-.625.243-.197.31-.341.31-.377c0-.072-.259-.532-1.494-.998-1.267-.476-3.06-.749-4.921-.749s-3.685.274-5.004.755c-1.241.45-1.551.904-1.556.997Z"/></g><g><path d="M331.607,247.727c.233.176.62.398,1.225.62c1.318.476,3.143.755,5.004.755s3.655-.274,4.921-.75c.594-.222.966-.45,1.184-.625-.217-.176-.589-.403-1.184-.625-1.267-.476-3.06-.75-4.921-.75s-3.685.274-5.004.755c-.605.221-.993.439-1.225.62Z" fill="#27debf"/></g><g><path d="M334.599,247.794c-.435-.247-.964-.347-1.181-.225-.218.122-.041.424.394.674s.964.351,1.182.225c.217-.126.041-.428-.395-.674Z"/></g></g></g><g><g><path d="M347.657,273.039c0,.948-.95,1.897-2.849,2.62-3.799,1.447-10.065,1.447-13.995,0-1.961-.722-2.944-1.668-2.947-2.615l-.608-9.255c0,1.007,1.043,2.013,3.128,2.781c4.172,1.536,10.822,1.536,14.855,0c2.017-.768,3.025-1.775,3.025-2.781l-.609,9.25Z" fill="#ffbda7"/></g><g><g><path d="M334.394,273.496c-.353-.474-.548-1.057-.833-1.571-.569-1.023-1.381-1.718-2.421-2.131-.139-.055-.311.002-.377.136-.526,1.071-.203,2.571.886,3.661c1.078,1.078,2.563,1.412,3.633.909.061-.029.077-.147.028-.176-.344-.2-.651-.472-.916-.828Z" fill="#b16668"/></g><g><path d="M331.72,269.5c.561.214,1.085.552,1.526.939.472.414.837.943,1.104,1.511.406.863.794,1.397,1.39,1.841.129.097.328.071.417-.064.711-1.076.429-2.726-.745-3.9-1.112-1.112-2.656-1.432-3.731-.858-.216.115-.19.444.039.531Z" fill="#b16668"/></g></g></g></g></g><g><path d="M223.811,127.707c-6.582,3.8-6.582,9.961,0,13.761s17.253,3.8,23.834,0c6.582-3.8,6.582-9.961,0-13.761-6.581-3.8-17.252-3.8-23.834,0Z" opacity="0.15"/><path d="M250.784,130.103c-.681-1.483-2.024-2.885-4.038-4.048-6.085-3.513-15.951-3.513-22.036,0-2.014,1.163-3.357,2.565-4.038,4.048h-.526v2.313v0c0,2.302,1.521,4.605,4.564,6.361c6.085,3.513,15.951,3.513,22.036,0c3.042-1.756,4.564-4.059,4.564-6.361v0-2.313h-.526Z" fill="#27debf"/><path d="M250.784,130.103c-.681-1.483-2.024-2.885-4.038-4.048-6.085-3.513-15.951-3.513-22.036,0-2.014,1.163-3.357,2.565-4.038,4.048h-.526v2.313v0c0,2.302,1.521,4.605,4.564,6.361c6.085,3.513,15.951,3.513,22.036,0c3.042-1.756,4.564-4.059,4.564-6.361v0-2.313h-.526Z" opacity="0.5"/><path d="M224.71,136.464c-6.085-3.513-6.085-9.209,0-12.722s15.951-3.513,22.036,0s6.085,9.209,0,12.722-15.951,3.513-22.036,0Z" fill="#27debf"/><path d="M224.71,136.464c-6.085-3.513-6.085-9.209,0-12.722s15.951-3.513,22.036,0s6.085,9.209,0,12.722-15.951,3.513-22.036,0Z" opacity="0.2"/><g><path d="M239.114,128.713l-2.922-1.025c12.497-35.635-16.697-47.031-17.946-47.498l1.08-2.902c.335.124,33.306,12.877,19.788,51.425Z" fill="#27debf"/></g><g><path d="M241.737,130.103c0-3.319-2.691-6.01-6.009-6.01-3.319,0-6.01,2.691-6.01,6.01v0c0,.888.587,1.776,1.76,2.453c2.347,1.355,6.152,1.355,8.499,0c1.174-.677,1.76-1.565,1.76-2.453v0Z" fill="#37474f"/><path d="M239.734,129.738c-.425,2.498-5.559,3.737-7.634,3.126c2.355,1.033,5.727.933,7.877-.308c1.173-.678,1.76-1.566,1.76-2.454c0-3.319-2.691-6.01-6.009-6.01c1.463.001,4.432,3.143,4.006,5.646Z" fill="#263238"/></g><g><path d="M218.955,78.102l-1.043-1.198l3.655-3.183c.331-.288.833-.254,1.121.077v0c.288.331.253.833-.077,1.121l-3.656,3.183Z"/><path d="M221.236,80.118c.878-1.101.113-3.116-.896-4.276-1.01-1.159-2.901-2.194-4.112-1.476s-3.602,2.461-3.602,2.461l5.677,6.52c0,.001,2.055-2.127,2.933-3.229Z" fill="#37474f"/><path d="M218.459,74.447c1.277,1.485,1.815,4.281-1.95,6.84l1.794,2.061c0,0,2.055-2.128,2.933-3.229s.113-3.116-.896-4.276c-.483-.554-1.166-1.077-1.881-1.396Z" fill="#263238"/><path d="M209.372,106.054c4.875-4.245,12.799-20.329,7.115-26.856-5.684-6.528-22.704-.891-27.58,3.354" fill="#27debf"/><path d="M209.372,106.054c4.875-4.245,12.799-20.329,7.115-26.856-5.684-6.528-22.704-.891-27.58,3.354" opacity="0.2"/><path d="M187.859,89.517c-1.762-6.534,1.861-9.689,8.091-7.045s12.709,10.084,14.471,16.618-1.86,9.689-8.09,7.045c-6.231-2.644-12.71-10.084-14.472-16.618Z" fill="#27debf"/><path d="M187.859,89.517c-1.762-6.534,1.861-9.689,8.091-7.045s12.709,10.084,14.471,16.618-1.86,9.689-8.09,7.045c-6.231-2.644-12.71-10.084-14.472-16.618Z" opacity="0.5"/><path d="M208.17,94.777c.112-.098.214-.202.317-.306-1.996-3.604-5.033-7.076-8.334-9.527-.109.083-.219.163-.324.255-2.645,2.303-2.922,6.314-.619,8.959c2.304,2.645,6.315,2.922,8.96.619Z" fill="#27debf"/><path d="M208.17,94.777c.112-.098.214-.202.317-.306-1.996-3.604-5.033-7.076-8.334-9.527-.109.083-.219.163-.324.255-2.645,2.303-2.922,6.314-.619,8.959c2.304,2.645,6.315,2.922,8.96.619Z" opacity="0.7" fill="#fff"/></g></g><g><g><path d="M336.749,72.849l47.775,27.59c.617.356,1.117,1.222,1.117,1.934v45.517c0,.712-.5,1.578-1.117,1.934l-.711.41c-.617.356-1.617.356-2.234,0l-47.775-27.59c-.617-.356-1.117-1.222-1.117-1.934l.001-45.517c0-.712.5-1.578,1.117-1.934l.71-.41c.617-.356,1.617-.356,2.234,0Z" fill="#e0e0e0"/><path d="M332.732,74.861c.138-.464.567-.61,1.075-.31l47.769,27.589c.31.172.585.481.791.834l2.94-1.702c-.198-.353-.473-.653-.782-.834L336.747,72.849c-.61-.353-1.616-.353-2.235,0l-.705.413c-.525.301-.963.971-1.075,1.599Z" fill="#fff"/><path d="M333.805,74.549l47.774,27.589c.617.356,1.117,1.222,1.117,1.934v45.517c0,.712-.5,1.001-1.117.645l-47.775-27.59c-.617-.356-1.117-1.222-1.117-1.934l.001-45.517c0-.712.5-1,1.117-.644Z" fill="#f5f5f5"/></g><g><polygon points="379.752,104.482 335.632,79.003 335.631,119.787 379.752,145.266" fill="#27debf"/><polygon points="379.752,104.482 335.632,79.003 335.631,119.787 379.752,145.266" opacity="0.75" fill="#fff"/></g><polygon points="379.752,131.669 367.211,110.011 350.032,122.822 354.21,118.194 345.102,106.12 335.631,112.134 335.631,119.787 379.752,145.266" fill="#27debf"/><path d="M348.887,93.89c1.626.939,2.944,3.222,2.944,5.099s-1.318,2.638-2.944,1.7c-1.626-.939-2.944-3.222-2.944-5.099s1.318-2.639,2.944-1.7Z" fill="#27debf"/></g></g></g><g><g><g><g><path d="M423.663,157.709c1.278.738,2.318,2.721,2.318,4.427c0,1.52-.828,2.308-1.91,1.937v32.254l11.755-24.667c.197-.413.205-1.085.024-1.505-2.968-6.869-5.16-14.607-5.906-22.547-.043-.455-.393-1.01-.789-1.238l-10.982-6.34c-.396-.229-.749-.044-.798.41-.737,6.868-2.839,11.965-5.689,15.394-.292.352-.435.978-.3,1.415c1.651,5.371,11.176,36.347,11.871,38.608v-32.254c-1.086-.884-1.91-2.622-1.91-4.142-.002-1.709,1.035-2.49,2.316-1.752Z" fill="#27debf"/></g><path d="M406.004,160.354l11.871,38.607.811-.471v.94l5.383-3.104l11.755-24.667c.197-.413.205-1.085.024-1.505-2.968-6.869-5.16-14.607-5.906-22.547-.043-.455-.393-1.01-.789-1.238l-10.982-6.34c-.396-.229-1.038-.229-1.434,0l-3.946,2.278c-.396.229-.749.783-.798,1.237-.737,6.871-2.839,11.969-5.689,15.395-.291.352-.434.978-.3,1.415Z" fill="#27debf"/><path d="M415.965,162.566c0,1.523.825,3.261,1.91,4.142v32.254l.811-.471v.94-32.253c1.086.371,1.91-.414,1.91-1.934c0-1.708-1.036-3.691-2.318-4.43-1.277-.738-2.313.047-2.313,1.752Z" opacity="0.2"/><g><path d="M406.004,160.354l11.871,38.607v-32.254c-1.086-.881-1.91-2.619-1.91-4.142c0-1.705,1.036-2.49,2.314-1.751c1.281.738,2.318,2.721,2.318,4.43c0,1.52-.824,2.304-1.91,1.934v32.253l11.758-24.662c.197-.413.205-1.085.024-1.505-2.969-6.869-5.163-14.607-5.909-22.55-.043-.455-.393-1.01-.789-1.238l-10.979-6.34c-.396-.229-.749-.045-.798.41-.737,6.871-2.839,11.969-5.689,15.395-.292.35-.435.976-.301,1.413Z" fill="#27debf"/></g><path d="M424.338,150.081c.122.202.202.43.222.632.745,7.943,2.94,15.68,5.91,22.55.096.229.139.53.126.824l5.38-3.105c.013-.295-.03-.599-.126-.828-2.97-6.87-5.162-14.607-5.906-22.547-.02-.205-.103-.43-.225-.636l-5.381,3.11Z" opacity="0.1"/><path d="M412.015,143.429c.089-.371.417-.503.775-.295l10.982,6.34c.219.126.421.351.566.606l5.38-3.109c-.146-.252-.348-.477-.563-.603l-10.982-6.34c-.397-.229-1.04-.229-1.437,0l-3.943,2.278c-.364.21-.691.693-.778,1.123Z" opacity="0.3"/><g><path d="M432.359,136.523l-17.393-10.044c-.396-.229-1.038-.229-1.434,0l-3.947,2.279c-.396.229-.717.784-.717,1.242v7.663c0,.457.321,1.013.717,1.242l17.393,10.044c.396.229,1.038.229,1.434,0l3.947-2.279c.396-.229.717-.785.717-1.242v-7.663c-.001-.458-.322-1.013-.717-1.242Z" fill="#27debf"/><path d="M408.874,129.885c.05-.371.351-.507.712-.298l17.392,10.042c.199.113.377.311.507.536l5.383-3.105c-.132-.225-.311-.424-.51-.536l-17.392-10.045c-.397-.228-1.036-.228-1.434,0l-3.946,2.281c-.365.208-.666.694-.712,1.125Z" opacity="0.5" fill="#fff"/><path d="M427.093,149.005c.007.003.01.003.017.007.013.003.026.01.043.013.013.01.03.013.046.02.023.01.046.016.07.02.026.007.056.013.086.02.017.003.036.007.06.01.04.007.083.013.122.017.308.03.636-.023.874-.162l3.946-2.278c.397-.229.718-.785.718-1.242v-7.665c0-.229-.079-.48-.209-.705l-5.383,3.105c.132.225.212.477.212.705v7.665c0,.325-.162.513-.397.513-.033,0-.066-.003-.103-.013-.033-.007-.066-.017-.102-.03Z" opacity="0.2"/></g><path d="M418.687,199.431l5.383-3.104l11.753-24.666c.089-.189.139-.43.152-.679l-5.38,3.105c-.01.248-.063.493-.152.682l-11.756,24.662Z" opacity="0.2"/><path d="M417.876,166.708v32.254l.811-.471v.94-32.253c1.086.371,1.912-.412,1.912-1.932c0-.036,0-.069-.003-.106l-2.72,1.568Z" opacity="0.15"/></g><g><path d="M393.012,157.432c0-.876.615-1.231,1.374-.793s1.374,1.503,1.374,2.38c0,.71-.406,1.069-.963.95.774,16.202,12.116,35.297,25.952,43.284c6.874,3.969,13.319,4.62,18.146,1.834c4.559-2.632,7.18-8.049,7.458-15.33-.566-.523-.981-1.362-.981-2.079c0-.876.615-1.231,1.374-.793s1.374,1.503,1.374,2.38c0,.748-.45,1.111-1.053.93-.37,7.336-3.108,12.813-7.806,15.525-2.085,1.204-4.447,1.801-7.003,1.801-3.65,0-7.692-1.22-11.875-3.635-14.153-8.171-25.732-27.801-26.334-44.322-.595-.518-1.037-1.391-1.037-2.132Z" fill="#455a64"/><path d="M394.386,186.937c.632.365,1.158,1.163,1.318,1.926l49.738,28.716c.177-.537.69-.708,1.303-.354.759.438,1.374,1.503,1.374,2.38c0,.876-.615,1.231-1.374.793-.65-.375-1.191-1.21-1.334-1.993l-49.706-28.698c-.161.577-.687.767-1.318.403-.759-.438-1.374-1.503-1.374-2.38-.001-.876.614-1.231,1.373-.793Z" fill="#455a64"/><path d="M444.827,188.449c0,1.079.875,1.953,1.953,1.953c1.079,0,1.953-.874,1.953-1.953s-.874-1.953-1.953-1.953c-1.078,0-1.953.875-1.953,1.953Z" fill="#455a64"/><path d="M444.901,218.774c0,1.079.874,1.953,1.953,1.953s1.953-.875,1.953-1.953c0-1.079-.874-1.953-1.953-1.953-1.078-.001-1.953.874-1.953,1.953Z" fill="#455a64"/><path d="M392.323,188.574c0,1.079.875,1.953,1.953,1.953c1.079,0,1.953-.874,1.953-1.953s-.875-1.953-1.953-1.953c-1.078-.001-1.953.874-1.953,1.953Z" fill="#455a64"/><path d="M392.503,158.186c0,1.079.875,1.953,1.953,1.953c1.079,0,1.953-.874,1.953-1.953s-.875-1.953-1.953-1.953c-1.079,0-1.953.874-1.953,1.953Z" fill="#455a64"/></g></g></g><g><g><g><g><g><g><path d="M207.566,328.278c-1.231,1.772-.795,5.751-.983,7.418-.186,1.65-.171,3.323-.334,4.951-.185,1.854-.36,3.397.625,5.109c1.29,2.243,3.834,3.557,6.399,3.898s5.167-.17,7.661-.86s4.948-1.563,7.503-1.969c6.407-1.017,12.726.856,19.076-1.103c1.487-.459,2.924-1.066,4.357-1.673c1.294-.547,2.593-1.097,3.796-1.822c3.043-1.83,7.324-5.717,6.906-9.552-.373-3.423-2.528-5.736-6.553-5.559-5.179.228-10.305,1.401-15.488,1.282-3.147-.072-6.708-.244-9.805-.794-3.581-.636-6.779-1.495-7.176-3.471-.63-3.138-7.548.094-10.322,1.446-.887.432-1.719.98-2.605,1.409-.724.351-1.359.278-2.067.515-.413.139-.737.41-.99.775Z" fill="#263238"/></g><path d="M204.975,317.467l17.663-5.58c0,0,.211,9.269,1.062,11.507s3.445,3.574,7.025,4.21c3.098.55,6.658.722,9.806.794c1.4.032,2.796-.029,4.191-.134l.004.003c4.617-.477,9.516,3.452,2.85,6.625-5.974,2.844-14.428,2.432-20.99,2.799-6.563.367-17.44-2.857-19.085-7.741c0,0,0-.001,0-.001l-2.526-12.482Z" fill="#ffa8a7"/></g><g><path d="M218.145,253.407c3.954,16.279,4.871,65.669,4.871,65.669s-9.065,4.834-17.327,1.916l-14.686-57.156l27.142-10.429Z" fill="#37474f"/></g></g><g><g><path d="M246.84,351.215c-1.232,1.772-.795,5.751-.984,7.418-.187,1.65-.171,3.323-.334,4.951-.185,1.854-.36,3.397.625,5.11c1.29,2.243,3.834,3.556,6.399,3.898c2.565.341,5.167-.17,7.661-.86s4.948-1.563,7.503-1.969c6.407-1.017,12.726.857,19.076-1.103c1.487-.459,2.924-1.066,4.357-1.673c1.294-.547,2.592-1.097,3.796-1.821c3.043-1.831,7.324-5.717,6.907-9.552-.373-3.422-2.528-5.736-6.552-5.559-5.179.228-10.306,1.401-15.488,1.282-3.147-.072-6.708-.244-9.806-.794-3.581-.636-6.779-1.495-7.176-3.471-.63-3.138-7.548.094-10.322,1.447-.887.432-1.719.98-2.605,1.409-.724.351-1.359.278-2.067.515-.413.136-.737.407-.99.772Z" fill="#263238"/></g><path d="M243.887,336.628l15.478-5.542l3.459,15.986c.397,1.975,3.595,2.835,7.176,3.47c3.098.55,6.658.722,9.806.794c1.4.032,2.796-.029,4.19-.134l.004.003c4.617-.477,9.516,3.452,2.851,6.625-5.975,2.844-14.428,2.432-20.99,2.799s-20.114-.715-19.084-7.741c0,0,0-.001,0-.001l-2.89-16.259Z" fill="#ffa8a7"/></g><g><path d="M251.964,267.998c6.826,9.674,9.71,73.346,9.71,73.346s-8.193,8.531-15.974,5.492l-19.6-55.481l25.864-23.357Z" fill="#455a64"/></g><path d="M227.053,293.905c0,0,14.331-5.318,17.717-9.158c0,0-7.35,10.559-16.33,12.871l-1.387-3.713Z" opacity="0.15"/></g><g><g><path d="M169.949,436.657c.897,0,1.623-.726,1.623-1.623v-104.346c0-.897-.726-1.623-1.623-1.623s-1.623.726-1.623,1.623v104.346c0,.897.725,1.623,1.623,1.623Z" fill="#455a64"/></g><g><path d="M105.388,398.677c.647,0,1.257-.388,1.509-1.027l31.997-80.988c.33-.834-.079-1.777-.913-2.105-.831-.333-1.775.078-2.105.913l-31.997,80.988c-.33.834.079,1.777.913,2.105.195.077.398.114.596.114Z" fill="#455a64"/></g><g><path d="M109.232,388.949c.431,0,.861-.171,1.179-.509l59.539-63.004l59.431,62.737c.617.653,1.644.68,2.294.062.651-.617.678-1.644.062-2.294l-60.61-63.983c-.306-.323-.732-.507-1.178-.507c0,0,0,0-.002,0-.446,0-.872.184-1.178.509l-60.716,64.251c-.617.651-.587,1.679.065,2.294.314.297.713.444,1.114.444Z" fill="#455a64"/></g><g><path d="M234.507,398.677c.198,0,.401-.036.596-.114.834-.328,1.243-1.271.913-2.105L204.019,315.47c-.33-.835-1.273-1.246-2.105-.913-.834.328-1.243,1.271-.913,2.105l31.997,80.988c.252.638.863,1.027,1.509,1.027Z" fill="#455a64"/></g><g><path d="M235.29,294.903c1.164-6.545-4.169-11.653-14.2-18.424-10.032-6.771-22.859-13.481-29.067-16.331-8.392-3.852-16.979-3.498-27.724,2.023-14.928,7.67-59.851,34.912-59.851,34.912s67.163,37.917,80.085,36.217s45.22-22.703,47.779-30.096c2.559-7.391,2.978-8.301,2.978-8.301Z" fill="#27debf"/></g><g opacity="0.4"><path d="M235.29,294.903c1.164-6.545-4.169-11.653-14.2-18.424-10.032-6.771-22.859-13.481-29.067-16.331-8.392-3.852-16.979-3.498-27.724,2.023-14.928,7.67-59.851,34.912-59.851,34.912s67.163,37.917,80.085,36.217s45.22-22.703,47.779-30.096c2.559-7.391,2.978-8.301,2.978-8.301Z"/></g><g><path d="M178.045,325.325c9.642,8.728,19.72,1.216,35.663-9.131c18.044-11.709,21.582-21.292,21.582-21.292s0,7.179-1.346,10.545c-1.346,3.365-4.263,7.179-17.276,16.154-13.012,8.974-22.436,13.462-31.186,15.127l-6.903-.954" fill="#27debf"/></g><path d="M213.708,316.195c18.044-11.709,21.582-21.292,21.582-21.292s0,7.179-1.346,10.545c-1.346,3.365-4.263,7.179-17.276,16.154-13.012,8.974-22.435,13.462-31.186,15.127l-6.903-.954-.535-10.449c9.643,8.728,19.721,1.215,35.664-9.131Z" opacity="0.5"/><g><path d="M107.594,386.448l-4.23,11.164c-.025.095-.038.19-.038.285-.006.063-.006.133,0,.203.038.228.327.52.637.704.71.412,1.865.412,2.575,0c.26-.152.425-.336.501-.526c0-.006,0-.013.006-.019l.032-.152l3.922-10.466-3.405-1.193Z" fill="#27debf"/></g><g><path d="M232.302,386.448l4.23,11.164c.025.095.038.19.038.285.006.063.006.133,0,.203-.038.228-.327.52-.637.704-.71.412-1.864.412-2.575,0-.26-.152-.425-.336-.501-.526c0-.006,0-.013-.006-.019l-.032-.152-3.922-10.466l3.405-1.193Z" fill="#27debf"/></g><g><path d="M168.077,426.955v9.235c0,.276.183.553.548.764.731.422,1.916.422,2.646,0c.365-.211.548-.488.548-.764v-9.235c-1.247-.625-2.495-.625-3.742,0Z" fill="#27debf"/></g></g><g><g><g><g><path d="M124.833,273.931c0,0,42.022-17.965,50.58-22.266c8.558-4.3,24.127-10.591,32.255-8.481c5.492,1.426,8.642,3.371,10.583,10.601.372,1.357,2.116,14.213,2.116,14.213s-23.369,10.972-43.999,15.123-51.535-9.19-51.535-9.19Z" fill="#37474f"/></g><g><path d="M124.833,273.931c-5.204,21.867,8.432,34.132,16.596,38.846c7.173,4.141,25.92,14.141,45.9,6.092c13.343-5.375,49.334-29.119,49.334-29.119c3.889-6.315,18.824-8.377,17.723-13.435-.278-1.276-.388-2.638-.75-4.007-1.821-6.878-8.314-16.477-22.796-13.162-8.887,2.034-25.487,8.008-40.199,12.633-3.362,1.057-8.248-3.523-10.974-2.523-6.456,2.368-8.099,13.396-8.099,13.396l-46.735-8.721Z" fill="#455a64"/></g></g></g><g><g><polygon points="173.848,178.006 171.425,200.34 151.797,198.824 153.716,174.042" fill="#ffa8a7"/></g></g><g><g><path d="M130.07,263.629c2.142-4.63,4.096-10.213,9.757-19.206-8.025-25.596-9.164-33.338-8.802-45.016.194-6.247,9.044-16.725,16.6-15.424c1.969.34,3.408.428,5.261.777.237,5.135,10.241,6.618,19.851,3.376c2.716.64,6.204,1.205,8.604,2.099c3.5,1.305,18.803,17.714,19.928,29.379.914,9.479-8.769,17.339-8.769,17.339.528,9.98.2,23.593-.043,41.737c0,0-3.029,1.093-7.719-.979-4.868,7.767-18.36,20.229-33.172,18.57-25.606-2.869-24.852-21.708-24.852-21.708s1.87-7.733,3.356-10.944Z" fill="#27debf"/></g></g><g opacity="0.7"><g><path d="M130.07,263.629c2.142-4.63,4.096-10.213,9.757-19.206-8.025-25.596-9.164-33.338-8.802-45.016.194-6.247,9.044-16.725,16.6-15.424c1.969.34,3.408.428,5.261.777.237,5.135,10.241,6.618,19.851,3.376c2.716.64,6.204,1.205,8.604,2.099c3.5,1.305,18.803,17.714,19.928,29.379.914,9.479-8.769,17.339-8.769,17.339.528,9.98.2,23.593-.043,41.737c0,0-3.029,1.093-7.719-.979-4.868,7.767-18.36,20.229-33.172,18.57-25.606-2.869-24.852-21.708-24.852-21.708s1.87-7.733,3.356-10.944Z"/></g></g><g><g><path d="M188.934,151.617c0,0,5.557,8.911,4.777,9.816-.78.906-4.488,1.794-4.488,1.794l-.289-11.61Z" fill="#f28f8f"/></g><g><path d="M175.843,130.61c4.363,2.404,11.894,6.831,13.425,23.178c1.57,16.782-2.308,22.495-4.648,24.627-1.579,1.438-9.536,1.763-13.645.366-5.141-1.748-16.223-7.598-21.258-16.372-5.922-10.323-6.84-23.895.452-29.011c10.261-7.202,21.982-4.823,25.674-2.788Z" fill="#ffa8a7"/></g><path d="M173.696,179.399c3.651.662,7.84.341,10.044-.495v0c-6.218-.15-9.781-2.257-9.781-2.257l-.263,2.752Z" fill="#f28f8f"/></g><path d="M193.367,128.853c-1.497-3.065-5.005-5.145-8.361-4.552.854-3.859-1.336-8.17-4.944-9.768-2.141-.945-4.583-.995-6.874-.553s-4.462,1.337-6.622,2.231c-4.894,2.02-9.768,4.12-14.702,6.07-2.416.955-4.865,1.877-7.089,3.274-4.478,2.814-7.908,6.919-9.308,12.078-.819,3.019-1.048,6.19-.775,9.302.354,4.036,1.516,7.964,3.112,11.675c1.625,3.778,3.901,6.814,6.423,10.037c3.32,4.242,9.207,9.029,9.207,9.029c5.866,2.815,12.732.912,12.732.912c5.146-4.951,8.671-12.42,8.808-12.801-.183.061-1.599.594-3.503.305-1.325-.213-2.879-.807-4.432-2.238-3.96-3.623-4.251-10.507.957-12.077c5.162-1.585,7.059,5.644,7.059,5.644c3.321-1.432,2.368-5.631,2.763-8.053c2.352-1.306,5.991-4.103,7.728-9.367.676,1.268,1.299,2.702,1.841,4.337c1.99-1.708,4.06-3.377,5.387-5.688c1.688-2.953,2.08-6.732.593-9.797Z" fill="#27debf"/><path d="M193.367,128.853c-1.497-3.065-5.005-5.145-8.361-4.552.854-3.859-1.336-8.17-4.944-9.768-2.141-.945-4.583-.995-6.874-.553s-4.462,1.337-6.622,2.231c-4.894,2.02-9.768,4.12-14.702,6.07-2.416.955-4.865,1.877-7.089,3.274-4.478,2.814-7.908,6.919-9.308,12.078-.819,3.019-1.048,6.19-.775,9.302.354,4.036,1.516,7.964,3.112,11.675c1.625,3.778,3.901,6.814,6.423,10.037c3.32,4.242,9.207,9.029,9.207,9.029c5.866,2.815,12.732.912,12.732.912c5.146-4.951,8.671-12.42,8.808-12.801-.183.061-1.599.594-3.503.305-1.325-.213-2.879-.807-4.432-2.238-3.96-3.623-4.251-10.507.957-12.077c5.162-1.585,7.059,5.644,7.059,5.644c3.321-1.432,2.368-5.631,2.763-8.053c2.352-1.306,5.991-4.103,7.728-9.367.676,1.268,1.299,2.702,1.841,4.337c1.99-1.708,4.06-3.377,5.387-5.688c1.688-2.953,2.08-6.732.593-9.797Z" opacity="0.4"/></g><g><path d="M178.58,335.775c-5.49-.276-9.787-4.307-22.842-9.746-24.104-10.043-42.182-18.078-49.068-30.704-6.887-12.626-11.765-49.068-10.043-64.851.228-2.094.636-3.815,1.18-5.232l-1.695-.248l4.391-3.738.002.011c4.504-3.679,11.833-.399,17.356,2.607c15.78,8.588,28.121,16.93,37.877,47.06c7.339,22.663,12.178,43.337,22.307,54.392" fill="#27debf"/><path d="M97.807,225.242l-1.695-.248l4.391-3.738.002.011c4.504-3.679,11.833-.399,17.356,2.607c15.78,8.588,28.121,16.93,37.877,47.06c7.339,22.663,12.178,43.337,22.307,54.391l.535,10.449c-5.49-.276-9.787-4.307-22.842-9.746-24.104-10.043-42.182-18.078-49.068-30.704-6.887-12.626-11.765-49.069-10.043-64.851.228-2.094.635-3.814,1.18-5.231Z" opacity="0.3"/><g><path d="M113.287,227.755c15.78,8.588,28.121,16.93,37.878,47.06c9.756,30.13,15.092,56.749,34.318,61.914c0,0-8.693,3.455-35.332-7.813-8.476-3.585-18.761-10.121-25.519-13.913-13.24-7.43-21.267-13.519-22.535-15.797-6.998-12.564-11.765-49.068-10.043-64.851c1.721-15.783,13.33-10.901,21.233-6.6Z" fill="#27debf"/></g></g><g><g><g><g><g><path d="M271.675,237.829c.102.031.215-.009.273-.104l1.203-1.978c.068-.113.032-.26-.08-.329-.116-.065-.26-.032-.329.08l-1.203,1.978c-.068.113-.032.26.08.329.019.01.037.019.056.024Z" fill="#263238"/></g></g><g><g><path d="M277.369,233.454l-4.158,3.202c-.611.47-1.47-.102-1.271-.847l1.363-5.109l4.066,2.754Z" fill="#27debf"/></g><g opacity="0.2"><path d="M277.369,233.454l-4.158,3.202c-.611.47-1.47-.102-1.271-.847l1.363-5.109l4.066,2.754Z"/></g><g><path d="M290.074,205.438c.317-.4.829-.465,1.389-.316c1.501.388,3.458,2.153,2.61,3.223l-16.707,25.108c-.723.305-1.954-.043-2.876-.801-.607-.496-1.083-1.171-1.188-1.953l16.772-25.261Z" fill="#27debf"/></g><g><path d="M290.074,205.438c.317-.4.829-.465,1.389-.316c1.501.388,3.458,2.153,2.61,3.223l-16.707,25.108c-.723.305-1.954-.043-2.876-.801-.607-.496-1.083-1.171-1.188-1.953l16.772-25.261Z" fill="#27debf"/></g><path d="M291.464,205.122c-.56-.149-1.073-.084-1.389.316-.253.38.115,1.454,1.254,2.238c1.388.955,2.488.982,2.814.556.649-1.087-1.229-2.735-2.679-3.11Z" fill="#27debf"/><path d="M291.464,205.122c-.56-.149-1.073-.084-1.389.316-.253.38.115,1.454,1.254,2.238c1.388.955,2.488.982,2.814.556.649-1.087-1.229-2.735-2.679-3.11Z" opacity="0.2"/></g><g><path d="M292.816,203.866c.314-.481.96-.617,1.441-.302.482.315.617.96.302,1.441l-1.33,1.999v0c-.084.129-.254.202-.488.189-.469-.026-1.021-.386-1.233-.805-.106-.21-.107-.394-.023-.523v0l1.331-1.999Z" fill="#37474f"/></g></g></g><path d="M283.452,224.306c0,0-1.016,1.58-1.895,2.848-.709,1.022-1.097,1.494-1.604,1.611-1.038.24-3.295-.469-4.068-1.958l1.315-1.981c-1.494-.152-3.201-.181-4.021.126-1.828.686-4.051,1.771-5.439,4.922-2.011,4.565-1.618,5.277-7.276,5.682-5.658.404-35.574.904-35.574.904v0c-3.563-4.132-16.679-19.357-21.739-25.389-5.881-7.01-16.954-22.392-21.811-20.837-4.831,1.571-9.298,16.211-2.8,27.501c5.757,10.003,25.731,27.748,33.883,34.93.863.801,1.652,1.497,2.376,2.096.044.039.097.086.138.123l.003-.006c4.977,4.067,7.157,3.573,13.135,2.423c7.141-1.374,40.855-8.217,47.601-11.207s12.868-11.092,12.856-15.206c-.01-4.111-5.08-6.582-5.08-6.582Z" fill="#ffa8a7"/></g></g></g><g transform="translate(-.907006-1.380589)"><g><g><path d="M113.767,102.152c0-2.391-1.678-5.297-3.749-6.493l.003.006c-2.07-1.195-5.427-1.195-7.497,0L74.047,111.967c-2.07,1.196-3.749,4.102-3.749,6.493v30.74c0,2.391,1.679,5.298,3.749,6.493l-.003-.006c2.071,1.196,5.427,1.196,7.498,0l28.826-16.557c3.368-1.92,3.399-3.847,3.399-6.238v-30.74Z" fill="#37474f"/><path d="M70.298,149.2c0,2.391,1.679,5.298,3.749,6.493l-.003-.006c1.871,1.081,4.784,1.187,6.857.314-1.764.667-3.108-.341-3.108-2.479v-30.74c0-1.196.42-2.52,1.098-3.695l-7.494-4.322c-.678,1.175-1.098,2.499-1.098,3.694v30.741h-.001Z" fill="#263238"/><path d="M113.644,101.087c-.437-1.591-1.888-2.099-3.62-1.102L81.539,116.293c-1.032.595-1.976,1.609-2.641,2.798l-7.49-4.318c.682-1.189,1.609-2.204,2.64-2.798l28.467-16.308c2.081-1.189,5.439-1.189,7.503,0l.005-.002c1.767,1.014,3.254,3.288,3.621,5.422Z" fill="#455a64"/></g><polygon points="88.936,120.57 88.936,126.522 93.896,116.465" fill="#27debf"/><polygon points="102.218,112.763 96.702,114.566 102.218,119.383" fill="#27debf"/><polygon points="101.814,120.535 95.76,115.249 89.705,127.527 90.146,127.272 95.293,124.3" fill="#27debf"/><polygon points="84.966,131.573 93.419,140.076 88.136,129.743" fill="#27debf"/><polygon points="98.95,134.414 105.843,119.52 103.258,121.013" fill="#27debf"/><polygon points="95.458,141.572 101.795,121.858 89.119,129.175" fill="#27debf"/><polygon points="87.802,123.333 85.157,130.153 87.754,128.653 87.802,128.625" fill="#27debf"/><polygon points="103.465,119.582 106.289,117.952 103.352,113.774 103.352,119.648" fill="#27debf"/></g></g></svg>
