<svg xmlns="http://www.w3.org/2000/svg" xmlns:xlink="http://www.w3.org/1999/xlink" width="1280" zoomAndPan="magnify" viewBox="0 0 960 599.999999" height="800" preserveAspectRatio="xMidYMid meet" version="1.0"><defs><clipPath id="931dc82425"><path d="M 0 310 L 960 310 L 960 600 L 0 600 Z M 0 310 " clip-rule="nonzero"/></clipPath><clipPath id="c19354e6c5"><path d="M 278.777344 1013.386719 L -169.507812 311.890625 L 651.433594 -212.722656 L 1099.714844 488.773438 Z M 278.777344 1013.386719 " clip-rule="nonzero"/></clipPath><clipPath id="f945bb04b5"><path d="M 278.777344 1013.386719 L -169.507812 311.890625 L 651.433594 -212.722656 L 1099.714844 488.773438 Z M 278.777344 1013.386719 " clip-rule="nonzero"/></clipPath></defs><g clip-path="url(#931dc82425)"><g clip-path="url(#c19354e6c5)"><g clip-path="url(#f945bb04b5)"><path fill="#212121" d="M 1098.941406 487.464844 C 1097.910156 489.890625 1096.148438 490.699219 1094.578125 491.703125 C 825.386719 663.738281 556.195312 835.761719 286.992188 1007.777344 C 279.644531 1012.476562 279.632812 1012.457031 274.949219 1005.125 C 128.234375 775.539062 -18.476562 545.960938 -165.164062 316.355469 C -166.144531 314.820312 -168.34375 313.105469 -167.488281 311.582031 C -166.519531 309.84375 -163.808594 310.480469 -161.855469 310.589844 C -149.851562 311.242188 -137.859375 310.203125 -125.863281 310.242188 C -114.191406 310.273438 -102.464844 309.8125 -90.8125 310.386719 C -82.664062 310.789062 -74.492188 311.175781 -66.339844 312.601562 C -56.003906 314.410156 -45.425781 314.75 -34.957031 315.839844 C -20.832031 317.3125 -7.257812 321.265625 6.285156 325.253906 C 13.46875 327.363281 20.769531 329.335938 27.570312 332.390625 C 37.796875 336.980469 48.117188 341.421875 58.113281 346.558594 C 69.933594 352.632812 81.371094 359.441406 92.273438 366.878906 C 103.078125 374.246094 113.929688 381.585938 124.40625 389.507812 C 139.136719 400.652344 155.007812 410.261719 169.886719 421.21875 C 178.589844 427.625 187.519531 433.808594 195.859375 440.660156 C 204.625 447.84375 214.542969 453.304688 223.246094 460.414062 C 231.566406 467.210938 241.058594 472.257812 249.472656 478.785156 C 261.121094 487.828125 273.582031 495.664062 285.746094 503.878906 C 297.910156 512.09375 310.429688 519.878906 323.242188 527.191406 C 331.910156 532.148438 340.84375 536.5 349.71875 540.914062 C 359.496094 545.765625 369.679688 549.847656 380.078125 553.40625 C 395.789062 558.789062 411.699219 563.449219 427.878906 567.011719 C 439.894531 569.65625 452.089844 571.515625 464.304688 573.113281 C 480.785156 575.265625 497.375 575.367188 513.867188 574.574219 C 530.179688 573.785156 546.417969 571.496094 562.421875 567.734375 C 577.722656 564.132812 592.941406 560.109375 608.136719 556.125 C 617.382812 553.695312 626.65625 550.796875 635.75 547.59375 C 639.261719 546.351562 643.019531 545.78125 646.554688 544.574219 C 663.28125 538.851562 679.535156 531.832031 696.488281 526.714844 C 702.109375 525.019531 707.40625 522.238281 712.996094 520.417969 C 721.746094 517.566406 730.539062 514.714844 739.484375 512.578125 C 749.878906 510.09375 759.765625 506.003906 770.1875 503.648438 C 788.449219 499.523438 806.253906 493.652344 824.574219 489.59375 C 835.949219 487.078125 847.515625 485.441406 858.757812 482.484375 C 872.789062 478.785156 887.148438 477.234375 901.398438 475.171875 C 914.9375 473.222656 928.59375 471.820312 942.300781 470.867188 C 961.691406 469.523438 980.964844 470.730469 1000.253906 471.980469 C 1009.28125 472.574219 1018.25 474.136719 1027.285156 474.699219 C 1051.550781 476.21875 1074.960938 482.167969 1098.941406 487.464844 Z M 1098.941406 487.464844 " fill-opacity="1" fill-rule="nonzero"/></g></g></g></svg>