<svg xmlns="http://www.w3.org/2000/svg" xmlns:xlink="http://www.w3.org/1999/xlink" width="1920" zoomAndPan="magnify" viewBox="0 0 1440 809.999993" height="1080" preserveAspectRatio="xMidYMid meet" version="1.0"><defs><g/><clipPath id="81800de3de"><path d="M 56.230469 53.816406 L 1383.769531 53.816406 L 1383.769531 756.183594 L 56.230469 756.183594 Z M 56.230469 53.816406 " clip-rule="nonzero"/></clipPath><clipPath id="641cd38da5"><path d="M 81.730469 53.816406 L 1358.269531 53.816406 C 1365.03125 53.816406 1371.519531 56.503906 1376.300781 61.285156 C 1381.082031 66.066406 1383.769531 72.554688 1383.769531 79.316406 L 1383.769531 730.683594 C 1383.769531 737.445312 1381.082031 743.933594 1376.300781 748.714844 C 1371.519531 753.496094 1365.03125 756.183594 1358.269531 756.183594 L 81.730469 756.183594 C 74.96875 756.183594 68.480469 753.496094 63.699219 748.714844 C 58.917969 743.933594 56.230469 737.445312 56.230469 730.683594 L 56.230469 79.316406 C 56.230469 72.554688 58.917969 66.066406 63.699219 61.285156 C 68.480469 56.503906 74.96875 53.816406 81.730469 53.816406 Z M 81.730469 53.816406 " clip-rule="nonzero"/></clipPath><clipPath id="d2190853d0"><path d="M 56.230469 53.816406 L 1383.730469 53.816406 L 1383.730469 755.816406 L 56.230469 755.816406 Z M 56.230469 53.816406 " clip-rule="nonzero"/></clipPath><clipPath id="dbfd692267"><path d="M 81.730469 53.816406 L 1358.265625 53.816406 C 1365.027344 53.816406 1371.515625 56.503906 1376.296875 61.285156 C 1381.078125 66.066406 1383.765625 72.554688 1383.765625 79.316406 L 1383.765625 730.679688 C 1383.765625 737.441406 1381.078125 743.929688 1376.296875 748.710938 C 1371.515625 753.492188 1365.027344 756.179688 1358.265625 756.179688 L 81.730469 756.179688 C 74.96875 756.179688 68.480469 753.492188 63.699219 748.710938 C 58.917969 743.929688 56.230469 737.441406 56.230469 730.679688 L 56.230469 79.316406 C 56.230469 72.554688 58.917969 66.066406 63.699219 61.285156 C 68.480469 56.503906 74.96875 53.816406 81.730469 53.816406 Z M 81.730469 53.816406 " clip-rule="nonzero"/></clipPath></defs><g clip-path="url(#81800de3de)"><g clip-path="url(#641cd38da5)"><path fill="#ffffff" d="M 56.230469 53.816406 L 1383.769531 53.816406 L 1383.769531 756.183594 L 56.230469 756.183594 Z M 56.230469 53.816406 " fill-opacity="1" fill-rule="nonzero"/></g></g><g clip-path="url(#d2190853d0)"><g clip-path="url(#dbfd692267)"><path stroke-linecap="butt" transform="matrix(0.75, 0, 0, 0.75, 56.231257, 53.816931)" fill="none" stroke-linejoin="miter" d="M 33.998951 -0.000699523 L 1736.045911 -0.000699523 C 1745.061537 -0.000699523 1753.712579 3.582634 1760.087579 9.957634 C 1766.46258 16.332635 1770.045913 24.983677 1770.045913 33.999302 L 1770.045913 902.483721 C 1770.045913 911.499346 1766.46258 920.150388 1760.087579 926.525389 C 1753.712579 932.900389 1745.061537 936.483723 1736.045911 936.483723 L 33.998951 936.483723 C 24.983325 936.483723 16.332283 932.900389 9.957283 926.525389 C 3.582283 920.150388 -0.00105099 911.499346 -0.00105099 902.483721 L -0.00105099 33.999302 C -0.00105099 24.983677 3.582283 16.332635 9.957283 9.957634 C 16.332283 3.582634 24.983325 -0.000699523 33.998951 -0.000699523 Z M 33.998951 -0.000699523 " stroke="#000000" stroke-width="4" stroke-opacity="1" stroke-miterlimit="4"/></g></g><path fill="#caddff" d="M 103.394531 597.183594 C 121.675781 641.613281 164.402344 662.625 191.710938 676.058594 C 299.355469 728.996094 462.882812 722.785156 580.609375 626.214844 C 608.15625 603.613281 743.941406 485.222656 712.339844 324.914062 C 684.40625 183.195312 543.839844 100.984375 425.457031 90.058594 C 327.382812 81.007812 199.296875 116.785156 154.023438 203.238281 C 125.558594 257.605469 159.757812 274.871094 136.46875 398.054688 C 116.316406 504.671875 81.035156 542.847656 103.394531 597.183594 " fill-opacity="1" fill-rule="nonzero"/><path fill="#5479f7" d="M 217.023438 270.023438 C 217.628906 263.015625 245.117188 274.160156 258.03125 259.21875 C 269.835938 245.566406 255.414062 226.398438 266.972656 214.5625 C 279.34375 201.902344 301.992188 217.574219 314.046875 204.171875 C 323.339844 193.839844 312.664062 181.449219 321.617188 169.515625 C 332.371094 155.175781 351.03125 168.726562 372.339844 156.164062 C 392.234375 144.429688 387.390625 125.867188 407.738281 120.695312 C 410.386719 120.023438 426.503906 116.265625 436.640625 125.09375 C 453.132812 139.457031 450.703125 184.433594 427.3125 204.253906 C 407.617188 220.9375 387.796875 207.300781 368.601562 226.578125 C 352.335938 242.921875 362.285156 257.027344 346.277344 266.65625 C 327.328125 278.054688 307.0625 262.109375 287.203125 276.300781 C 276.800781 283.726562 279.082031 290.445312 269.40625 293.621094 C 248.976562 300.335938 216.351562 277.746094 217.023438 270.023438 " fill-opacity="1" fill-rule="nonzero"/><path fill="#99b9ff" d="M 252.742188 281.371094 C 245.082031 281.371094 236.019531 278.980469 225.648438 274.210938 C 225.085938 273.957031 224.839844 273.285156 225.097656 272.722656 C 225.355469 272.164062 226.023438 271.917969 226.585938 272.175781 C 242.210938 279.359375 254.621094 280.992188 263.46875 277.027344 C 269.964844 274.109375 272.222656 269.1875 274.832031 263.484375 C 277.457031 257.742188 280.4375 251.238281 288.585938 246.613281 C 297.167969 241.738281 304.363281 242.386719 310.714844 242.949219 C 316.648438 243.484375 322.253906 243.980469 328.398438 240.0625 C 337.089844 234.519531 337.949219 225.945312 338.863281 216.871094 C 339.78125 207.742188 340.726562 198.296875 349.765625 191.554688 C 357.023438 186.132812 364.589844 186.15625 372.613281 186.167969 C 381.148438 186.199219 389.980469 186.207031 399.894531 179.925781 C 407.296875 175.234375 413.15625 168.335938 417.300781 159.417969 C 417.5625 158.859375 418.230469 158.621094 418.792969 158.878906 C 419.351562 159.140625 419.597656 159.804688 419.335938 160.367188 C 415.003906 169.675781 408.867188 176.894531 401.09375 181.820312 C 390.628906 188.453125 381.0625 188.433594 372.609375 188.410156 C 364.644531 188.394531 357.765625 188.378906 351.105469 193.351562 C 342.859375 199.503906 342.003906 208.050781 341.09375 217.097656 C 340.171875 226.300781 339.214844 235.824219 329.609375 241.953125 C 322.820312 246.285156 316.84375 245.753906 310.515625 245.183594 C 304.199219 244.621094 297.667969 244.039062 289.695312 248.5625 C 282.175781 252.832031 279.480469 258.722656 276.871094 264.417969 C 274.1875 270.277344 271.65625 275.8125 264.386719 279.074219 C 260.96875 280.605469 257.078125 281.371094 252.742188 281.371094 " fill-opacity="1" fill-rule="nonzero"/><path fill="#99b9ff" d="M 206.257812 299.980469 C 207.742188 295.480469 230.085938 306.796875 265.671875 297.609375 C 287.21875 292.042969 302.832031 281.746094 317.386719 271.976562 C 353.390625 247.816406 352.394531 235.859375 373.863281 228.84375 C 399.632812 220.421875 406.304688 238.550781 436.808594 233.441406 C 474.429688 227.136719 477.242188 197.386719 513.320312 193.683594 C 533.035156 191.664062 559.367188 197.757812 570.371094 216.617188 C 577.035156 228.035156 578.9375 245.597656 570.613281 255.382812 C 562.578125 264.820312 550.996094 259.992188 534.011719 265.03125 C 503.683594 274.03125 507.582031 299.222656 481.484375 312.5 C 446.054688 330.519531 417.59375 294.941406 373.773438 314.96875 C 356.125 323.039062 359.273438 329.480469 342.8125 337.539062 C 287.261719 364.726562 203.324219 308.890625 206.257812 299.980469 " fill-opacity="1" fill-rule="nonzero"/><path fill="#ffffff" d="M 271.761719 320.5625 C 256.542969 320.5625 239.441406 317.289062 220.570312 310.734375 C 219.984375 310.53125 219.675781 309.894531 219.878906 309.308594 C 220.082031 308.71875 220.71875 308.410156 221.304688 308.617188 C 257.679688 321.25 287.269531 321.554688 309.242188 309.527344 C 319.542969 303.886719 326.941406 296.3125 334.097656 288.992188 C 345.132812 277.695312 355.558594 267.027344 375.175781 264.167969 C 388.980469 262.152344 399.117188 265.347656 408.0625 268.160156 C 418.46875 271.4375 427.453125 274.265625 440.140625 269.246094 C 448.996094 265.746094 453.464844 260.878906 459.125 254.71875 C 464.699219 248.648438 471.019531 241.773438 483.25 234.261719 C 495.332031 226.839844 508.792969 221.542969 523.265625 218.515625 C 523.875 218.382812 524.46875 218.773438 524.59375 219.378906 C 524.722656 219.984375 524.332031 220.582031 523.722656 220.707031 C 509.503906 223.683594 496.285156 228.886719 484.425781 236.167969 C 472.457031 243.519531 466.253906 250.273438 460.777344 256.234375 C 455.15625 262.355469 450.296875 267.640625 440.964844 271.332031 C 427.535156 276.644531 417.75 273.5625 407.386719 270.300781 C 398.246094 267.425781 388.792969 264.449219 375.5 266.386719 C 356.632812 269.136719 346.464844 279.542969 335.699219 290.558594 C 328.429688 298 320.914062 305.691406 310.320312 311.492188 C 299.269531 317.539062 286.382812 320.5625 271.761719 320.5625 " fill-opacity="1" fill-rule="nonzero"/><path fill="#5479f7" d="M 188.851562 625.097656 C 183.234375 625.097656 177.9375 623.71875 173 620.957031 C 137.996094 601.398438 129.636719 514.890625 120.789062 423.304688 C 120.285156 418.078125 119.777344 412.847656 119.269531 407.636719 C 118.949219 404.347656 121.351562 401.417969 124.640625 401.101562 C 127.925781 400.773438 130.859375 403.183594 131.179688 406.472656 C 131.691406 411.6875 132.195312 416.921875 132.703125 422.15625 C 136.84375 465.011719 141.125 509.324219 148.265625 544.078125 C 155.972656 581.597656 165.972656 603.328125 178.839844 610.519531 C 185.753906 614.382812 193.839844 613.953125 203.554688 609.207031 C 206.523438 607.75 210.109375 608.984375 211.558594 611.949219 C 213.011719 614.917969 211.78125 618.5 208.8125 619.949219 C 201.789062 623.382812 195.121094 625.097656 188.851562 625.097656 " fill-opacity="1" fill-rule="nonzero"/><path fill="#000000" d="M 195.214844 638.132812 L 247.714844 638.132812 C 255.769531 638.132812 262.296875 631.605469 262.296875 623.554688 L 262.296875 614.019531 C 262.296875 605.972656 255.769531 599.445312 247.714844 599.445312 L 195.214844 599.445312 C 187.160156 599.445312 180.628906 605.972656 180.628906 614.019531 L 180.628906 623.554688 C 180.628906 631.605469 187.160156 638.132812 195.214844 638.132812 " fill-opacity="1" fill-rule="nonzero"/><path fill="#000000" d="M 119.550781 427.796875 L 128.828125 426.800781 C 134.679688 426.171875 138.914062 420.917969 138.285156 415.070312 L 129.550781 333.796875 C 128.921875 327.949219 123.667969 323.71875 117.816406 324.34375 L 108.539062 325.34375 C 102.6875 325.96875 98.449219 331.222656 99.078125 337.070312 L 107.816406 418.34375 C 108.445312 424.191406 113.699219 428.421875 119.550781 427.796875 " fill-opacity="1" fill-rule="nonzero"/><path fill="#000000" d="M 115.546875 344.238281 C 115.515625 344.238281 115.484375 344.238281 115.453125 344.238281 C 111.734375 344.183594 108.761719 341.128906 108.816406 337.417969 C 109.320312 301.648438 116.082031 268.695312 128.917969 239.476562 C 140.894531 212.199219 158.167969 188.097656 180.253906 167.851562 C 200.867188 148.949219 225.496094 133.535156 253.453125 122.035156 C 279.894531 111.160156 308.769531 103.980469 339.28125 100.707031 C 405.84375 93.554688 476.273438 105.914062 532.519531 134.621094 C 562.097656 149.714844 586.988281 168.71875 606.488281 191.09375 C 627.445312 215.136719 641.585938 242.460938 648.523438 272.296875 C 649.363281 275.917969 647.105469 279.535156 643.488281 280.375 C 639.863281 281.210938 636.25 278.964844 635.40625 275.34375 C 608.023438 157.527344 464.066406 100.839844 340.71875 114.085938 C 236.484375 125.28125 124.363281 189.882812 122.277344 337.605469 C 122.226562 341.289062 119.222656 344.238281 115.546875 344.238281 " fill-opacity="1" fill-rule="nonzero"/><path fill="#ffffff" d="M 191.945312 589.140625 L 632.210938 599.335938 C 645.519531 599.644531 654.460938 588.671875 652.175781 574.832031 L 602.277344 272.164062 C 599.996094 258.324219 587.355469 246.855469 574.046875 246.546875 L 133.78125 236.351562 C 120.472656 236.042969 111.535156 247.011719 113.816406 260.855469 L 163.714844 563.519531 C 166 577.359375 178.636719 588.832031 191.945312 589.140625 " fill-opacity="1" fill-rule="nonzero"/><path fill="#99b9ff" d="M 634.316406 581.160156 C 634.507812 581.167969 634.667969 581.164062 634.8125 581.15625 C 634.832031 580.757812 634.816406 580.210938 634.699219 579.523438 L 584.800781 276.859375 C 583.816406 270.855469 577.441406 264.84375 571.941406 264.71875 L 131.675781 254.523438 C 131.488281 254.519531 131.324219 254.523438 131.183594 254.53125 C 131.160156 254.925781 131.179688 255.472656 131.292969 256.160156 L 181.191406 558.832031 C 182.179688 564.828125 188.550781 570.839844 194.050781 570.96875 L 634.316406 581.160156 " fill-opacity="1" fill-rule="nonzero"/><path fill="#000000" d="M 632.757812 600.464844 C 632.566406 600.464844 632.378906 600.460938 632.1875 600.457031 L 191.917969 590.261719 C 178.117188 589.941406 164.972656 578.027344 162.609375 563.703125 L 112.710938 261.035156 C 111.507812 253.753906 113.207031 247.03125 117.488281 242.105469 C 121.476562 237.519531 127.277344 235.066406 133.808594 235.230469 L 182.734375 236.363281 C 183.351562 236.375 183.84375 236.890625 183.828125 237.507812 C 183.816406 238.128906 183.3125 238.589844 182.683594 238.605469 L 133.757812 237.472656 C 127.898438 237.332031 122.722656 239.503906 119.183594 243.578125 C 115.347656 247.988281 113.832031 254.0625 114.925781 260.671875 L 164.824219 563.339844 C 167.019531 576.652344 179.195312 587.722656 191.96875 588.015625 L 632.238281 598.214844 C 638.097656 598.34375 643.269531 596.183594 646.808594 592.109375 C 650.644531 587.695312 652.160156 581.625 651.070312 575.015625 L 601.167969 272.347656 C 598.972656 259.03125 586.796875 247.960938 574.023438 247.667969 L 326.628906 241.9375 C 326.007812 241.921875 325.519531 241.410156 325.53125 240.789062 C 325.546875 240.171875 326.0625 239.71875 326.679688 239.695312 L 574.074219 245.425781 C 587.875 245.746094 601.023438 257.660156 603.382812 271.980469 L 653.28125 574.648438 C 654.484375 581.929688 652.789062 588.652344 648.503906 593.582031 C 644.632812 598.03125 639.058594 600.460938 632.757812 600.464844 " fill-opacity="1" fill-rule="nonzero"/><path fill="#ffffff" d="M 569.863281 431.8125 L 329.742188 431.8125 C 319.453125 431.8125 310.734375 424.234375 309.304688 414.050781 L 296.042969 319.539062 C 294.304688 307.128906 303.945312 296.050781 316.480469 296.050781 L 556.601562 296.050781 C 566.890625 296.050781 575.613281 303.625 577.039062 313.808594 L 590.300781 408.320312 C 592.042969 420.730469 582.398438 431.8125 569.863281 431.8125 " fill-opacity="1" fill-rule="nonzero"/><path fill="#5479f7" d="M 368.351562 398.585938 L 362.703125 398.585938 L 348.882812 380.851562 L 351.703125 398.585938 L 346.054688 398.585938 L 341.765625 371.636719 L 347.414062 371.636719 L 361.261719 389.402344 L 358.429688 371.636719 L 364.0625 371.636719 L 368.351562 398.585938 " fill-opacity="1" fill-rule="nonzero"/><path fill="#5479f7" d="M 387.925781 386.902344 L 377.078125 386.902344 L 378.226562 394.121094 L 390.953125 394.121094 L 391.664062 398.585938 L 373.285156 398.585938 L 368.996094 371.636719 L 387.339844 371.636719 L 388.054688 376.132812 L 375.359375 376.132812 L 376.386719 382.558594 L 387.230469 382.558594 L 387.925781 386.902344 " fill-opacity="1" fill-rule="nonzero"/><path fill="#5479f7" d="M 409.617188 386.902344 L 398.769531 386.902344 L 399.917969 394.121094 L 412.648438 394.121094 L 413.359375 398.585938 L 394.976562 398.585938 L 390.691406 371.636719 L 409.03125 371.636719 L 409.75 376.132812 L 397.054688 376.132812 L 398.078125 382.558594 L 408.925781 382.558594 L 409.617188 386.902344 " fill-opacity="1" fill-rule="nonzero"/><path fill="#5479f7" d="M 418.75 376.132812 L 421.613281 394.121094 L 424.34375 394.121094 C 426.550781 394.121094 428.128906 393.414062 429.070312 391.996094 C 430.011719 390.574219 430.285156 388.546875 429.890625 385.90625 L 429.664062 384.480469 C 429.226562 381.738281 428.320312 379.664062 426.941406 378.25 C 425.5625 376.839844 423.761719 376.132812 421.539062 376.132812 Z M 416.671875 398.585938 L 412.382812 371.636719 L 420.824219 371.636719 C 423.230469 371.636719 425.472656 372.167969 427.542969 373.238281 C 429.617188 374.304688 431.34375 375.820312 432.722656 377.789062 C 434.105469 379.753906 434.992188 381.992188 435.390625 384.5 L 435.585938 385.742188 C 435.988281 388.242188 435.816406 390.472656 435.078125 392.421875 C 434.339844 394.371094 433.101562 395.882812 431.367188 396.953125 C 429.628906 398.027344 427.558594 398.570312 425.164062 398.585938 L 416.671875 398.585938 " fill-opacity="1" fill-rule="nonzero"/><path fill="#5479f7" d="M 473.65625 398.585938 L 468.007812 398.585938 L 466.167969 387.035156 L 455.152344 387.035156 L 456.992188 398.585938 L 451.34375 398.585938 L 447.054688 371.636719 L 452.703125 371.636719 L 454.441406 382.558594 L 465.457031 382.558594 L 463.71875 371.636719 L 469.371094 371.636719 L 473.65625 398.585938 " fill-opacity="1" fill-rule="nonzero"/><path fill="#5479f7" d="M 493.226562 386.902344 L 482.382812 386.902344 L 483.53125 394.121094 L 496.261719 394.121094 L 496.96875 398.585938 L 478.59375 398.585938 L 474.304688 371.636719 L 492.644531 371.636719 L 493.359375 376.132812 L 480.667969 376.132812 L 481.691406 382.558594 L 492.535156 382.558594 L 493.226562 386.902344 " fill-opacity="1" fill-rule="nonzero"/><path fill="#5479f7" d="M 505.226562 394.121094 L 517.222656 394.121094 L 517.929688 398.585938 L 500.285156 398.585938 L 495.996094 371.636719 L 501.644531 371.636719 L 505.226562 394.121094 " fill-opacity="1" fill-rule="nonzero"/><path fill="#5479f7" d="M 524.59375 384.589844 L 529.636719 384.589844 C 531.132812 384.589844 532.214844 384.246094 532.890625 383.554688 C 533.566406 382.867188 533.804688 381.875 533.597656 380.59375 C 533.386719 379.273438 532.824219 378.207031 531.902344 377.394531 C 530.980469 376.574219 529.820312 376.160156 528.421875 376.132812 L 523.246094 376.132812 Z M 525.308594 389.089844 L 526.816406 398.585938 L 521.171875 398.585938 L 516.882812 371.636719 L 527.578125 371.636719 C 529.636719 371.636719 531.507812 372.003906 533.1875 372.742188 C 534.871094 373.488281 536.238281 374.539062 537.292969 375.902344 C 538.351562 377.265625 539.019531 378.816406 539.296875 380.558594 C 539.71875 383.199219 539.128906 385.28125 537.53125 386.800781 C 535.9375 388.328125 533.511719 389.089844 530.261719 389.089844 L 525.308594 389.089844 " fill-opacity="1" fill-rule="nonzero"/><path fill="#5479f7" d="M 549.175781 396.003906 C 549.042969 395.175781 549.21875 394.5 549.707031 393.964844 C 550.191406 393.425781 550.882812 393.160156 551.773438 393.160156 C 552.664062 393.160156 553.441406 393.425781 554.09375 393.964844 C 554.75 394.5 555.148438 395.175781 555.277344 396.003906 C 555.40625 396.816406 555.230469 397.488281 554.757812 398.015625 C 554.285156 398.539062 553.589844 398.804688 552.671875 398.804688 C 551.753906 398.804688 550.976562 398.539062 550.332031 398.015625 C 549.691406 397.488281 549.304688 396.816406 549.175781 396.003906 Z M 548.820312 390.328125 C 548.542969 388.597656 548.539062 387.222656 548.804688 386.199219 C 549.0625 385.175781 549.683594 384.164062 550.664062 383.167969 C 551.640625 382.175781 552.269531 381.363281 552.546875 380.738281 C 552.824219 380.117188 552.90625 379.457031 552.796875 378.765625 C 552.46875 376.675781 551.320312 375.632812 549.363281 375.632812 C 548.433594 375.632812 547.734375 375.914062 547.261719 376.476562 C 546.792969 377.039062 546.628906 377.816406 546.761719 378.804688 L 541.296875 378.804688 C 540.949219 376.445312 541.429688 374.597656 542.742188 373.265625 C 544.054688 371.929688 546.03125 371.265625 548.667969 371.265625 C 551.324219 371.265625 553.496094 371.894531 555.164062 373.164062 C 556.832031 374.429688 557.855469 376.214844 558.21875 378.527344 C 558.386719 379.578125 558.308594 380.570312 557.980469 381.503906 C 557.648438 382.433594 556.976562 383.46875 555.96875 384.605469 L 554.667969 386.03125 C 553.855469 386.933594 553.480469 387.988281 553.535156 389.199219 L 553.640625 390.328125 L 548.820312 390.328125 " fill-opacity="1" fill-rule="nonzero"/><path fill="#5479f7" d="M 358.425781 348.265625 L 352.777344 348.265625 L 350.945312 336.71875 L 339.929688 336.71875 L 341.761719 348.265625 L 336.109375 348.265625 L 331.832031 321.316406 L 337.480469 321.316406 L 339.214844 332.238281 L 350.230469 332.238281 L 348.5 321.316406 L 354.148438 321.316406 L 358.425781 348.265625 " fill-opacity="1" fill-rule="nonzero"/><path fill="#5479f7" d="M 369.367188 348.265625 L 363.71875 348.265625 L 359.4375 321.316406 L 365.089844 321.316406 L 369.367188 348.265625 " fill-opacity="1" fill-rule="nonzero"/><path fill="#5479f7" d="M 378.46875 339.992188 L 373.949219 339.992188 L 370.34375 321.316406 L 376.144531 321.316406 Z M 376.671875 342.921875 C 377.589844 342.921875 378.367188 343.183594 379.011719 343.714844 C 379.652344 344.246094 380.042969 344.925781 380.171875 345.75 C 380.300781 346.566406 380.128906 347.238281 379.65625 347.769531 C 379.179688 348.296875 378.484375 348.566406 377.570312 348.566406 C 376.664062 348.566406 375.890625 348.296875 375.25 347.769531 C 374.605469 347.238281 374.21875 346.566406 374.089844 345.75 C 373.960938 344.9375 374.132812 344.257812 374.605469 343.722656 C 375.078125 343.1875 375.769531 342.921875 376.671875 342.921875 " fill-opacity="1" fill-rule="nonzero"/><path fill="#5479f7" d="M 695.894531 476.179688 L 696.734375 476.070312 C 709.523438 474.421875 718.554688 462.722656 716.90625 449.941406 L 696.722656 293.398438 C 695.074219 280.617188 683.371094 271.589844 670.582031 273.238281 L 669.738281 273.34375 C 656.949219 274.992188 647.917969 286.691406 649.5625 299.472656 L 669.75 456.015625 C 671.398438 468.796875 683.105469 477.824219 695.894531 476.179688 " fill-opacity="1" fill-rule="nonzero"/><path fill="#000000" d="M 652.070312 499.5 L 679.074219 496.019531 C 689.527344 494.675781 696.902344 485.121094 695.554688 474.679688 L 669.71875 274.3125 C 668.371094 263.871094 658.8125 256.496094 648.363281 257.84375 L 621.359375 261.320312 C 610.90625 262.667969 603.53125 272.222656 604.875 282.664062 L 630.714844 483.03125 C 632.0625 493.472656 641.621094 500.84375 652.070312 499.5 " fill-opacity="1" fill-rule="nonzero"/><path fill="#caddff" d="M 335.636719 597.019531 C 321.832031 573.898438 329.394531 543.972656 352.527344 530.175781 C 375.664062 516.378906 405.605469 523.9375 419.410156 547.058594 C 433.214844 570.179688 425.652344 600.105469 402.519531 613.902344 C 379.382812 627.699219 349.441406 620.140625 335.636719 597.019531 Z M 419.617188 661.019531 L 435.890625 651.316406 L 429.457031 631.65625 C 432.824219 628.734375 435.902344 625.574219 438.671875 622.207031 L 458.492188 628.0625 L 467.730469 611.527344 L 452.320312 597.714844 C 453.75 593.550781 454.828125 589.277344 455.550781 584.933594 L 475.675781 580.09375 L 475.398438 561.160156 L 455.171875 556.90625 C 454.335938 552.625 453.125 548.382812 451.550781 544.214844 L 466.554688 529.96875 L 456.84375 513.707031 L 437.175781 520.136719 C 434.25 516.769531 431.089844 513.691406 427.722656 510.925781 L 433.578125 491.113281 L 417.03125 481.882812 L 403.214844 497.285156 C 399.046875 495.855469 394.773438 494.777344 390.429688 494.058594 L 385.582031 473.941406 L 366.636719 474.21875 L 362.378906 494.433594 C 358.097656 495.269531 353.855469 496.476562 349.6875 498.050781 L 335.429688 483.058594 L 319.15625 492.761719 L 325.589844 512.421875 C 322.226562 515.339844 319.144531 518.496094 316.375 521.867188 L 296.554688 516.015625 L 287.316406 532.546875 L 302.726562 546.363281 C 301.300781 550.527344 300.21875 554.796875 299.5 559.140625 L 279.375 563.984375 L 279.644531 582.917969 L 299.875 587.171875 C 300.707031 591.453125 301.921875 595.695312 303.496094 599.859375 L 288.492188 614.109375 L 298.203125 630.371094 L 317.871094 623.9375 C 320.796875 627.300781 323.957031 630.382812 327.324219 633.152344 L 321.46875 652.960938 L 338.011719 662.191406 L 351.832031 646.792969 C 356 648.21875 360.273438 649.296875 364.617188 650.019531 L 369.464844 670.132812 L 388.410156 669.859375 L 392.667969 649.644531 C 396.949219 648.808594 401.191406 647.597656 405.363281 646.023438 L 419.617188 661.019531 " fill-opacity="1" fill-rule="nonzero"/><path fill="#000000" d="M 379.726562 515.382812 C 371.421875 515.382812 363.019531 517.550781 355.386719 522.105469 C 344.453125 528.621094 336.71875 539.007812 333.601562 551.34375 C 330.484375 563.679688 332.359375 576.484375 338.882812 587.410156 C 345.402344 598.339844 355.796875 606.070312 368.136719 609.183594 C 380.480469 612.300781 393.292969 610.425781 404.230469 603.90625 C 415.160156 597.386719 422.894531 587.003906 426.011719 574.667969 C 429.128906 562.332031 427.253906 549.523438 420.730469 538.597656 C 411.820312 523.675781 395.96875 515.382812 379.726562 515.382812 Z M 379.894531 612.898438 C 375.796875 612.898438 371.667969 612.390625 367.589844 611.359375 C 354.660156 608.097656 343.785156 600 336.957031 588.558594 C 330.125 577.121094 328.164062 563.710938 331.425781 550.792969 C 334.691406 537.878906 342.789062 527.003906 354.234375 520.179688 C 377.863281 506.085938 408.558594 513.835938 422.65625 537.449219 C 429.488281 548.890625 431.449219 562.300781 428.1875 575.21875 C 424.925781 588.132812 416.824219 599.007812 405.375 605.832031 C 397.546875 610.503906 388.785156 612.898438 379.894531 612.898438 Z M 354.117188 636.636719 C 354.238281 636.636719 354.359375 636.65625 354.480469 636.699219 C 358.570312 638.101562 362.8125 639.167969 367.082031 639.878906 C 367.527344 639.953125 367.886719 640.285156 367.992188 640.722656 L 372.628906 659.964844 L 389.78125 659.71875 L 393.851562 640.378906 C 393.945312 639.9375 394.292969 639.597656 394.734375 639.507812 C 398.921875 638.695312 403.132812 637.496094 407.246094 635.941406 C 407.671875 635.78125 408.148438 635.890625 408.460938 636.21875 L 422.097656 650.5625 L 436.828125 641.777344 L 430.671875 622.96875 C 430.53125 622.542969 430.660156 622.070312 431.003906 621.777344 C 434.320312 618.894531 437.378906 615.761719 440.085938 612.460938 C 440.375 612.113281 440.839844 611.96875 441.273438 612.097656 L 460.234375 617.699219 L 468.597656 602.730469 L 453.851562 589.511719 C 453.515625 589.214844 453.394531 588.742188 453.542969 588.316406 C 454.945312 584.226562 456.015625 579.988281 456.722656 575.71875 C 456.796875 575.277344 457.128906 574.917969 457.566406 574.816406 L 476.820312 570.179688 L 476.574219 553.039062 L 457.226562 548.96875 C 456.785156 548.875 456.441406 548.527344 456.355469 548.085938 C 455.535156 543.894531 454.335938 539.6875 452.785156 535.578125 C 452.625 535.15625 452.734375 534.679688 453.058594 534.371094 L 467.414062 520.738281 L 458.621094 506.015625 L 439.804688 512.167969 C 439.378906 512.304688 438.90625 512.175781 438.609375 511.839844 C 435.730469 508.523438 432.59375 505.464844 429.292969 502.757812 C 428.945312 502.472656 428.800781 502.003906 428.925781 501.574219 L 434.53125 482.625 L 419.550781 474.265625 L 406.332031 489 C 406.03125 489.335938 405.558594 489.460938 405.132812 489.3125 C 401.035156 487.910156 396.796875 486.839844 392.527344 486.128906 C 392.082031 486.058594 391.726562 485.722656 391.621094 485.289062 L 386.984375 466.042969 L 369.835938 466.289062 L 365.757812 485.628906 C 365.667969 486.070312 365.316406 486.414062 364.875 486.5 C 360.683594 487.316406 356.472656 488.515625 352.363281 490.070312 C 351.941406 490.230469 351.460938 490.117188 351.152344 489.792969 L 337.515625 475.445312 L 322.785156 484.234375 L 328.941406 503.039062 C 329.082031 503.464844 328.949219 503.9375 328.609375 504.234375 C 325.292969 507.117188 322.234375 510.246094 319.527344 513.546875 C 319.242188 513.898438 318.773438 514.035156 318.339844 513.910156 L 299.378906 508.3125 L 291.015625 523.277344 L 305.757812 536.496094 C 306.09375 536.792969 306.21875 537.269531 306.070312 537.691406 C 304.667969 541.785156 303.597656 546.023438 302.886719 550.289062 C 302.8125 550.734375 302.480469 551.09375 302.042969 551.199219 L 282.792969 555.828125 L 283.039062 572.972656 L 302.386719 577.039062 C 302.828125 577.136719 303.171875 577.480469 303.257812 577.925781 C 304.074219 582.109375 305.273438 586.320312 306.828125 590.433594 C 306.988281 590.855469 306.878906 591.328125 306.550781 591.636719 L 292.199219 605.269531 L 300.988281 619.992188 L 319.804688 613.839844 C 320.234375 613.699219 320.707031 613.832031 321.003906 614.171875 C 323.886719 617.492188 327.023438 620.546875 330.320312 623.25 C 330.667969 623.535156 330.8125 624.003906 330.683594 624.433594 L 325.082031 643.386719 L 340.058594 651.746094 L 353.28125 637.011719 C 353.5 636.769531 353.804688 636.636719 354.117188 636.636719 Z M 371.746094 662.21875 C 371.230469 662.21875 370.777344 661.867188 370.65625 661.363281 L 365.980469 641.964844 C 362.082031 641.28125 358.210938 640.304688 354.460938 639.058594 L 341.128906 653.910156 C 340.78125 654.300781 340.207031 654.394531 339.75 654.140625 L 323.203125 644.90625 C 322.746094 644.652344 322.527344 644.113281 322.675781 643.613281 L 328.320312 624.507812 C 325.320312 622 322.460938 619.210938 319.800781 616.203125 L 300.835938 622.402344 C 300.335938 622.566406 299.792969 622.363281 299.523438 621.914062 L 289.8125 605.648438 C 289.542969 605.203125 289.621094 604.625 290.003906 604.261719 L 304.46875 590.523438 C 303.085938 586.757812 301.988281 582.914062 301.203125 579.082031 L 281.699219 574.984375 C 281.183594 574.875 280.816406 574.421875 280.808594 573.902344 L 280.535156 554.964844 C 280.527344 554.441406 280.882812 553.980469 281.394531 553.859375 L 300.800781 549.191406 C 301.484375 545.292969 302.460938 541.425781 303.710938 537.671875 L 288.851562 524.355469 C 288.460938 524 288.363281 523.429688 288.621094 522.96875 L 297.855469 506.433594 C 298.113281 505.980469 298.648438 505.753906 299.152344 505.90625 L 318.269531 511.550781 C 320.78125 508.550781 323.570312 505.691406 326.578125 503.03125 L 320.375 484.078125 C 320.210938 483.582031 320.414062 483.035156 320.867188 482.765625 L 337.136719 473.0625 C 337.585938 472.792969 338.164062 472.871094 338.523438 473.25 L 352.269531 487.710938 C 356.035156 486.324219 359.878906 485.230469 363.71875 484.445312 L 367.824219 464.953125 C 367.929688 464.4375 368.378906 464.070312 368.90625 464.0625 L 387.847656 463.789062 C 387.855469 463.789062 387.863281 463.789062 387.867188 463.789062 C 388.386719 463.789062 388.835938 464.144531 388.957031 464.648438 L 393.628906 484.042969 C 397.523438 484.726562 401.394531 485.703125 405.15625 486.953125 L 418.480469 472.097656 C 418.832031 471.707031 419.40625 471.613281 419.863281 471.871094 L 436.410156 481.101562 C 436.867188 481.355469 437.085938 481.894531 436.9375 482.394531 L 431.289062 501.5 C 434.289062 504.011719 437.15625 506.804688 439.808594 509.808594 L 458.777344 503.605469 C 459.273438 503.445312 459.820312 503.648438 460.089844 504.097656 L 469.800781 520.359375 C 470.070312 520.808594 469.988281 521.386719 469.609375 521.75 L 455.140625 535.484375 C 456.527344 539.25 457.621094 543.089844 458.414062 546.925781 L 477.914062 551.027344 C 478.429688 551.136719 478.800781 551.585938 478.804688 552.109375 L 479.078125 571.042969 C 479.085938 571.570312 478.726562 572.027344 478.21875 572.148438 L 458.8125 576.820312 C 458.128906 580.714844 457.148438 584.585938 455.902344 588.339844 L 470.761719 601.65625 C 471.152344 602.007812 471.246094 602.582031 470.992188 603.042969 L 461.753906 619.574219 C 461.5 620.03125 460.964844 620.253906 460.457031 620.101562 L 441.34375 614.457031 C 438.832031 617.460938 436.042969 620.316406 433.035156 622.976562 L 439.238281 641.929688 C 439.398438 642.425781 439.195312 642.972656 438.75 643.242188 L 422.476562 652.945312 C 422.027344 653.21875 421.449219 653.140625 421.085938 652.757812 L 407.34375 638.296875 C 403.570312 639.683594 399.726562 640.78125 395.898438 641.566406 L 391.792969 661.054688 C 391.683594 661.570312 391.234375 661.9375 390.707031 661.949219 L 371.761719 662.21875 C 371.757812 662.21875 371.75 662.21875 371.746094 662.21875 " fill-opacity="1" fill-rule="nonzero"/><path fill="#caddff" d="M 500.800781 513.980469 C 494.636719 503.65625 498.015625 490.289062 508.34375 484.128906 C 518.675781 477.964844 532.050781 481.34375 538.21875 491.667969 C 544.382812 501.996094 541.003906 515.359375 530.671875 521.523438 C 520.34375 527.683594 506.96875 524.308594 500.800781 513.980469 Z M 538.308594 542.5625 L 545.574219 538.230469 L 542.703125 529.449219 C 544.207031 528.148438 545.582031 526.738281 546.816406 525.230469 L 555.671875 527.84375 L 559.796875 520.460938 L 552.914062 514.292969 C 553.550781 512.433594 554.035156 510.527344 554.355469 508.585938 L 563.34375 506.421875 L 563.222656 497.96875 L 554.1875 496.066406 C 553.816406 494.15625 553.273438 492.261719 552.570312 490.398438 L 559.273438 484.035156 L 554.933594 476.769531 L 546.148438 479.644531 C 544.84375 478.140625 543.429688 476.769531 541.929688 475.53125 L 544.542969 466.683594 L 537.15625 462.5625 L 530.980469 469.4375 C 529.121094 468.800781 527.210938 468.316406 525.273438 467.996094 L 523.109375 459.011719 L 514.644531 459.136719 L 512.746094 468.164062 C 510.832031 468.539062 508.9375 469.078125 507.074219 469.78125 L 500.707031 463.085938 L 493.441406 467.421875 L 496.316406 476.199219 C 494.8125 477.503906 493.433594 478.914062 492.199219 480.421875 L 483.34375 477.804688 L 479.21875 485.191406 L 486.101562 491.359375 C 485.464844 493.214844 484.984375 495.125 484.660156 497.066406 L 475.675781 499.226562 L 475.796875 507.683594 L 484.828125 509.582031 C 485.199219 511.496094 485.742188 513.390625 486.445312 515.253906 L 479.746094 521.613281 L 484.085938 528.875 L 492.867188 526.003906 C 494.175781 527.507812 495.582031 528.882812 497.089844 530.117188 L 494.472656 538.96875 L 501.863281 543.089844 L 508.03125 536.210938 C 509.894531 536.847656 511.804688 537.328125 513.746094 537.652344 L 515.90625 546.636719 L 524.371094 546.515625 L 526.273438 537.484375 C 528.1875 537.113281 530.078125 536.570312 531.941406 535.867188 L 538.308594 542.5625 " fill-opacity="1" fill-rule="nonzero"/><path fill="#000000" d="M 502.785156 509.375 C 508.625 519.152344 521.332031 522.359375 531.117188 516.523438 C 535.855469 513.695312 539.210938 509.195312 540.5625 503.847656 C 541.914062 498.5 541.101562 492.945312 538.273438 488.207031 C 532.433594 478.429688 519.722656 475.222656 509.941406 481.058594 C 505.199219 483.886719 501.84375 488.382812 500.496094 493.730469 C 499.140625 499.082031 499.957031 504.636719 502.785156 509.375 Z M 520.566406 521.679688 C 512.757812 521.679688 505.140625 517.695312 500.859375 510.523438 C 494.382812 499.683594 497.945312 485.597656 508.789062 479.132812 C 514.046875 475.996094 520.203125 475.09375 526.136719 476.59375 C 532.070312 478.089844 537.0625 481.808594 540.199219 487.058594 C 543.332031 492.3125 544.234375 498.46875 542.734375 504.394531 C 541.242188 510.324219 537.523438 515.316406 532.265625 518.449219 C 528.597656 520.636719 524.558594 521.679688 520.566406 521.679688 Z M 509.054688 531.058594 C 509.175781 531.058594 509.296875 531.074219 509.417969 531.113281 C 511.210938 531.730469 513.074219 532.199219 514.949219 532.511719 C 515.390625 532.585938 515.75 532.917969 515.851562 533.355469 L 517.8125 541.464844 L 524.476562 541.371094 L 526.195312 533.21875 C 526.285156 532.777344 526.636719 532.4375 527.078125 532.347656 C 528.914062 531.992188 530.761719 531.464844 532.566406 530.785156 C 532.984375 530.621094 533.464844 530.734375 533.777344 531.058594 L 539.523438 537.109375 L 545.25 533.691406 L 542.65625 525.765625 C 542.515625 525.335938 542.644531 524.863281 542.988281 524.570312 C 544.441406 523.304688 545.78125 521.933594 546.96875 520.484375 C 547.253906 520.140625 547.722656 519.992188 548.15625 520.121094 L 556.148438 522.480469 L 559.398438 516.664062 L 553.183594 511.089844 C 552.851562 510.789062 552.722656 510.320312 552.875 509.894531 C 553.488281 508.097656 553.960938 506.238281 554.269531 504.367188 C 554.34375 503.925781 554.675781 503.5625 555.113281 503.460938 L 563.226562 501.507812 L 563.132812 494.84375 L 554.976562 493.128906 C 554.535156 493.035156 554.195312 492.6875 554.105469 492.246094 C 553.75 490.40625 553.21875 488.566406 552.542969 486.761719 C 552.382812 486.335938 552.488281 485.859375 552.816406 485.550781 L 558.867188 479.804688 L 555.449219 474.082031 L 547.515625 476.675781 C 547.089844 476.816406 546.617188 476.6875 546.320312 476.34375 C 545.058594 474.890625 543.683594 473.550781 542.234375 472.363281 C 541.886719 472.078125 541.742188 471.609375 541.871094 471.179688 L 544.230469 463.191406 L 538.410156 459.945312 L 532.835938 466.15625 C 532.535156 466.488281 532.0625 466.609375 531.640625 466.464844 C 529.835938 465.847656 527.976562 465.378906 526.109375 465.070312 C 525.664062 464.996094 525.308594 464.664062 525.199219 464.226562 L 523.246094 456.117188 L 516.578125 456.210938 L 514.863281 464.363281 C 514.769531 464.800781 514.421875 465.144531 513.980469 465.230469 C 512.140625 465.589844 510.296875 466.113281 508.492188 466.796875 C 508.066406 466.957031 507.589844 466.847656 507.28125 466.519531 L 501.53125 460.472656 L 495.804688 463.886719 L 498.402344 471.816406 C 498.539062 472.246094 498.410156 472.714844 498.070312 473.011719 C 496.613281 474.277344 495.273438 475.648438 494.085938 477.097656 C 493.800781 477.441406 493.332031 477.585938 492.902344 477.460938 L 484.910156 475.101562 L 481.65625 480.917969 L 487.871094 486.488281 C 488.207031 486.785156 488.332031 487.261719 488.1875 487.6875 C 487.570312 489.480469 487.097656 491.339844 486.789062 493.214844 C 486.714844 493.65625 486.382812 494.011719 485.945312 494.117188 L 477.828125 496.074219 L 477.921875 502.738281 L 486.078125 504.453125 C 486.519531 504.542969 486.863281 504.894531 486.949219 505.335938 C 487.308594 507.171875 487.832031 509.015625 488.515625 510.820312 C 488.675781 511.242188 488.566406 511.71875 488.242188 512.027344 L 482.1875 517.773438 L 485.605469 523.5 L 493.539062 520.90625 C 493.964844 520.765625 494.4375 520.894531 494.734375 521.234375 C 496 522.691406 497.375 524.03125 498.824219 525.21875 C 499.167969 525.503906 499.3125 525.972656 499.1875 526.402344 L 496.824219 534.390625 L 502.644531 537.636719 L 508.21875 531.429688 C 508.4375 531.183594 508.742188 531.058594 509.054688 531.058594 Z M 516.929688 543.722656 C 516.410156 543.722656 515.957031 543.367188 515.835938 542.863281 L 513.84375 534.59375 C 512.339844 534.316406 510.851562 533.9375 509.402344 533.46875 L 503.71875 539.804688 C 503.367188 540.195312 502.792969 540.285156 502.335938 540.035156 L 494.949219 535.914062 C 494.488281 535.660156 494.269531 535.121094 494.417969 534.613281 L 496.824219 526.472656 C 495.675781 525.484375 494.574219 524.414062 493.535156 523.265625 L 485.453125 525.910156 C 484.953125 526.070312 484.40625 525.867188 484.140625 525.417969 L 479.800781 518.15625 C 479.535156 517.703125 479.613281 517.128906 479.992188 516.769531 L 486.160156 510.910156 C 485.640625 509.453125 485.222656 507.972656 484.898438 506.5 L 476.582031 504.75 C 476.070312 504.640625 475.699219 504.1875 475.691406 503.667969 L 475.574219 495.210938 C 475.5625 494.683594 475.921875 494.226562 476.429688 494.101562 L 484.707031 492.113281 C 484.984375 490.609375 485.359375 489.121094 485.828125 487.667969 L 479.492188 481.988281 C 479.101562 481.640625 479.007812 481.0625 479.261719 480.605469 L 483.386719 473.222656 C 483.640625 472.765625 484.183594 472.546875 484.683594 472.695312 L 492.832031 475.101562 C 493.816406 473.953125 494.894531 472.851562 496.039062 471.8125 L 493.394531 463.734375 C 493.230469 463.234375 493.433594 462.6875 493.886719 462.421875 L 501.152344 458.089844 C 501.605469 457.820312 502.179688 457.898438 502.542969 458.277344 L 508.398438 464.441406 C 509.859375 463.921875 511.339844 463.503906 512.816406 463.183594 L 514.566406 454.871094 C 514.675781 454.359375 515.128906 453.988281 515.648438 453.980469 L 524.109375 453.855469 C 524.117188 453.855469 524.121094 453.855469 524.128906 453.855469 C 524.648438 453.855469 525.097656 454.210938 525.21875 454.71875 L 527.210938 462.988281 C 528.710938 463.265625 530.199219 463.644531 531.65625 464.109375 L 537.339844 457.777344 C 537.6875 457.386719 538.261719 457.292969 538.71875 457.546875 L 546.109375 461.667969 C 546.570312 461.921875 546.789062 462.460938 546.636719 462.96875 L 544.230469 471.109375 C 545.382812 472.09375 546.480469 473.167969 547.519531 474.316406 L 555.605469 471.671875 C 556.105469 471.511719 556.648438 471.710938 556.917969 472.164062 L 561.253906 479.425781 C 561.519531 479.878906 561.441406 480.453125 561.0625 480.816406 L 554.894531 486.667969 C 555.414062 488.128906 555.835938 489.605469 556.15625 491.082031 L 564.472656 492.832031 C 564.984375 492.941406 565.355469 493.390625 565.367188 493.914062 L 565.484375 502.371094 C 565.496094 502.898438 565.136719 503.355469 564.625 503.480469 L 556.351562 505.46875 C 556.074219 506.96875 555.695312 508.457031 555.226562 509.914062 L 561.566406 515.59375 C 561.957031 515.941406 562.050781 516.515625 561.796875 516.976562 L 557.671875 524.359375 C 557.417969 524.816406 556.878906 525.039062 556.375 524.886719 L 548.226562 522.480469 C 547.238281 523.628906 546.164062 524.730469 545.015625 525.765625 L 547.664062 533.847656 C 547.824219 534.347656 547.621094 534.890625 547.171875 535.160156 L 539.902344 539.492188 C 539.453125 539.761719 538.875 539.683594 538.515625 539.304688 L 532.65625 533.140625 C 531.199219 533.65625 529.71875 534.078125 528.242188 534.398438 L 526.488281 542.710938 C 526.382812 543.222656 525.929688 543.59375 525.40625 543.601562 L 516.945312 543.722656 C 516.9375 543.722656 516.933594 543.722656 516.929688 543.722656 " fill-opacity="1" fill-rule="nonzero"/><path fill="#5479f7" d="M 696.085938 653.6875 C 730.148438 622.3125 712.515625 602.070312 712.515625 602.070312 C 712.515625 602.070312 697.300781 577.433594 643.90625 609.640625 C 590.503906 641.847656 538.820312 629.875 527.132812 625.046875 C 515.441406 620.21875 474.601562 589.871094 451.585938 588.167969 C 438.78125 587.21875 423.453125 596.839844 436.898438 622.855469 C 464.707031 676.648438 540.226562 682.785156 540.226562 682.785156 C 540.226562 682.785156 576.835938 689.65625 614.445312 683 C 614.445312 683 662.027344 685.070312 696.085938 653.6875 " fill-opacity="1" fill-rule="nonzero"/><path fill="#ffffff" d="M 607.691406 660.117188 L 595.628906 666.863281 L 601.652344 679.367188 L 611.636719 672.976562 L 607.691406 660.117188 " fill-opacity="1" fill-rule="nonzero"/><path fill="#000000" d="M 597.101562 667.324219 L 602.113281 677.738281 L 610.3125 672.492188 L 607.027344 661.773438 Z M 601.652344 680.488281 C 601.550781 680.488281 601.449219 680.476562 601.347656 680.449219 C 601.039062 680.359375 600.78125 680.144531 600.644531 679.855469 L 594.621094 667.347656 C 594.363281 666.8125 594.566406 666.171875 595.085938 665.882812 L 607.144531 659.136719 C 607.441406 658.972656 607.796875 658.949219 608.113281 659.078125 C 608.425781 659.203125 608.664062 659.464844 608.769531 659.789062 L 612.710938 672.648438 C 612.859375 673.128906 612.667969 673.652344 612.242188 673.925781 L 602.261719 680.3125 C 602.078125 680.425781 601.867188 680.488281 601.652344 680.488281 " fill-opacity="1" fill-rule="nonzero"/><path fill="#000000" d="M 600.367188 665.269531 C 598.96875 663.46875 596.242188 663.492188 594.890625 665.324219 L 589.035156 673.261719 L 596.945312 683.441406 L 607.421875 678.632812 C 606.699219 674.113281 603.035156 668.710938 600.367188 665.269531 " fill-opacity="1" fill-rule="nonzero"/><path fill="#ffffff" d="M 601.582031 673.71875 L 598.382812 670.484375 C 597.234375 669.320312 595.433594 669.097656 594.035156 669.945312 L 591.757812 671.324219 L 591.273438 670.265625 C 590.742188 669.121094 589.4375 668.554688 588.242188 668.953125 C 580.949219 671.386719 556.71875 679.734375 548.613281 685.734375 C 539.023438 692.835938 545.835938 708.625 562.550781 707.015625 C 575.804688 705.738281 593.914062 690.96875 600.859375 684.894531 C 602.222656 683.703125 601.878906 681.5 600.21875 680.769531 L 600.203125 680.765625 L 601.96875 678.222656 C 602.941406 676.820312 602.777344 674.929688 601.582031 673.71875 " fill-opacity="1" fill-rule="nonzero"/><path fill="#000000" d="M 589.027344 669.945312 C 588.882812 669.945312 588.742188 669.96875 588.597656 670.019531 C 581.390625 672.421875 557.25 680.734375 549.28125 686.636719 C 545.683594 689.300781 544.4375 693.53125 546.027344 697.667969 C 547.707031 702.035156 553.011719 706.800781 562.445312 705.898438 C 575.324219 704.65625 593.082031 690.207031 600.121094 684.050781 C 600.472656 683.742188 600.632812 683.300781 600.5625 682.835938 C 600.492188 682.367188 600.203125 681.988281 599.765625 681.796875 C 599.460938 681.660156 599.21875 681.394531 599.128906 681.074219 C 599.039062 680.746094 599.089844 680.398438 599.28125 680.121094 L 601.050781 677.578125 C 601.714844 676.628906 601.601562 675.332031 600.78125 674.503906 L 597.585938 671.273438 C 596.796875 670.472656 595.574219 670.320312 594.613281 670.902344 L 592.339844 672.28125 C 592.066406 672.449219 591.738281 672.488281 591.429688 672.394531 C 591.125 672.300781 590.875 672.082031 590.742188 671.796875 L 590.25 670.738281 C 590.023438 670.246094 589.539062 669.945312 589.027344 669.945312 Z M 560.144531 708.253906 C 551.011719 708.253906 545.734375 703.160156 543.933594 698.476562 C 541.992188 693.425781 543.566406 688.074219 547.945312 684.835938 C 556.179688 678.734375 580.597656 670.324219 587.890625 667.890625 C 589.597656 667.320312 591.453125 668.101562 592.25 669.714844 L 593.449219 668.988281 C 595.300781 667.867188 597.660156 668.15625 599.179688 669.695312 L 602.378906 672.929688 C 603.957031 674.523438 604.175781 677.019531 602.890625 678.863281 L 601.761719 680.480469 C 602.296875 681.015625 602.664062 681.714844 602.78125 682.492188 C 602.96875 683.714844 602.527344 684.929688 601.597656 685.742188 C 594.398438 692.039062 576.1875 706.828125 562.660156 708.128906 C 561.792969 708.214844 560.953125 708.253906 560.144531 708.253906 " fill-opacity="1" fill-rule="nonzero"/><path fill="#000000" d="M 580.785156 692.09375 C 580.363281 692.09375 579.964844 691.859375 579.769531 691.457031 L 574.355469 680.074219 C 574.085938 679.511719 574.328125 678.84375 574.886719 678.578125 C 575.449219 678.3125 576.117188 678.550781 576.382812 679.109375 L 581.796875 690.492188 C 582.0625 691.050781 581.828125 691.71875 581.265625 691.984375 C 581.109375 692.058594 580.949219 692.09375 580.785156 692.09375 " fill-opacity="1" fill-rule="nonzero"/><path fill="#000000" d="M 555.691406 660.238281 C 555.425781 660.238281 555.160156 660.144531 554.945312 659.953125 C 554.480469 659.546875 554.4375 658.839844 554.847656 658.371094 L 555.824219 657.261719 L 500.464844 614.570312 C 499.976562 614.191406 499.882812 613.488281 500.261719 612.996094 C 500.640625 612.507812 501.347656 612.417969 501.835938 612.792969 L 558.144531 656.21875 C 558.390625 656.40625 558.546875 656.691406 558.578125 657 C 558.605469 657.308594 558.503906 657.617188 558.300781 657.847656 L 556.53125 659.855469 C 556.304688 660.105469 556 660.238281 555.691406 660.238281 " fill-opacity="1" fill-rule="nonzero"/><path fill="#ffffff" d="M 553.75 662.625 L 578.261719 671.417969 L 574.378906 684.746094 L 544.789062 676.683594 L 553.75 662.625 " fill-opacity="1" fill-rule="nonzero"/><path fill="#000000" d="M 546.550781 676 L 573.613281 683.375 L 576.886719 672.117188 L 554.214844 663.984375 Z M 574.382812 685.867188 C 574.285156 685.867188 574.183594 685.855469 574.085938 685.828125 L 544.496094 677.761719 C 544.152344 677.667969 543.871094 677.417969 543.742188 677.085938 C 543.617188 676.75 543.652344 676.378906 543.84375 676.082031 L 552.800781 662.023438 C 553.082031 661.578125 553.632812 661.394531 554.125 661.570312 L 578.640625 670.363281 C 579.199219 670.5625 579.503906 671.164062 579.335938 671.730469 L 575.457031 685.058594 C 575.316406 685.546875 574.867188 685.867188 574.382812 685.867188 " fill-opacity="1" fill-rule="nonzero"/><path fill="#000000" d="M 573.328125 670.625 C 574.410156 668.621094 577.105469 668.195312 578.738281 669.78125 L 585.824219 676.648438 L 579.695312 687.992188 L 568.574219 684.96875 C 568.539062 680.394531 571.261719 674.460938 573.328125 670.625 " fill-opacity="1" fill-rule="nonzero"/><path fill="#ffffff" d="M 573.519531 679.160156 L 576.144531 675.449219 C 577.085938 674.109375 578.824219 673.589844 580.347656 674.199219 L 582.8125 675.183594 L 583.121094 674.0625 C 583.457031 672.84375 584.644531 672.070312 585.894531 672.269531 C 593.492188 673.46875 618.765625 677.710938 627.75 682.300781 C 638.375 687.722656 634.261719 704.421875 617.503906 705.582031 C 604.226562 706.503906 583.929688 694.917969 576.078125 690.066406 C 574.53125 689.117188 574.511719 686.886719 576.027344 685.894531 L 576.046875 685.882812 L 573.878906 683.664062 C 572.691406 682.449219 572.539062 680.554688 573.519531 679.160156 " fill-opacity="1" fill-rule="nonzero"/><path fill="#000000" d="M 574.441406 679.808594 C 573.769531 680.757812 573.871094 682.050781 574.683594 682.882812 L 576.847656 685.101562 C 577.078125 685.339844 577.195312 685.667969 577.15625 686.003906 C 577.125 686.335938 576.945312 686.632812 576.667969 686.816406 C 576.246094 687.09375 576.023438 687.515625 576.027344 687.984375 C 576.03125 688.457031 576.265625 688.867188 576.667969 689.113281 C 584.621094 694.027344 604.527344 705.355469 617.425781 704.464844 C 626.882812 703.808594 631.328125 698.226562 632.265625 693.644531 C 633.148438 689.296875 631.226562 685.332031 627.238281 683.296875 C 618.40625 678.789062 593.226562 674.566406 585.71875 673.375 C 585.035156 673.273438 584.386719 673.691406 584.203125 674.355469 L 583.894531 675.480469 C 583.8125 675.789062 583.601562 676.042969 583.316406 676.1875 C 583.03125 676.328125 582.699219 676.34375 582.398438 676.226562 L 579.929688 675.242188 C 578.882812 674.824219 577.707031 675.175781 577.058594 676.089844 Z M 615.980469 706.757812 C 602.46875 706.757812 583.3125 695.855469 575.484375 691.023438 C 574.433594 690.375 573.800781 689.25 573.78125 688.015625 C 573.773438 687.230469 574.011719 686.480469 574.457031 685.867188 L 573.078125 684.449219 C 571.507812 682.847656 571.3125 680.351562 572.605469 678.515625 L 575.226562 674.800781 C 576.476562 673.027344 578.753906 672.359375 580.761719 673.160156 L 582.066406 673.675781 C 582.582031 671.957031 584.285156 670.882812 586.066406 671.160156 C 593.660156 672.359375 619.132812 676.640625 628.257812 681.300781 C 633.109375 683.773438 635.546875 688.796875 634.464844 694.09375 C 633.371094 699.441406 628.292969 705.957031 617.582031 706.703125 C 617.054688 706.734375 616.523438 706.757812 615.980469 706.757812 " fill-opacity="1" fill-rule="nonzero"/><path fill="#000000" d="M 596.878906 693.878906 C 596.777344 693.878906 596.671875 693.867188 596.570312 693.839844 C 595.972656 693.664062 595.628906 693.042969 595.800781 692.453125 L 599.265625 680.332031 C 599.4375 679.734375 600.058594 679.394531 600.652344 679.5625 C 601.25 679.734375 601.589844 680.351562 601.421875 680.949219 L 597.960938 693.066406 C 597.816406 693.558594 597.367188 693.878906 596.878906 693.878906 " fill-opacity="1" fill-rule="nonzero"/><path fill="#000000" d="M 616.550781 703.214844 C 616.175781 703.214844 615.808594 703.027344 615.597656 702.6875 C 615.269531 702.164062 615.425781 701.472656 615.953125 701.140625 C 627.953125 693.632812 623.523438 684.5625 623.328125 684.179688 C 623.046875 683.628906 623.265625 682.953125 623.820312 682.671875 C 624.375 682.390625 625.046875 682.613281 625.328125 683.164062 C 625.386719 683.277344 630.863281 694.460938 617.144531 703.042969 C 616.960938 703.160156 616.753906 703.214844 616.550781 703.214844 " fill-opacity="1" fill-rule="nonzero"/><path fill="#000000" d="M 606.933594 658.230469 C 606.410156 658.230469 605.941406 657.863281 605.832031 657.332031 L 604.980469 653.148438 C 604.898438 652.734375 605.054688 652.3125 605.378906 652.046875 C 605.515625 651.9375 619.242188 640.9375 642.488281 623.851562 C 665.734375 606.765625 670.816406 603.273438 670.867188 603.242188 C 671.378906 602.894531 672.074219 603.019531 672.421875 603.535156 C 672.773438 604.042969 672.644531 604.742188 672.132812 605.09375 C 672.085938 605.128906 667 608.617188 643.820312 625.652344 C 623.171875 640.832031 610.058594 651.195312 607.320312 653.375 L 608.03125 656.882812 C 608.15625 657.492188 607.761719 658.082031 607.15625 658.203125 C 607.082031 658.222656 607.007812 658.230469 606.933594 658.230469 " fill-opacity="1" fill-rule="nonzero"/><path fill="#000000" d="M 486.402344 576.164062 C 488.152344 568.332031 499.332031 539.449219 507.757812 518.171875 C 514.484375 501.191406 530.75 488.945312 550.109375 486.488281 C 564.519531 484.652344 580.144531 484.28125 595.167969 485.464844 C 620.21875 487.4375 641.730469 502.761719 650.015625 524.730469 C 657.480469 544.515625 665.613281 568.804688 665.792969 581.109375 C 665.992188 594.21875 658.066406 606.746094 649.417969 616.472656 C 638.511719 628.742188 622.945312 636.394531 606.136719 637.949219 C 582.128906 640.171875 544.660156 642.402344 527.644531 636.84375 C 501.542969 628.320312 482.164062 595.121094 486.402344 576.164062 " fill-opacity="1" fill-rule="nonzero"/><path fill="#ffffff" d="M 520.191406 537.851562 L 633.644531 537.851562 C 638.792969 537.851562 642.96875 542.023438 642.96875 547.164062 L 642.96875 622.136719 C 642.96875 627.285156 638.792969 631.457031 633.644531 631.457031 L 520.191406 631.457031 C 515.046875 631.457031 510.871094 627.285156 510.871094 622.136719 L 510.871094 547.164062 C 510.871094 542.023438 515.046875 537.851562 520.191406 537.851562 " fill-opacity="1" fill-rule="nonzero"/><path fill="#000000" d="M 520.191406 538.972656 C 515.671875 538.972656 511.992188 542.648438 511.992188 547.164062 L 511.992188 622.136719 C 511.992188 626.65625 515.671875 630.332031 520.191406 630.332031 L 633.644531 630.332031 C 638.167969 630.332031 641.847656 626.65625 641.847656 622.136719 L 641.847656 547.164062 C 641.847656 542.648438 638.167969 538.972656 633.644531 538.972656 Z M 633.644531 632.574219 L 520.191406 632.574219 C 514.433594 632.574219 509.75 627.890625 509.75 622.136719 L 509.75 547.164062 C 509.75 541.410156 514.433594 536.730469 520.191406 536.730469 L 633.644531 536.730469 C 639.402344 536.730469 644.089844 541.410156 644.089844 547.164062 L 644.089844 622.136719 C 644.089844 627.890625 639.402344 632.574219 633.644531 632.574219 " fill-opacity="1" fill-rule="nonzero"/><path fill="#caddff" d="M 512.679688 631.90625 L 643.09375 631.90625 C 646.335938 631.90625 648.964844 634.53125 648.964844 637.769531 C 648.964844 641.011719 646.335938 643.636719 643.09375 643.636719 L 512.679688 643.636719 C 509.433594 643.636719 506.808594 641.011719 506.808594 637.769531 C 506.808594 634.53125 509.433594 631.90625 512.679688 631.90625 " fill-opacity="1" fill-rule="nonzero"/><path fill="#000000" d="M 512.679688 633.027344 C 510.058594 633.027344 507.929688 635.15625 507.929688 637.769531 C 507.929688 640.386719 510.058594 642.511719 512.679688 642.511719 L 643.09375 642.511719 C 645.714844 642.511719 647.839844 640.386719 647.839844 637.769531 C 647.839844 635.15625 645.714844 633.027344 643.09375 633.027344 Z M 643.09375 644.757812 L 512.679688 644.757812 C 508.824219 644.757812 505.6875 641.625 505.6875 637.769531 C 505.6875 633.917969 508.824219 630.785156 512.679688 630.785156 L 643.09375 630.785156 C 646.949219 630.785156 650.085938 633.917969 650.085938 637.769531 C 650.085938 641.625 646.949219 644.757812 643.09375 644.757812 " fill-opacity="1" fill-rule="nonzero"/><path fill="#ffffff" d="M 566.886719 486.035156 L 565.664062 468.730469 C 564.835938 468.671875 564.261719 468.632812 564.097656 468.632812 C 559.265625 468.578125 557.695312 467.011719 557.277344 463.046875 C 557.019531 460.566406 556.929688 456.882812 558.136719 452.273438 C 558.265625 451.78125 558.238281 451.257812 558.039062 450.792969 L 557.214844 448.855469 C 557.039062 448.222656 557.261719 447.535156 557.769531 447.121094 L 558.210938 446.761719 C 559.785156 445.472656 561.09375 443.882812 562.144531 442.117188 C 563.113281 440.496094 564.753906 437.457031 565.882812 436.917969 C 569.058594 435.40625 581.933594 428.671875 589.136719 440.441406 C 594.75 449.613281 585.574219 462.242188 582.246094 466.378906 C 581.441406 467.378906 587.6875 486.992188 587.6875 486.992188 L 595.761719 488.945312 C 595.761719 488.945312 589.53125 500.003906 570.597656 495.429688 C 557.113281 492.171875 559.257812 487.15625 559.257812 487.15625 L 566.886719 486.035156 " fill-opacity="1" fill-rule="nonzero"/><path fill="#000000" d="M 560.265625 488.144531 C 560.292969 488.390625 560.378906 488.714844 560.585938 489.09375 C 561.234375 490.285156 563.429688 492.542969 570.863281 494.339844 C 585.003906 497.761719 591.621094 492.257812 593.867188 489.636719 L 587.421875 488.082031 C 587.042969 487.992188 586.734375 487.707031 586.617188 487.335938 C 580.183594 467.148438 580.953125 466.191406 581.367188 465.675781 C 585.109375 461.03125 593.261719 449.335938 588.175781 441.023438 C 581.746094 430.507812 570.429688 435.972656 566.710938 437.765625 L 566.367188 437.933594 C 565.707031 438.25 564.195312 440.839844 563.546875 441.945312 C 563.390625 442.214844 563.246094 442.46875 563.109375 442.695312 C 561.949219 444.640625 560.539062 446.300781 558.917969 447.628906 L 558.480469 447.988281 C 558.328125 448.113281 558.253906 448.316406 558.28125 448.507812 L 559.066406 450.351562 C 559.363281 451.035156 559.414062 451.820312 559.222656 452.558594 C 558.300781 456.066406 558.03125 459.457031 558.394531 462.929688 C 558.730469 466.117188 559.597656 467.460938 564.109375 467.511719 C 564.285156 467.515625 564.878906 467.546875 565.738281 467.609375 C 566.296875 467.648438 566.742188 468.089844 566.785156 468.648438 L 568.003906 485.957031 C 568.046875 486.539062 567.628906 487.058594 567.046875 487.144531 Z M 579.324219 497.675781 C 576.691406 497.675781 573.703125 497.335938 570.335938 496.519531 C 563.890625 494.964844 559.917969 492.769531 558.527344 490 C 557.632812 488.21875 558.164062 486.863281 558.226562 486.71875 C 558.378906 486.359375 558.710938 486.105469 559.097656 486.046875 L 565.695312 485.078125 L 564.613281 469.78125 C 564.347656 469.765625 564.164062 469.753906 564.082031 469.753906 C 558.875 469.695312 556.652344 467.847656 556.160156 463.164062 C 555.769531 459.417969 556.058594 455.761719 557.050781 451.988281 C 557.121094 451.726562 557.105469 451.460938 557.007812 451.230469 L 556.183594 449.296875 C 556.160156 449.25 556.140625 449.199219 556.128906 449.148438 C 555.84375 448.089844 556.207031 446.953125 557.054688 446.253906 L 557.496094 445.890625 C 558.914062 444.734375 560.15625 443.269531 561.183594 441.542969 C 561.3125 441.324219 561.457031 441.082031 561.609375 440.816406 C 563.027344 438.382812 564.207031 436.476562 565.398438 435.910156 L 565.738281 435.746094 C 576.925781 430.347656 585.121094 431.726562 590.09375 439.851562 C 595.839844 449.246094 587.402344 461.714844 583.292969 466.867188 C 583.34375 468.644531 585.929688 477.738281 588.5625 486.050781 L 596.027344 487.851562 C 596.367188 487.9375 596.652344 488.171875 596.792969 488.496094 C 596.933594 488.820312 596.914062 489.1875 596.742188 489.492188 C 596.515625 489.890625 591.957031 497.671875 579.324219 497.675781 " fill-opacity="1" fill-rule="nonzero"/><path fill="#000000" d="M 585.167969 425.476562 C 581.675781 424.722656 577.664062 425.261719 575.96875 424.640625 C 573.238281 423.636719 573.164062 420.363281 569.382812 419.445312 C 564.804688 418.332031 562.894531 420.285156 561.109375 423.007812 C 560.808594 423.457031 560.546875 423.96875 560.332031 424.542969 C 557.457031 432.253906 561.089844 436.011719 562.707031 437.234375 C 562.707031 437.234375 573 442.550781 574.761719 444.070312 C 576.410156 445.492188 578.3125 448.855469 577.117188 453.691406 C 576.960938 454.3125 577.234375 454.960938 577.761719 455.28125 C 578.382812 455.652344 579.183594 455.476562 579.609375 454.859375 C 580.945312 452.921875 583.867188 449.171875 585.949219 450.058594 C 588.5625 451.175781 587.75 459.003906 581.984375 459.910156 C 580.210938 460.1875 578.773438 461.996094 578.945312 463.847656 C 579.0625 465.058594 580.203125 466.527344 581.898438 466.914062 C 582.933594 467.152344 583.953125 466.734375 584.867188 466.15625 C 588.628906 463.753906 599.246094 453.570312 600.5625 444.441406 C 602.152344 433.441406 589.8125 426.476562 585.167969 425.476562 " fill-opacity="1" fill-rule="nonzero"/><path fill="#000000" d="M 564.363281 469.597656 C 563.804688 469.597656 563.34375 469.152344 563.324219 468.59375 C 563.300781 468.015625 563.75 467.535156 564.324219 467.511719 C 564.359375 467.511719 568.023438 467.34375 570.515625 465.222656 C 570.953125 464.851562 571.613281 464.902344 571.984375 465.34375 C 572.359375 465.78125 572.304688 466.441406 571.867188 466.8125 C 568.808594 469.402344 564.582031 469.585938 564.402344 469.59375 C 564.386719 469.597656 564.375 469.597656 564.363281 469.597656 " fill-opacity="1" fill-rule="nonzero"/><path fill="#ffffff" d="M 329.757812 280.007812 L 327.75 280.007812 L 327.75 237.121094 L 329.757812 237.121094 C 340.804688 237.121094 349.765625 246.078125 349.765625 257.121094 L 349.765625 260.007812 C 349.765625 271.054688 340.804688 280.007812 329.757812 280.007812 " fill-opacity="1" fill-rule="nonzero"/><path fill="#000000" d="M 328.871094 278.890625 L 329.757812 278.890625 C 340.171875 278.890625 348.644531 270.417969 348.644531 260.007812 L 348.644531 257.121094 C 348.644531 246.710938 340.171875 238.246094 329.757812 238.246094 L 328.871094 238.246094 Z M 329.757812 281.128906 L 327.75 281.128906 C 327.132812 281.128906 326.625 280.628906 326.625 280.007812 L 326.625 237.121094 C 326.625 236.503906 327.132812 236.003906 327.75 236.003906 L 329.757812 236.003906 C 341.40625 236.003906 350.886719 245.476562 350.886719 257.121094 L 350.886719 260.007812 C 350.886719 271.65625 341.40625 281.128906 329.757812 281.128906 " fill-opacity="1" fill-rule="nonzero"/><path fill="#ffffff" d="M 131.996094 280.007812 L 134.003906 280.007812 L 134.003906 237.121094 L 131.996094 237.121094 C 120.945312 237.121094 111.988281 246.078125 111.988281 257.121094 L 111.988281 260.007812 C 111.988281 271.054688 120.945312 280.007812 131.996094 280.007812 " fill-opacity="1" fill-rule="nonzero"/><path fill="#000000" d="M 131.996094 238.246094 C 121.582031 238.246094 113.109375 246.710938 113.109375 257.121094 L 113.109375 260.007812 C 113.109375 270.417969 121.582031 278.890625 131.996094 278.890625 L 132.878906 278.890625 L 132.878906 238.246094 Z M 134.003906 281.128906 L 131.996094 281.128906 C 120.34375 281.128906 110.863281 271.65625 110.863281 260.007812 L 110.863281 257.121094 C 110.863281 245.476562 120.34375 236.003906 131.996094 236.003906 L 134.003906 236.003906 C 134.621094 236.003906 135.125 236.503906 135.125 237.121094 L 135.125 280.007812 C 135.125 280.628906 134.621094 281.128906 134.003906 281.128906 " fill-opacity="1" fill-rule="nonzero"/><path fill="#ffffff" d="M 127.066406 256.796875 C 127.066406 210.710938 173.542969 163.042969 230.875 163.042969 C 288.207031 163.042969 334.683594 210.710938 334.683594 256.796875 C 334.683594 302.878906 288.207031 329.921875 230.875 329.921875 C 173.542969 329.921875 127.066406 302.878906 127.066406 256.796875 " fill-opacity="1" fill-rule="nonzero"/><path fill="#000000" d="M 230.875 164.164062 C 172.105469 164.164062 128.1875 213.070312 128.1875 256.796875 C 128.1875 278.371094 138.53125 296.667969 158.09375 309.707031 C 176.566406 322.023438 202.417969 328.804688 230.875 328.804688 C 259.335938 328.804688 285.183594 322.023438 303.65625 309.707031 C 323.222656 296.667969 333.5625 278.371094 333.5625 256.796875 C 333.5625 213.070312 289.648438 164.164062 230.875 164.164062 Z M 230.875 331.042969 C 201.976562 331.042969 175.6875 324.132812 156.847656 311.570312 C 136.632812 298.097656 125.945312 279.152344 125.945312 256.796875 C 125.945312 233.898438 137.15625 210.214844 156.703125 191.824219 C 177.191406 172.539062 203.535156 161.917969 230.875 161.917969 C 258.21875 161.917969 284.558594 172.539062 305.046875 191.824219 C 324.597656 210.214844 335.804688 233.898438 335.804688 256.796875 C 335.804688 279.152344 325.121094 298.097656 304.902344 311.570312 C 286.0625 324.132812 259.777344 331.042969 230.875 331.042969 " fill-opacity="1" fill-rule="nonzero"/><path fill="#ffffff" d="M 256.878906 343.769531 L 204.875 343.769531 C 182.082031 343.769531 163.601562 362.238281 163.601562 385.019531 C 163.601562 400.066406 165.070312 415.078125 167.988281 429.847656 L 175.464844 467.691406 C 180.691406 494.140625 203.902344 513.203125 230.875 513.203125 C 257.851562 513.203125 281.058594 494.140625 286.285156 467.691406 L 293.761719 429.847656 C 296.679688 415.078125 298.148438 400.066406 298.148438 385.019531 C 298.148438 362.238281 279.671875 343.769531 256.878906 343.769531 " fill-opacity="1" fill-rule="nonzero"/><path fill="#000000" d="M 204.875 344.890625 C 182.734375 344.890625 164.726562 362.890625 164.726562 385.019531 C 164.726562 399.960938 166.191406 414.96875 169.089844 429.628906 L 176.566406 467.472656 C 181.671875 493.320312 204.515625 512.082031 230.875 512.082031 C 257.238281 512.082031 280.078125 493.320312 285.1875 467.472656 L 292.664062 429.628906 C 295.558594 414.96875 297.027344 399.960938 297.027344 385.019531 C 297.027344 362.890625 279.015625 344.890625 256.878906 344.890625 Z M 230.875 514.328125 C 203.445312 514.328125 179.679688 494.808594 174.363281 467.90625 L 166.886719 430.0625 C 163.964844 415.261719 162.480469 400.109375 162.480469 385.019531 C 162.480469 361.652344 181.5 342.648438 204.875 342.648438 L 256.878906 342.648438 C 280.253906 342.648438 299.269531 361.652344 299.269531 385.019531 C 299.269531 400.109375 297.789062 415.261719 294.863281 430.0625 L 287.386719 467.90625 C 282.074219 494.808594 258.308594 514.328125 230.875 514.328125 " fill-opacity="1" fill-rule="nonzero"/><path fill="#5479f7" d="M 232.785156 435.160156 L 228.96875 435.160156 C 214.386719 435.160156 202.570312 423.347656 202.570312 408.777344 L 202.570312 343.769531 L 259.183594 343.769531 L 259.183594 408.777344 C 259.183594 423.347656 247.363281 435.160156 232.785156 435.160156 " fill-opacity="1" fill-rule="nonzero"/><path fill="#000000" d="M 259.183594 344.890625 L 202.570312 344.890625 C 201.949219 344.890625 201.445312 344.386719 201.445312 343.769531 C 201.445312 343.152344 201.949219 342.648438 202.570312 342.648438 L 259.183594 342.648438 C 259.804688 342.648438 260.304688 343.152344 260.304688 343.769531 C 260.304688 344.386719 259.804688 344.890625 259.183594 344.890625 " fill-opacity="1" fill-rule="nonzero"/><path fill="#000000" d="M 300.667969 242.964844 L 200.703125 242.964844 C 190.316406 242.964844 181.898438 252.03125 181.898438 263.214844 L 181.898438 276.425781 C 181.898438 284.953125 186.453125 293.996094 194.3125 295.46875 C 222.015625 300.675781 279.355469 300.675781 307.058594 295.46875 C 314.914062 293.996094 319.472656 284.953125 319.472656 276.425781 L 319.472656 263.214844 C 319.472656 252.03125 311.054688 242.964844 300.667969 242.964844 " fill-opacity="1" fill-rule="nonzero"/><path fill="#5479f7" d="M 227.195312 269.550781 C 227.195312 273.300781 224.375 276.335938 220.898438 276.335938 C 217.417969 276.335938 214.597656 273.300781 214.597656 269.550781 C 214.597656 265.804688 217.417969 262.769531 220.898438 262.769531 C 224.375 262.769531 227.195312 265.804688 227.195312 269.550781 " fill-opacity="1" fill-rule="nonzero"/><path fill="#5479f7" d="M 294.21875 269.550781 C 294.21875 273.300781 291.398438 276.335938 287.917969 276.335938 C 284.441406 276.335938 281.621094 273.300781 281.621094 269.550781 C 281.621094 265.804688 284.441406 262.769531 287.917969 262.769531 C 291.398438 262.769531 294.21875 265.804688 294.21875 269.550781 " fill-opacity="1" fill-rule="nonzero"/><path fill="#ffffff" d="M 212.027344 399.734375 C 211.738281 399.734375 211.453125 399.625 211.230469 399.40625 C 210.792969 398.96875 210.792969 398.257812 211.230469 397.820312 L 248.933594 360.140625 C 249.371094 359.703125 250.082031 359.703125 250.519531 360.140625 C 250.957031 360.578125 250.957031 361.289062 250.519531 361.726562 L 212.820312 399.40625 C 212.597656 399.625 212.3125 399.734375 212.027344 399.734375 " fill-opacity="1" fill-rule="nonzero"/><path fill="#ffffff" d="M 220.273438 415.484375 C 219.988281 415.484375 219.699219 415.375 219.480469 415.15625 C 219.042969 414.71875 219.042969 414.007812 219.480469 413.570312 L 240.683594 392.375 C 241.125 391.9375 241.832031 391.9375 242.273438 392.375 C 242.710938 392.816406 242.710938 393.527344 242.273438 393.964844 L 221.066406 415.15625 C 220.847656 415.375 220.5625 415.484375 220.273438 415.484375 " fill-opacity="1" fill-rule="nonzero"/><path fill="#ffffff" d="M 350.636719 698.738281 C 289.378906 698.738281 239.417969 683.59375 238.789062 683.398438 C 238.195312 683.214844 237.863281 682.585938 238.046875 681.996094 C 238.226562 681.40625 238.859375 681.078125 239.449219 681.253906 C 240.246094 681.5 320.207031 705.726562 401.730469 692.601562 C 402.34375 692.496094 402.917969 692.917969 403.015625 693.53125 C 403.117188 694.140625 402.703125 694.714844 402.089844 694.8125 C 384.617188 697.628906 367.207031 698.738281 350.636719 698.738281 " fill-opacity="1" fill-rule="nonzero"/><g fill="#5479f7" fill-opacity="1"><g transform="translate(779.320455, 556.219968)"><g><path d="M 4.90625 -37.34375 L 19.796875 -37.34375 C 24.484375 -37.34375 28.113281 -36.226562 30.6875 -34 C 33.269531 -31.78125 34.5625 -28.644531 34.5625 -24.59375 C 34.5625 -20.363281 33.269531 -17.082031 30.6875 -14.75 C 28.113281 -12.414062 24.484375 -11.25 19.796875 -11.25 L 11.203125 -11.25 L 11.203125 0 L 4.90625 0 Z M 11.203125 -31.6875 L 11.203125 -16.90625 L 19.53125 -16.90625 C 25.53125 -16.90625 28.53125 -19.414062 28.53125 -24.4375 C 28.53125 -29.269531 25.53125 -31.6875 19.53125 -31.6875 Z M 11.203125 -31.6875 "/></g></g></g><g fill="#5479f7" fill-opacity="1"><g transform="translate(815.214139, 556.219968)"><g><path d="M 10.671875 -28.375 L 10.671875 -22.71875 C 12.628906 -26.632812 15.898438 -28.59375 20.484375 -28.59375 L 20.484375 -22.71875 C 17.671875 -22.863281 15.394531 -22.207031 13.65625 -20.75 C 11.914062 -19.289062 10.921875 -17.316406 10.671875 -14.828125 L 10.671875 0 L 4.53125 0 L 4.53125 -28.375 Z M 10.671875 -28.375 "/></g></g></g><g fill="#5479f7" fill-opacity="1"><g transform="translate(836.227676, 556.219968)"><g><path d="M 21.546875 0 L 21.546875 -3.46875 C 19.523438 -0.976562 16.394531 0.265625 12.15625 0.265625 C 9.132812 0.265625 6.71875 -0.554688 4.90625 -2.203125 C 3.09375 -3.859375 2.1875 -5.96875 2.1875 -8.53125 C 2.1875 -11.125 3.128906 -13.1875 5.015625 -14.71875 C 6.898438 -16.25 9.53125 -17.03125 12.90625 -17.0625 L 21.5 -17.0625 L 21.5 -17.921875 C 21.5 -19.734375 20.921875 -21.132812 19.765625 -22.125 C 18.609375 -23.125 16.925781 -23.625 14.71875 -23.625 C 11.976562 -23.625 9.1875 -22.664062 6.34375 -20.75 L 3.84375 -25.015625 C 6.007812 -26.296875 7.953125 -27.210938 9.671875 -27.765625 C 11.398438 -28.316406 13.53125 -28.59375 16.0625 -28.59375 C 19.6875 -28.59375 22.492188 -27.710938 24.484375 -25.953125 C 26.472656 -24.191406 27.488281 -21.742188 27.53125 -18.609375 L 27.578125 0 Z M 13.4375 -4.59375 C 15.613281 -4.59375 17.457031 -5.097656 18.96875 -6.109375 C 20.476562 -7.117188 21.320312 -8.40625 21.5 -9.96875 L 21.5 -12.59375 L 13.8125 -12.59375 C 11.789062 -12.59375 10.304688 -12.296875 9.359375 -11.703125 C 8.421875 -11.117188 7.953125 -10.148438 7.953125 -8.796875 C 7.953125 -7.515625 8.4375 -6.492188 9.40625 -5.734375 C 10.382812 -4.972656 11.726562 -4.59375 13.4375 -4.59375 Z M 13.4375 -4.59375 "/></g></g></g><g fill="#5479f7" fill-opacity="1"><g transform="translate(867.481313, 556.219968)"><g><path d="M 16.15625 -28.59375 C 21.28125 -28.59375 25.195312 -27.046875 27.90625 -23.953125 L 24.53125 -20 C 22.40625 -22.175781 19.707031 -23.242188 16.4375 -23.203125 C 13.976562 -23.203125 11.957031 -22.359375 10.375 -20.671875 C 8.789062 -18.984375 8 -16.804688 8 -14.140625 C 8 -11.472656 8.789062 -9.289062 10.375 -7.59375 C 11.957031 -5.90625 13.976562 -5.0625 16.4375 -5.0625 C 20.0625 -5.0625 22.851562 -6.203125 24.8125 -8.484375 L 28.21875 -5.0625 C 25.550781 -1.539062 21.53125 0.21875 16.15625 0.21875 C 11.925781 0.21875 8.484375 -1.101562 5.828125 -3.75 C 3.179688 -6.40625 1.859375 -9.867188 1.859375 -14.140625 C 1.859375 -18.441406 3.179688 -21.925781 5.828125 -24.59375 C 8.484375 -27.257812 11.925781 -28.59375 16.15625 -28.59375 Z M 16.15625 -28.59375 "/></g></g></g><g fill="#5479f7" fill-opacity="1"><g transform="translate(897.561613, 556.219968)"><g><path d="M 19.046875 -6.515625 L 20.59375 -1.8125 C 18.238281 -0.425781 15.90625 0.265625 13.59375 0.265625 C 11.289062 0.265625 9.390625 -0.425781 7.890625 -1.8125 C 6.398438 -3.195312 5.65625 -5.257812 5.65625 -8 L 5.65625 -22.71875 L 1.65625 -22.71875 L 1.65625 -27.3125 L 5.65625 -27.3125 L 5.65625 -35.09375 L 11.734375 -35.09375 L 11.734375 -27.3125 L 20.109375 -27.3125 L 20.109375 -22.71875 L 11.734375 -22.71875 L 11.734375 -9.125 C 11.734375 -7.695312 11.984375 -6.695312 12.484375 -6.125 C 12.984375 -5.5625 13.75 -5.28125 14.78125 -5.28125 C 15.914062 -5.28125 17.335938 -5.691406 19.046875 -6.515625 Z M 19.046875 -6.515625 "/></g></g></g><g fill="#5479f7" fill-opacity="1"><g transform="translate(919.268493, 556.219968)"><g><path d="M 5.015625 -39.171875 C 5.691406 -39.867188 6.546875 -40.21875 7.578125 -40.21875 C 8.609375 -40.21875 9.460938 -39.867188 10.140625 -39.171875 C 10.816406 -38.484375 11.15625 -37.585938 11.15625 -36.484375 C 11.15625 -35.421875 10.816406 -34.539062 10.140625 -33.84375 C 9.460938 -33.15625 8.609375 -32.8125 7.578125 -32.8125 C 6.546875 -32.8125 5.691406 -33.15625 5.015625 -33.84375 C 4.335938 -34.539062 4 -35.421875 4 -36.484375 C 4 -37.585938 4.335938 -38.484375 5.015625 -39.171875 Z M 10.609375 0 L 4.53125 0 L 4.53125 -28.375 L 10.609375 -28.375 Z M 10.609375 0 "/></g></g></g><g fill="#5479f7" fill-opacity="1"><g transform="translate(934.415313, 556.219968)"><g><path d="M 16.15625 -28.59375 C 21.28125 -28.59375 25.195312 -27.046875 27.90625 -23.953125 L 24.53125 -20 C 22.40625 -22.175781 19.707031 -23.242188 16.4375 -23.203125 C 13.976562 -23.203125 11.957031 -22.359375 10.375 -20.671875 C 8.789062 -18.984375 8 -16.804688 8 -14.140625 C 8 -11.472656 8.789062 -9.289062 10.375 -7.59375 C 11.957031 -5.90625 13.976562 -5.0625 16.4375 -5.0625 C 20.0625 -5.0625 22.851562 -6.203125 24.8125 -8.484375 L 28.21875 -5.0625 C 25.550781 -1.539062 21.53125 0.21875 16.15625 0.21875 C 11.925781 0.21875 8.484375 -1.101562 5.828125 -3.75 C 3.179688 -6.40625 1.859375 -9.867188 1.859375 -14.140625 C 1.859375 -18.441406 3.179688 -21.925781 5.828125 -24.59375 C 8.484375 -27.257812 11.925781 -28.59375 16.15625 -28.59375 Z M 16.15625 -28.59375 "/></g></g></g><g fill="#5479f7" fill-opacity="1"><g transform="translate(964.495622, 556.219968)"><g><path d="M 21.546875 0 L 21.546875 -3.46875 C 19.523438 -0.976562 16.394531 0.265625 12.15625 0.265625 C 9.132812 0.265625 6.71875 -0.554688 4.90625 -2.203125 C 3.09375 -3.859375 2.1875 -5.96875 2.1875 -8.53125 C 2.1875 -11.125 3.128906 -13.1875 5.015625 -14.71875 C 6.898438 -16.25 9.53125 -17.03125 12.90625 -17.0625 L 21.5 -17.0625 L 21.5 -17.921875 C 21.5 -19.734375 20.921875 -21.132812 19.765625 -22.125 C 18.609375 -23.125 16.925781 -23.625 14.71875 -23.625 C 11.976562 -23.625 9.1875 -22.664062 6.34375 -20.75 L 3.84375 -25.015625 C 6.007812 -26.296875 7.953125 -27.210938 9.671875 -27.765625 C 11.398438 -28.316406 13.53125 -28.59375 16.0625 -28.59375 C 19.6875 -28.59375 22.492188 -27.710938 24.484375 -25.953125 C 26.472656 -24.191406 27.488281 -21.742188 27.53125 -18.609375 L 27.578125 0 Z M 13.4375 -4.59375 C 15.613281 -4.59375 17.457031 -5.097656 18.96875 -6.109375 C 20.476562 -7.117188 21.320312 -8.40625 21.5 -9.96875 L 21.5 -12.59375 L 13.8125 -12.59375 C 11.789062 -12.59375 10.304688 -12.296875 9.359375 -11.703125 C 8.421875 -11.117188 7.953125 -10.148438 7.953125 -8.796875 C 7.953125 -7.515625 8.4375 -6.492188 9.40625 -5.734375 C 10.382812 -4.972656 11.726562 -4.59375 13.4375 -4.59375 Z M 13.4375 -4.59375 "/></g></g></g><g fill="#5479f7" fill-opacity="1"><g transform="translate(995.74925, 556.219968)"><g><path d="M 10.9375 0 L 4.796875 0 L 4.796875 -39.578125 L 10.9375 -39.578125 Z M 10.9375 0 "/></g></g></g><g fill="#5479f7" fill-opacity="1"><g transform="translate(1011.482729, 556.219968)"><g/></g></g><g fill="#5479f7" fill-opacity="1"><g transform="translate(1025.242862, 556.219968)"><g><path d="M 30.296875 -28.375 L 30.296875 0 L 24.171875 0 L 24.171875 -5.546875 C 22.316406 -1.773438 18.9375 0.144531 14.03125 0.21875 C 10.789062 0.21875 8.242188 -0.757812 6.390625 -2.71875 C 4.546875 -4.675781 3.625 -7.34375 3.625 -10.71875 L 3.625 -28.375 L 9.765625 -28.375 L 9.765625 -12.421875 C 9.765625 -10.296875 10.347656 -8.617188 11.515625 -7.390625 C 12.691406 -6.160156 14.3125 -5.546875 16.375 -5.546875 C 18.757812 -5.578125 20.65625 -6.421875 22.0625 -8.078125 C 23.46875 -9.734375 24.171875 -11.84375 24.171875 -14.40625 L 24.171875 -28.375 Z M 30.296875 -28.375 "/></g></g></g><g fill="#5479f7" fill-opacity="1"><g transform="translate(1060.069873, 556.219968)"><g><path d="M 13.015625 -28.640625 C 16.929688 -28.640625 20.238281 -27.679688 22.9375 -25.765625 L 20.703125 -21.234375 C 17.992188 -22.898438 15.269531 -23.734375 12.53125 -23.734375 C 9.757812 -23.734375 8.375 -22.789062 8.375 -20.90625 C 8.375 -19.988281 8.890625 -19.222656 9.921875 -18.609375 C 10.953125 -18.003906 12.203125 -17.5 13.671875 -17.09375 C 15.148438 -16.6875 16.628906 -16.207031 18.109375 -15.65625 C 19.585938 -15.101562 20.84375 -14.203125 21.875 -12.953125 C 22.90625 -11.710938 23.421875 -10.132812 23.421875 -8.21875 C 23.421875 -5.476562 22.378906 -3.382812 20.296875 -1.9375 C 18.210938 -0.5 15.625 0.21875 12.53125 0.21875 C 10.394531 0.21875 8.304688 -0.125 6.265625 -0.8125 C 4.222656 -1.507812 2.507812 -2.484375 1.125 -3.734375 L 3.3125 -8.109375 C 4.519531 -7.046875 6.003906 -6.191406 7.765625 -5.546875 C 9.523438 -4.910156 11.203125 -4.59375 12.796875 -4.59375 C 14.191406 -4.59375 15.3125 -4.835938 16.15625 -5.328125 C 17.007812 -5.828125 17.4375 -6.59375 17.4375 -7.625 C 17.4375 -8.695312 16.921875 -9.550781 15.890625 -10.1875 C 14.859375 -10.832031 13.613281 -11.347656 12.15625 -11.734375 C 10.695312 -12.128906 9.238281 -12.59375 7.78125 -13.125 C 6.320312 -13.65625 5.085938 -14.535156 4.078125 -15.765625 C 3.066406 -16.992188 2.5625 -18.550781 2.5625 -20.4375 C 2.5625 -23.132812 3.566406 -25.175781 5.578125 -26.5625 C 7.585938 -27.945312 10.066406 -28.640625 13.015625 -28.640625 Z M 13.015625 -28.640625 "/></g></g></g><g fill="#5479f7" fill-opacity="1"><g transform="translate(1085.136779, 556.219968)"><g><path d="M 16.21875 -28.59375 C 21.09375 -28.59375 24.617188 -27.125 26.796875 -24.1875 C 28.984375 -21.257812 29.882812 -17.144531 29.5 -11.84375 L 8.0625 -11.84375 C 8.550781 -9.632812 9.578125 -7.898438 11.140625 -6.640625 C 12.710938 -5.378906 14.617188 -4.75 16.859375 -4.75 C 20.054688 -4.75 22.722656 -5.851562 24.859375 -8.0625 L 28.109375 -4.59375 C 25.191406 -1.382812 21.28125 0.21875 16.375 0.21875 C 12 0.21875 8.484375 -1.101562 5.828125 -3.75 C 3.179688 -6.40625 1.859375 -9.863281 1.859375 -14.125 C 1.859375 -18.394531 3.191406 -21.863281 5.859375 -24.53125 C 8.535156 -27.195312 11.988281 -28.550781 16.21875 -28.59375 Z M 7.953125 -16.328125 L 24.171875 -16.328125 C 24.054688 -18.597656 23.285156 -20.390625 21.859375 -21.703125 C 20.441406 -23.023438 18.578125 -23.6875 16.265625 -23.6875 C 14.023438 -23.6875 12.164062 -23.023438 10.6875 -21.703125 C 9.21875 -20.390625 8.304688 -18.597656 7.953125 -16.328125 Z M 7.953125 -16.328125 "/></g></g></g><g fill="#5479f7" fill-opacity="1"><g transform="translate(1116.49711, 556.219968)"><g><path d="M 13.015625 -28.640625 C 16.929688 -28.640625 20.238281 -27.679688 22.9375 -25.765625 L 20.703125 -21.234375 C 17.992188 -22.898438 15.269531 -23.734375 12.53125 -23.734375 C 9.757812 -23.734375 8.375 -22.789062 8.375 -20.90625 C 8.375 -19.988281 8.890625 -19.222656 9.921875 -18.609375 C 10.953125 -18.003906 12.203125 -17.5 13.671875 -17.09375 C 15.148438 -16.6875 16.628906 -16.207031 18.109375 -15.65625 C 19.585938 -15.101562 20.84375 -14.203125 21.875 -12.953125 C 22.90625 -11.710938 23.421875 -10.132812 23.421875 -8.21875 C 23.421875 -5.476562 22.378906 -3.382812 20.296875 -1.9375 C 18.210938 -0.5 15.625 0.21875 12.53125 0.21875 C 10.394531 0.21875 8.304688 -0.125 6.265625 -0.8125 C 4.222656 -1.507812 2.507812 -2.484375 1.125 -3.734375 L 3.3125 -8.109375 C 4.519531 -7.046875 6.003906 -6.191406 7.765625 -5.546875 C 9.523438 -4.910156 11.203125 -4.59375 12.796875 -4.59375 C 14.191406 -4.59375 15.3125 -4.835938 16.15625 -5.328125 C 17.007812 -5.828125 17.4375 -6.59375 17.4375 -7.625 C 17.4375 -8.695312 16.921875 -9.550781 15.890625 -10.1875 C 14.859375 -10.832031 13.613281 -11.347656 12.15625 -11.734375 C 10.695312 -12.128906 9.238281 -12.59375 7.78125 -13.125 C 6.320312 -13.65625 5.085938 -14.535156 4.078125 -15.765625 C 3.066406 -16.992188 2.5625 -18.550781 2.5625 -20.4375 C 2.5625 -23.132812 3.566406 -25.175781 5.578125 -26.5625 C 7.585938 -27.945312 10.066406 -28.640625 13.015625 -28.640625 Z M 13.015625 -28.640625 "/></g></g></g><g fill="#5479f7" fill-opacity="1"><g transform="translate(1141.564034, 556.219968)"><g/></g></g><g fill="#5479f7" fill-opacity="1"><g transform="translate(1155.324166, 556.219968)"><g><path d="M 5.015625 -39.171875 C 5.691406 -39.867188 6.546875 -40.21875 7.578125 -40.21875 C 8.609375 -40.21875 9.460938 -39.867188 10.140625 -39.171875 C 10.816406 -38.484375 11.15625 -37.585938 11.15625 -36.484375 C 11.15625 -35.421875 10.816406 -34.539062 10.140625 -33.84375 C 9.460938 -33.15625 8.609375 -32.8125 7.578125 -32.8125 C 6.546875 -32.8125 5.691406 -33.15625 5.015625 -33.84375 C 4.335938 -34.539062 4 -35.421875 4 -36.484375 C 4 -37.585938 4.335938 -38.484375 5.015625 -39.171875 Z M 10.609375 0 L 4.53125 0 L 4.53125 -28.375 L 10.609375 -28.375 Z M 10.609375 0 "/></g></g></g><g fill="#5479f7" fill-opacity="1"><g transform="translate(1170.470986, 556.219968)"><g><path d="M 21.125 -28.59375 C 24.425781 -28.59375 27.007812 -27.625 28.875 -25.6875 C 30.75 -23.75 31.6875 -21.070312 31.6875 -17.65625 L 31.6875 0 L 25.546875 0 L 25.546875 -15.953125 C 25.546875 -18.085938 24.941406 -19.765625 23.734375 -20.984375 C 22.523438 -22.210938 20.851562 -22.828125 18.71875 -22.828125 C 16.445312 -22.796875 14.585938 -22.066406 13.140625 -20.640625 C 11.703125 -19.222656 10.878906 -17.375 10.671875 -15.09375 L 10.671875 0 L 4.53125 0 L 4.53125 -28.375 L 10.671875 -28.375 L 10.671875 -22.9375 C 12.585938 -26.707031 16.070312 -28.59375 21.125 -28.59375 Z M 21.125 -28.59375 "/></g></g></g><g fill="#5479f7" fill-opacity="1"><g transform="translate(1205.831343, 556.219968)"><g/></g></g><g fill="#5479f7" fill-opacity="1"><g transform="translate(1219.591476, 556.219968)"><g><path d="M 31.578125 -31.6875 L 11.203125 -31.6875 L 11.203125 -21.609375 L 29.453125 -21.609375 L 29.453125 -15.953125 L 11.203125 -15.953125 L 11.203125 -5.65625 L 32.21875 -5.65625 L 32.21875 0 L 4.90625 0 L 4.90625 -37.34375 L 31.578125 -37.34375 Z M 31.578125 -31.6875 "/></g></g></g><g fill="#5479f7" fill-opacity="1"><g transform="translate(1254.578504, 556.219968)"><g><path d="M 29.921875 -31.6875 L 11.203125 -31.6875 L 11.203125 -20.90625 L 28.171875 -20.90625 L 28.171875 -15.3125 L 11.203125 -15.3125 L 11.203125 0 L 4.90625 0 L 4.90625 -37.34375 L 29.984375 -37.34375 Z M 29.921875 -31.6875 "/></g></g></g><g fill="#5479f7" fill-opacity="1"><g transform="translate(1285.245473, 556.219968)"><g><path d="M 11.203125 -5.703125 L 27.359375 -5.703125 L 27.359375 0 L 4.90625 0 L 4.90625 -37.34375 L 11.203125 -37.34375 Z M 11.203125 -5.703125 "/></g></g></g><g fill="#000000" fill-opacity="1"><g transform="translate(779.320455, 351.751504)"><g><path d="M 50.984375 0 L 36.6875 0 L 34.25 -16.34375 L 16.859375 -16.34375 L 14.421875 0 L 1.421875 0 L 15.828125 -90.109375 L 36.5625 -90.109375 Z M 18.671875 -28.578125 L 32.3125 -28.578125 L 25.484375 -74.15625 Z M 18.671875 -28.578125 "/></g></g></g><g fill="#000000" fill-opacity="1"><g transform="translate(831.711522, 351.751504)"><g><path d="M 34.765625 0 C 34.585938 -0.601562 34.410156 -1.160156 34.234375 -1.671875 C 34.066406 -2.191406 33.914062 -2.835938 33.78125 -3.609375 C 33.65625 -4.378906 33.570312 -5.363281 33.53125 -6.5625 C 33.488281 -7.769531 33.46875 -9.273438 33.46875 -11.078125 L 33.46875 -25.234375 C 33.46875 -29.441406 32.738281 -32.398438 31.28125 -34.109375 C 29.820312 -35.828125 27.460938 -36.6875 24.203125 -36.6875 L 19.3125 -36.6875 L 19.3125 0 L 5.15625 0 L 5.15625 -90.109375 L 26.515625 -90.109375 C 33.898438 -90.109375 39.242188 -88.390625 42.546875 -84.953125 C 45.847656 -81.523438 47.5 -76.335938 47.5 -69.390625 L 47.5 -62.3125 C 47.5 -53.039062 44.410156 -46.945312 38.234375 -44.03125 C 41.835938 -42.570312 44.300781 -40.1875 45.625 -36.875 C 46.957031 -33.570312 47.625 -29.5625 47.625 -24.84375 L 47.625 -10.9375 C 47.625 -8.707031 47.707031 -6.753906 47.875 -5.078125 C 48.050781 -3.410156 48.484375 -1.71875 49.171875 0 Z M 19.3125 -77.234375 L 19.3125 -49.5625 L 24.84375 -49.5625 C 27.507812 -49.5625 29.59375 -50.25 31.09375 -51.625 C 32.59375 -53 33.34375 -55.488281 33.34375 -59.09375 L 33.34375 -67.96875 C 33.34375 -71.226562 32.757812 -73.585938 31.59375 -75.046875 C 30.4375 -76.503906 28.617188 -77.234375 26.140625 -77.234375 Z M 19.3125 -77.234375 "/></g></g></g><g fill="#000000" fill-opacity="1"><g transform="translate(883.45896, 351.751504)"><g><path d="M 1.03125 -90.109375 L 44.796875 -90.109375 L 44.796875 -77.234375 L 30 -77.234375 L 30 0 L 15.828125 0 L 15.828125 -77.234375 L 1.03125 -77.234375 Z M 1.03125 -90.109375 "/></g></g></g><g fill="#000000" fill-opacity="1"><g transform="translate(929.285055, 351.751504)"><g><path d="M 5.15625 -90.109375 L 19.3125 -90.109375 L 19.3125 0 L 5.15625 0 Z M 5.15625 -90.109375 "/></g></g></g><g fill="#000000" fill-opacity="1"><g transform="translate(953.742789, 351.751504)"><g><path d="M 19.3125 -50.078125 L 37.59375 -50.078125 L 37.59375 -37.203125 L 19.3125 -37.203125 L 19.3125 0 L 5.15625 0 L 5.15625 -90.109375 L 42.609375 -90.109375 L 42.609375 -77.234375 L 19.3125 -77.234375 Z M 19.3125 -50.078125 "/></g></g></g><g fill="#000000" fill-opacity="1"><g transform="translate(998.024184, 351.751504)"><g><path d="M 5.15625 -90.109375 L 19.3125 -90.109375 L 19.3125 0 L 5.15625 0 Z M 5.15625 -90.109375 "/></g></g></g><g fill="#000000" fill-opacity="1"><g transform="translate(1022.481927, 351.751504)"><g><path d="M 46.21875 -33.59375 L 46.21875 -21.625 C 46.21875 -14.332031 44.4375 -8.734375 40.875 -4.828125 C 37.3125 -0.921875 32.054688 1.03125 25.109375 1.03125 C 18.148438 1.03125 12.890625 -0.921875 9.328125 -4.828125 C 5.765625 -8.734375 3.984375 -14.332031 3.984375 -21.625 L 3.984375 -68.484375 C 3.984375 -75.773438 5.765625 -81.375 9.328125 -85.28125 C 12.890625 -89.1875 18.148438 -91.140625 25.109375 -91.140625 C 32.054688 -91.140625 37.3125 -89.1875 40.875 -85.28125 C 44.4375 -81.375 46.21875 -75.773438 46.21875 -68.484375 L 46.21875 -59.734375 L 32.828125 -59.734375 L 32.828125 -69.390625 C 32.828125 -72.648438 32.160156 -74.941406 30.828125 -76.265625 C 29.503906 -77.597656 27.722656 -78.265625 25.484375 -78.265625 C 23.253906 -78.265625 21.472656 -77.597656 20.140625 -76.265625 C 18.816406 -74.941406 18.15625 -72.648438 18.15625 -69.390625 L 18.15625 -20.71875 C 18.15625 -17.457031 18.816406 -15.179688 20.140625 -13.890625 C 21.472656 -12.609375 23.253906 -11.96875 25.484375 -11.96875 C 27.722656 -11.96875 29.503906 -12.609375 30.828125 -13.890625 C 32.160156 -15.179688 32.828125 -17.457031 32.828125 -20.71875 L 32.828125 -33.59375 Z M 46.21875 -33.59375 "/></g></g></g><g fill="#000000" fill-opacity="1"><g transform="translate(1072.169771, 351.751504)"><g><path d="M 5.15625 -90.109375 L 19.3125 -90.109375 L 19.3125 0 L 5.15625 0 Z M 5.15625 -90.109375 "/></g></g></g><g fill="#000000" fill-opacity="1"><g transform="translate(1096.627514, 351.751504)"><g><path d="M 50.984375 0 L 36.6875 0 L 34.25 -16.34375 L 16.859375 -16.34375 L 14.421875 0 L 1.421875 0 L 15.828125 -90.109375 L 36.5625 -90.109375 Z M 18.671875 -28.578125 L 32.3125 -28.578125 L 25.484375 -74.15625 Z M 18.671875 -28.578125 "/></g></g></g><g fill="#000000" fill-opacity="1"><g transform="translate(1149.018561, 351.751504)"><g><path d="M 5.15625 -90.109375 L 19.3125 -90.109375 L 19.3125 -12.875 L 42.609375 -12.875 L 42.609375 0 L 5.15625 0 Z M 5.15625 -90.109375 "/></g></g></g><g fill="#000000" fill-opacity="1"><g transform="translate(779.320455, 472.287424)"><g><path d="M 5.15625 -90.109375 L 19.3125 -90.109375 L 19.3125 0 L 5.15625 0 Z M 5.15625 -90.109375 "/></g></g></g><g fill="#000000" fill-opacity="1"><g transform="translate(803.778199, 472.287424)"><g><path d="M 17.765625 -65.265625 L 17.765625 0 L 5.015625 0 L 5.015625 -90.109375 L 22.78125 -90.109375 L 37.328125 -36.171875 L 37.328125 -90.109375 L 49.953125 -90.109375 L 49.953125 0 L 35.40625 0 Z M 17.765625 -65.265625 "/></g></g></g><g fill="#000000" fill-opacity="1"><g transform="translate(858.743764, 472.287424)"><g><path d="M 1.03125 -90.109375 L 44.796875 -90.109375 L 44.796875 -77.234375 L 30 -77.234375 L 30 0 L 15.828125 0 L 15.828125 -77.234375 L 1.03125 -77.234375 Z M 1.03125 -90.109375 "/></g></g></g><g fill="#000000" fill-opacity="1"><g transform="translate(904.56986, 472.287424)"><g><path d="M 19.3125 -52.140625 L 38.75 -52.140625 L 38.75 -39.265625 L 19.3125 -39.265625 L 19.3125 -12.875 L 43.765625 -12.875 L 43.765625 0 L 5.15625 0 L 5.15625 -90.109375 L 43.765625 -90.109375 L 43.765625 -77.234375 L 19.3125 -77.234375 Z M 19.3125 -52.140625 "/></g></g></g><g fill="#000000" fill-opacity="1"><g transform="translate(951.940667, 472.287424)"><g><path d="M 5.15625 -90.109375 L 19.3125 -90.109375 L 19.3125 -12.875 L 42.609375 -12.875 L 42.609375 0 L 5.15625 0 Z M 5.15625 -90.109375 "/></g></g></g><g fill="#000000" fill-opacity="1"><g transform="translate(995.578432, 472.287424)"><g><path d="M 5.15625 -90.109375 L 19.3125 -90.109375 L 19.3125 -12.875 L 42.609375 -12.875 L 42.609375 0 L 5.15625 0 Z M 5.15625 -90.109375 "/></g></g></g><g fill="#000000" fill-opacity="1"><g transform="translate(1039.216197, 472.287424)"><g><path d="M 5.15625 -90.109375 L 19.3125 -90.109375 L 19.3125 0 L 5.15625 0 Z M 5.15625 -90.109375 "/></g></g></g><g fill="#000000" fill-opacity="1"><g transform="translate(1063.673941, 472.287424)"><g><path d="M 26.390625 -50.203125 L 46.21875 -50.203125 L 46.21875 -21.625 C 46.21875 -14.332031 44.4375 -8.734375 40.875 -4.828125 C 37.3125 -0.921875 32.054688 1.03125 25.109375 1.03125 C 18.148438 1.03125 12.890625 -0.921875 9.328125 -4.828125 C 5.765625 -8.734375 3.984375 -14.332031 3.984375 -21.625 L 3.984375 -68.484375 C 3.984375 -75.773438 5.765625 -81.375 9.328125 -85.28125 C 12.890625 -89.1875 18.148438 -91.140625 25.109375 -91.140625 C 32.054688 -91.140625 37.3125 -89.1875 40.875 -85.28125 C 44.4375 -81.375 46.21875 -75.773438 46.21875 -68.484375 L 46.21875 -59.734375 L 32.828125 -59.734375 L 32.828125 -69.390625 C 32.828125 -72.648438 32.160156 -74.941406 30.828125 -76.265625 C 29.503906 -77.597656 27.722656 -78.265625 25.484375 -78.265625 C 23.253906 -78.265625 21.472656 -77.597656 20.140625 -76.265625 C 18.816406 -74.941406 18.15625 -72.648438 18.15625 -69.390625 L 18.15625 -20.71875 C 18.15625 -17.457031 18.816406 -15.179688 20.140625 -13.890625 C 21.472656 -12.609375 23.253906 -11.96875 25.484375 -11.96875 C 27.722656 -11.96875 29.503906 -12.609375 30.828125 -13.890625 C 32.160156 -15.179688 32.828125 -17.457031 32.828125 -20.71875 L 32.828125 -37.328125 L 26.390625 -37.328125 Z M 26.390625 -50.203125 "/></g></g></g><g fill="#000000" fill-opacity="1"><g transform="translate(1113.876667, 472.287424)"><g><path d="M 19.3125 -52.140625 L 38.75 -52.140625 L 38.75 -39.265625 L 19.3125 -39.265625 L 19.3125 -12.875 L 43.765625 -12.875 L 43.765625 0 L 5.15625 0 L 5.15625 -90.109375 L 43.765625 -90.109375 L 43.765625 -77.234375 L 19.3125 -77.234375 Z M 19.3125 -52.140625 "/></g></g></g><g fill="#000000" fill-opacity="1"><g transform="translate(1161.247484, 472.287424)"><g><path d="M 17.765625 -65.265625 L 17.765625 0 L 5.015625 0 L 5.015625 -90.109375 L 22.78125 -90.109375 L 37.328125 -36.171875 L 37.328125 -90.109375 L 49.953125 -90.109375 L 49.953125 0 L 35.40625 0 Z M 17.765625 -65.265625 "/></g></g></g><g fill="#000000" fill-opacity="1"><g transform="translate(1216.21305, 472.287424)"><g><path d="M 46.21875 -33.59375 L 46.21875 -21.625 C 46.21875 -14.332031 44.4375 -8.734375 40.875 -4.828125 C 37.3125 -0.921875 32.054688 1.03125 25.109375 1.03125 C 18.148438 1.03125 12.890625 -0.921875 9.328125 -4.828125 C 5.765625 -8.734375 3.984375 -14.332031 3.984375 -21.625 L 3.984375 -68.484375 C 3.984375 -75.773438 5.765625 -81.375 9.328125 -85.28125 C 12.890625 -89.1875 18.148438 -91.140625 25.109375 -91.140625 C 32.054688 -91.140625 37.3125 -89.1875 40.875 -85.28125 C 44.4375 -81.375 46.21875 -75.773438 46.21875 -68.484375 L 46.21875 -59.734375 L 32.828125 -59.734375 L 32.828125 -69.390625 C 32.828125 -72.648438 32.160156 -74.941406 30.828125 -76.265625 C 29.503906 -77.597656 27.722656 -78.265625 25.484375 -78.265625 C 23.253906 -78.265625 21.472656 -77.597656 20.140625 -76.265625 C 18.816406 -74.941406 18.15625 -72.648438 18.15625 -69.390625 L 18.15625 -20.71875 C 18.15625 -17.457031 18.816406 -15.179688 20.140625 -13.890625 C 21.472656 -12.609375 23.253906 -11.96875 25.484375 -11.96875 C 27.722656 -11.96875 29.503906 -12.609375 30.828125 -13.890625 C 32.160156 -15.179688 32.828125 -17.457031 32.828125 -20.71875 L 32.828125 -33.59375 Z M 46.21875 -33.59375 "/></g></g></g><g fill="#000000" fill-opacity="1"><g transform="translate(1265.900893, 472.287424)"><g><path d="M 19.3125 -52.140625 L 38.75 -52.140625 L 38.75 -39.265625 L 19.3125 -39.265625 L 19.3125 -12.875 L 43.765625 -12.875 L 43.765625 0 L 5.15625 0 L 5.15625 -90.109375 L 43.765625 -90.109375 L 43.765625 -77.234375 L 19.3125 -77.234375 Z M 19.3125 -52.140625 "/></g></g></g></svg>