<svg xmlns="http://www.w3.org/2000/svg" xmlns:xlink="http://www.w3.org/1999/xlink" width="1080" zoomAndPan="magnify" viewBox="0 0 810 1439.999935" height="1920" preserveAspectRatio="xMidYMid meet" version="1.0"><defs><clipPath id="311aaecfa0"><path d="M 123.75 943 L 671 943 L 671 977.523438 L 123.75 977.523438 Z M 123.75 943 " clip-rule="nonzero"/></clipPath><clipPath id="fe60dbf4be"><path d="M 621 557 L 686.25 557 L 686.25 613 L 621 613 Z M 621 557 " clip-rule="nonzero"/></clipPath><clipPath id="9b05184ae6"><path d="M 297 462.273438 L 306 462.273438 L 306 471 L 297 471 Z M 297 462.273438 " clip-rule="nonzero"/></clipPath></defs><g clip-path="url(#311aaecfa0)"><path fill="#000000" d="M 670.5 960.460938 C 670.5 960.742188 670.390625 961.019531 670.171875 961.300781 C 669.953125 961.578125 669.621094 961.855469 669.183594 962.132812 C 668.746094 962.410156 668.199219 962.6875 667.542969 962.964844 C 666.886719 963.242188 666.121094 963.515625 665.25 963.789062 C 664.375 964.0625 663.394531 964.335938 662.308594 964.605469 C 661.222656 964.878906 660.03125 965.148438 658.730469 965.414062 C 657.433594 965.679688 656.03125 965.945312 654.523438 966.210938 C 653.015625 966.472656 651.40625 966.734375 649.695312 966.992188 C 647.984375 967.25 646.171875 967.503906 644.257812 967.757812 C 642.347656 968.007812 640.335938 968.257812 638.226562 968.503906 C 636.121094 968.75 633.914062 968.992188 631.617188 969.234375 C 629.316406 969.472656 626.925781 969.707031 624.441406 969.941406 C 621.953125 970.171875 619.378906 970.402344 616.714844 970.625 C 614.050781 970.847656 611.300781 971.070312 608.460938 971.285156 C 605.625 971.5 602.703125 971.710938 599.699219 971.917969 C 596.695312 972.125 593.613281 972.328125 590.449219 972.527344 C 587.289062 972.722656 584.050781 972.914062 580.734375 973.101562 C 577.421875 973.289062 574.035156 973.472656 570.578125 973.648438 C 567.121094 973.828125 563.59375 974 560 974.164062 C 556.410156 974.332031 552.753906 974.492188 549.035156 974.648438 C 545.316406 974.804688 541.539062 974.953125 537.699219 975.09375 C 533.863281 975.238281 529.972656 975.375 526.027344 975.507812 C 522.085938 975.640625 518.089844 975.765625 514.046875 975.886719 C 510.003906 976.003906 505.914062 976.117188 501.78125 976.222656 C 497.652344 976.332031 493.480469 976.429688 489.265625 976.527344 C 485.054688 976.621094 480.808594 976.707031 476.53125 976.789062 C 472.25 976.871094 467.941406 976.945312 463.601562 977.011719 C 459.261719 977.078125 454.898438 977.140625 450.511719 977.195312 C 446.125 977.25 441.71875 977.296875 437.296875 977.339844 C 432.871094 977.378906 428.433594 977.414062 423.980469 977.441406 C 419.53125 977.46875 415.070312 977.488281 410.601562 977.503906 C 406.136719 977.515625 401.664062 977.523438 397.191406 977.523438 C 392.71875 977.523438 388.25 977.515625 383.78125 977.503906 C 379.316406 977.488281 374.855469 977.46875 370.402344 977.441406 C 365.953125 977.414062 361.515625 977.378906 357.089844 977.339844 C 352.664062 977.296875 348.261719 977.25 343.875 977.195312 C 339.484375 977.140625 335.125 977.078125 330.785156 977.011719 C 326.445312 976.945312 322.136719 976.871094 317.855469 976.789062 C 313.574219 976.707031 309.328125 976.621094 305.117188 976.527344 C 300.90625 976.429688 296.734375 976.332031 292.601562 976.222656 C 288.46875 976.117188 284.382812 976.003906 280.339844 975.886719 C 276.296875 975.765625 272.300781 975.640625 268.355469 975.507812 C 264.410156 975.375 260.519531 975.238281 256.683594 975.09375 C 252.847656 974.953125 249.070312 974.804688 245.351562 974.648438 C 241.632812 974.492188 237.976562 974.332031 234.382812 974.164062 C 230.792969 974 227.265625 973.828125 223.808594 973.648438 C 220.351562 973.472656 216.964844 973.289062 213.652344 973.101562 C 210.335938 972.914062 207.097656 972.722656 203.933594 972.527344 C 200.773438 972.328125 197.6875 972.125 194.683594 971.917969 C 191.679688 971.710938 188.761719 971.5 185.921875 971.285156 C 183.085938 971.070312 180.335938 970.847656 177.671875 970.625 C 175.003906 970.402344 172.429688 970.171875 169.945312 969.941406 C 167.460938 969.707031 165.070312 969.472656 162.769531 969.234375 C 160.46875 968.992188 158.265625 968.75 156.15625 968.503906 C 154.046875 968.257812 152.039062 968.007812 150.125 967.757812 C 148.214844 967.503906 146.402344 967.25 144.691406 966.992188 C 142.976562 966.734375 141.367188 966.472656 139.863281 966.210938 C 138.355469 965.945312 136.953125 965.679688 135.652344 965.414062 C 134.355469 965.148438 133.164062 964.878906 132.074219 964.605469 C 130.988281 964.335938 130.007812 964.0625 129.136719 963.789062 C 128.265625 963.515625 127.5 963.242188 126.84375 962.964844 C 126.1875 962.6875 125.640625 962.410156 125.203125 962.132812 C 124.761719 961.855469 124.433594 961.578125 124.214844 961.300781 C 123.996094 961.019531 123.886719 960.742188 123.886719 960.460938 C 123.886719 960.183594 123.996094 959.902344 124.214844 959.625 C 124.433594 959.34375 124.761719 959.066406 125.203125 958.789062 C 125.640625 958.511719 126.1875 958.234375 126.84375 957.957031 C 127.5 957.683594 128.265625 957.40625 129.136719 957.132812 C 130.007812 956.859375 130.988281 956.585938 132.074219 956.316406 C 133.164062 956.046875 134.355469 955.777344 135.652344 955.507812 C 136.953125 955.242188 138.355469 954.976562 139.863281 954.714844 C 141.367188 954.449219 142.976562 954.191406 144.691406 953.933594 C 146.402344 953.675781 148.214844 953.417969 150.125 953.167969 C 152.039062 952.914062 154.046875 952.664062 156.15625 952.417969 C 158.265625 952.171875 160.46875 951.929688 162.769531 951.691406 C 165.070312 951.449219 167.460938 951.214844 169.945312 950.984375 C 172.429688 950.75 175.003906 950.523438 177.671875 950.296875 C 180.335938 950.074219 183.085938 949.855469 185.921875 949.636719 C 188.761719 949.421875 191.679688 949.210938 194.683594 949.003906 C 197.6875 948.796875 200.773438 948.59375 203.933594 948.398438 C 207.097656 948.199219 210.335938 948.007812 213.652344 947.820312 C 216.964844 947.632812 220.351562 947.449219 223.808594 947.273438 C 227.265625 947.097656 230.792969 946.925781 234.382812 946.757812 C 237.976562 946.589844 241.632812 946.429688 245.351562 946.277344 C 249.070312 946.121094 252.847656 945.972656 256.683594 945.828125 C 260.519531 945.683594 264.410156 945.546875 268.355469 945.414062 C 272.300781 945.285156 276.296875 945.15625 280.339844 945.039062 C 284.382812 944.917969 288.46875 944.804688 292.601562 944.699219 C 296.734375 944.59375 300.90625 944.492188 305.117188 944.398438 C 309.328125 944.304688 313.574219 944.214844 317.855469 944.136719 C 322.136719 944.054688 326.445312 943.980469 330.785156 943.910156 C 335.125 943.84375 339.484375 943.78125 343.875 943.726562 C 348.261719 943.671875 352.664062 943.625 357.089844 943.585938 C 361.515625 943.542969 365.953125 943.511719 370.402344 943.484375 C 374.855469 943.457031 379.316406 943.433594 383.78125 943.421875 C 388.25 943.40625 392.71875 943.398438 397.191406 943.398438 C 401.664062 943.398438 406.136719 943.40625 410.601562 943.421875 C 415.070312 943.433594 419.53125 943.457031 423.980469 943.484375 C 428.433594 943.511719 432.871094 943.542969 437.296875 943.585938 C 441.71875 943.625 446.125 943.671875 450.511719 943.726562 C 454.898438 943.78125 459.261719 943.84375 463.601562 943.910156 C 467.941406 943.980469 472.25 944.054688 476.53125 944.136719 C 480.808594 944.214844 485.054688 944.304688 489.265625 944.398438 C 493.480469 944.492188 497.652344 944.59375 501.78125 944.699219 C 505.914062 944.804688 510.003906 944.917969 514.046875 945.039062 C 518.089844 945.15625 522.085938 945.285156 526.027344 945.414062 C 529.972656 945.546875 533.863281 945.683594 537.699219 945.828125 C 541.539062 945.972656 545.316406 946.121094 549.035156 946.277344 C 552.753906 946.429688 556.410156 946.589844 560 946.757812 C 563.59375 946.925781 567.121094 947.097656 570.578125 947.273438 C 574.035156 947.449219 577.421875 947.632812 580.734375 947.820312 C 584.050781 948.007812 587.289062 948.199219 590.449219 948.398438 C 593.613281 948.59375 596.695312 948.796875 599.699219 949.003906 C 602.703125 949.210938 605.625 949.421875 608.460938 949.636719 C 611.300781 949.855469 614.050781 950.074219 616.714844 950.296875 C 619.378906 950.523438 621.953125 950.75 624.441406 950.984375 C 626.925781 951.214844 629.316406 951.449219 631.617188 951.691406 C 633.914062 951.929688 636.121094 952.171875 638.226562 952.417969 C 640.335938 952.664062 642.347656 952.914062 644.257812 953.167969 C 646.171875 953.417969 647.984375 953.675781 649.695312 953.933594 C 651.40625 954.191406 653.015625 954.449219 654.523438 954.714844 C 656.03125 954.976562 657.433594 955.242188 658.730469 955.507812 C 660.03125 955.777344 661.222656 956.046875 662.308594 956.316406 C 663.394531 956.585938 664.375 956.859375 665.25 957.132812 C 666.121094 957.40625 666.886719 957.683594 667.542969 957.957031 C 668.199219 958.234375 668.746094 958.511719 669.183594 958.789062 C 669.621094 959.066406 669.953125 959.34375 670.171875 959.625 C 670.390625 959.902344 670.5 960.183594 670.5 960.460938 Z M 670.5 960.460938 " fill-opacity="0.15" fill-rule="nonzero"/></g><path fill="#ffd05b" d="M 600.660156 745.914062 L 248.53125 745.914062 L 248.53125 952.316406 L 601.101562 952.316406 L 601.101562 745.914062 Z M 600.660156 745.914062 " fill-opacity="1" fill-rule="nonzero"/><path fill="#f9b54c" d="M 458.113281 853.773438 L 457.671875 853.320312 L 424.808594 878.1875 L 392.390625 853.773438 L 391.949219 853.320312 L 247.191406 952.316406 L 602.429688 952.316406 Z M 458.113281 853.773438 " fill-opacity="1" fill-rule="nonzero"/><path fill="#f9b54c" d="M 425.253906 599.875 L 424.808594 599.875 L 248.089844 745.914062 L 424.367188 879.511719 L 424.808594 879.511719 L 601.101562 746.355469 L 601.542969 745.914062 Z M 425.253906 599.875 " fill-opacity="1" fill-rule="nonzero"/><path fill="#ffffff" d="M 494.980469 634.503906 L 304.03125 634.503906 L 304.03125 788.082031 L 424.367188 879.511719 L 424.808594 879.511719 L 545.148438 788.523438 L 545.589844 788.082031 L 545.589844 681.542969 Z M 494.980469 634.503906 " fill-opacity="1" fill-rule="nonzero"/><path fill="#acb3ba" d="M 494.980469 681.542969 L 545.589844 681.542969 L 494.980469 634.503906 Z M 494.980469 681.542969 " fill-opacity="1" fill-rule="nonzero"/><path fill="#ced5e0" d="M 450.128906 697.976562 L 520.285156 697.976562 L 520.285156 706.851562 L 450.128906 706.851562 Z M 450.128906 697.976562 " fill-opacity="1" fill-rule="nonzero"/><path fill="#ced5e0" d="M 450.128906 727.273438 L 520.285156 727.273438 L 520.285156 736.152344 L 450.128906 736.152344 Z M 450.128906 727.273438 " fill-opacity="1" fill-rule="nonzero"/><path fill="#ced5e0" d="M 325.785156 756.117188 L 520.285156 756.117188 L 520.285156 764.996094 L 325.785156 764.996094 Z M 325.785156 756.117188 " fill-opacity="1" fill-rule="nonzero"/><path fill="#ced5e0" d="M 325.785156 784.972656 L 520.285156 784.972656 L 520.285156 793.851562 L 325.785156 793.851562 Z M 325.785156 784.972656 " fill-opacity="1" fill-rule="nonzero"/><path fill="#ced5e0" d="M 325.671875 698.101562 L 431.910156 698.101562 L 431.910156 739.625 L 325.671875 739.625 Z M 325.671875 698.101562 " fill-opacity="1" fill-rule="nonzero"/><path fill="#eda27c" d="M 189.339844 837.699219 L 189.339844 831.597656 L 197.363281 829.046875 L 197.363281 837.699219 Z M 189.339844 837.699219 " fill-opacity="1" fill-rule="nonzero"/><path fill="#333333" d="M 182.9375 877.113281 L 186.144531 909.152344 L 172.03125 957.859375 L 177.492188 957.859375 L 198.792969 914.214844 C 200.1875 911.488281 200.789062 908.597656 200.597656 905.539062 L 199.601562 889.628906 Z M 182.9375 877.113281 " fill-opacity="1" fill-rule="nonzero"/><path fill="#4d4d4d" d="M 182.9375 877.113281 C 182.9375 877.113281 188.382812 895.4375 202.492188 907.875 L 200.246094 957.859375 L 205.703125 957.859375 L 215.242188 916.804688 C 215.929688 913.84375 215.875 910.898438 215.078125 907.964844 L 206.664062 877.125 Z M 182.9375 877.113281 " fill-opacity="1" fill-rule="nonzero"/><path fill="#4c78ff" d="M 182.9375 877.113281 C 182.9375 877.113281 180.738281 846.019531 186.460938 839.289062 C 192.183594 832.558594 201.847656 836.082031 210.832031 833.554688 L 216.59375 843.167969 L 206.332031 846.957031 L 206.664062 877.085938 Z M 182.9375 877.113281 " fill-opacity="1" fill-rule="nonzero"/><path fill="#f7c4a3" d="M 203.453125 834.589844 L 204.730469 814.941406 L 208.265625 813.667969 L 208.921875 833.984375 Z M 203.453125 834.589844 " fill-opacity="1" fill-rule="nonzero"/><path fill="#22b573" d="M 196.238281 815.699219 L 223.691406 797.640625 C 223.691406 797.640625 223.046875 805.003906 227.847656 806.933594 L 197.046875 817.304688 C 196.863281 817.359375 196.683594 817.359375 196.5 817.304688 C 196.316406 817.246094 196.167969 817.140625 196.050781 816.988281 C 195.972656 816.890625 195.917969 816.785156 195.882812 816.664062 C 195.851562 816.546875 195.84375 816.425781 195.863281 816.300781 C 195.878906 816.179688 195.921875 816.066406 195.988281 815.960938 C 196.054688 815.855469 196.136719 815.769531 196.238281 815.699219 Z M 196.238281 815.699219 " fill-opacity="1" fill-rule="nonzero"/><path fill="#006837" d="M 223.691406 797.640625 C 223.589844 798.574219 223.609375 799.507812 223.742188 800.441406 C 223.878906 801.371094 224.128906 802.269531 224.492188 803.140625 C 224.855469 804.007812 225.320312 804.816406 225.890625 805.566406 C 226.457031 806.316406 227.109375 806.980469 227.847656 807.566406 C 227.847656 807.566406 229.742188 799.558594 223.691406 797.640625 Z M 223.691406 797.640625 " fill-opacity="1" fill-rule="nonzero"/><path fill="#f8c4a3" d="M 204.046875 810.546875 C 204.046875 810.546875 204.730469 811.417969 207.292969 810.457031 C 207.625 810.382812 207.921875 810.242188 208.191406 810.035156 C 208.460938 809.828125 208.671875 809.574219 208.828125 809.273438 C 208.984375 808.976562 209.074219 808.65625 209.089844 808.316406 C 209.105469 807.980469 209.050781 807.652344 208.921875 807.339844 C 208.921875 807.339844 204.96875 805.835938 204.046875 810.546875 Z M 204.046875 810.546875 " fill-opacity="1" fill-rule="nonzero"/><path fill="#f7c4a3" d="M 199.601562 828.402344 C 199.601562 828.402344 196.402344 834.164062 188.066406 831.28125 C 179.726562 828.402344 187.75 814.941406 193.839844 815.585938 C 193.839844 815.585938 199.929688 821.988281 199.601562 828.402344 Z M 199.601562 828.402344 " fill-opacity="1" fill-rule="nonzero"/><path fill="#f7c4a3" d="M 199.601562 828.402344 C 198.96875 831.925781 191.589844 834.492188 186.460938 830.324219 C 181.332031 826.15625 182.9375 815.585938 185.816406 815.257812 " fill-opacity="1" fill-rule="nonzero"/><path fill="#333333" d="M 192.550781 832.570312 C 192.550781 832.570312 176.847656 831.613281 180.371094 822.632812 C 180.371094 822.632812 177.492188 815.257812 186.144531 811.734375 C 194.800781 808.210938 195.441406 813.667969 195.441406 813.667969 C 195.441406 813.667969 194.179688 819.425781 189.984375 819.753906 L 193.03125 824.070312 C 193.03125 824.070312 188.859375 822.46875 188.546875 824.714844 C 188.230469 826.964844 192.550781 832.570312 192.550781 832.570312 Z M 192.550781 832.570312 " fill-opacity="1" fill-rule="nonzero"/><path fill="#1a1a1a" d="M 200.246094 957.859375 L 199.308594 960.839844 C 199.234375 961.09375 199.21875 961.347656 199.261719 961.605469 C 199.308594 961.867188 199.410156 962.101562 199.566406 962.3125 C 199.722656 962.523438 199.917969 962.691406 200.152344 962.808594 C 200.390625 962.925781 200.636719 962.988281 200.902344 962.988281 L 214.671875 962.988281 C 214.671875 962.988281 214.988281 960.460938 211.792969 959.78125 C 209.699219 959.34375 207.667969 958.703125 205.703125 957.859375 Z M 200.246094 957.859375 " fill-opacity="1" fill-rule="nonzero"/><path fill="#1a1a1a" d="M 172.03125 957.859375 L 171.109375 960.839844 C 171.070312 960.964844 171.046875 961.089844 171.035156 961.222656 C 171.027344 961.351562 171.03125 961.480469 171.050781 961.609375 C 171.074219 961.738281 171.109375 961.859375 171.160156 961.980469 C 171.210938 962.101562 171.273438 962.214844 171.351562 962.316406 C 171.425781 962.421875 171.515625 962.519531 171.613281 962.601562 C 171.714844 962.683594 171.824219 962.757812 171.9375 962.8125 C 172.054688 962.871094 172.175781 962.917969 172.304688 962.945312 C 172.429688 962.976562 172.558594 962.988281 172.691406 962.988281 L 186.460938 962.988281 C 186.460938 962.988281 186.777344 960.460938 183.582031 959.78125 C 181.484375 959.34375 179.457031 958.703125 177.492188 957.859375 Z M 172.03125 957.859375 " fill-opacity="1" fill-rule="nonzero"/><path fill="#f7c4a3" d="M 210.832031 833.554688 L 217.882812 831.03125 L 216.921875 813.351562 C 216.921875 813.351562 214.988281 808.222656 214.394531 805.660156 C 213.800781 803.097656 220.484375 804.398438 220.800781 806.621094 C 220.972656 809.183594 220.972656 811.746094 220.800781 814.308594 L 223.894531 831.863281 C 224.011719 832.484375 224.03125 833.109375 223.949219 833.734375 C 223.863281 834.359375 223.683594 834.957031 223.410156 835.527344 C 223.132812 836.09375 222.777344 836.605469 222.335938 837.058594 C 221.898438 837.511719 221.398438 837.886719 220.835938 838.179688 L 215.40625 841.03125 Z M 210.832031 833.554688 " fill-opacity="1" fill-rule="nonzero"/><path fill="#3a8f89" d="M 600.292969 826.8125 C 611.5625 815.332031 619.953125 829.90625 618.777344 844.492188 C 617.601562 859.078125 604.375 911.246094 608.417969 928.976562 C 608.667969 930.035156 608.863281 931.105469 609 932.1875 L 606.585938 932.1875 C 606.382812 931.871094 606.167969 931.53125 605.953125 931.152344 C 593.21875 909.441406 584.78125 842.597656 600.292969 826.8125 Z M 600.292969 826.8125 " fill-opacity="1" fill-rule="evenodd"/><path fill="#00514e" d="M 606.964844 932.222656 C 592.652344 891.558594 607.925781 829.628906 607.976562 829.425781 C 608.023438 829.253906 608.121094 829.125 608.273438 829.03125 C 608.421875 828.9375 608.585938 828.910156 608.757812 828.945312 C 608.933594 828.988281 609.070312 829.085938 609.164062 829.238281 C 609.257812 829.390625 609.28125 829.554688 609.238281 829.730469 C 609.238281 829.933594 593.863281 892 608.328125 932.222656 Z M 606.964844 932.222656 " fill-opacity="1" fill-rule="evenodd"/><path fill="#49af91" d="M 628.101562 852.082031 C 639.976562 845.769531 642.972656 859.519531 638.335938 870.875 C 634.015625 881.46875 613.066406 915.429688 609.277344 932.222656 L 605.488281 932.222656 C 602.921875 909.101562 612.8125 860.175781 628.101562 852.082031 Z M 628.101562 852.082031 " fill-opacity="1" fill-rule="evenodd"/><path fill="#00514e" d="M 606.800781 932.222656 C 608.367188 897.269531 633.46875 856.25 633.558594 856.109375 C 633.644531 856.003906 633.753906 855.941406 633.886719 855.917969 C 634.023438 855.890625 634.148438 855.914062 634.261719 855.984375 C 634.378906 856.054688 634.457031 856.15625 634.5 856.285156 C 634.542969 856.414062 634.535156 856.542969 634.480469 856.667969 C 634.394531 856.804688 609.429688 897.609375 607.875 932.222656 Z M 606.800781 932.222656 " fill-opacity="1" fill-rule="evenodd"/><path fill="#49af91" d="M 577.90625 867.945312 C 566.398438 862.894531 564.578125 875.914062 569.683594 886.167969 C 573.636719 894.097656 589.339844 916.136719 597.300781 932.222656 L 604.324219 932.222656 C 602.289062 908.988281 590.917969 873.628906 577.90625 867.945312 Z M 577.90625 867.945312 " fill-opacity="1" fill-rule="evenodd"/><path fill="#00514e" d="M 601.808594 932.222656 C 594.914062 902.34375 573.183594 872.199219 573.105469 872.085938 C 573.03125 871.957031 572.921875 871.875 572.777344 871.84375 C 572.632812 871.8125 572.496094 871.839844 572.375 871.925781 C 572.253906 872.011719 572.183594 872.128906 572.164062 872.277344 C 572.148438 872.425781 572.1875 872.554688 572.285156 872.667969 C 572.359375 872.78125 593.902344 902.660156 600.785156 932.222656 Z M 601.808594 932.222656 " fill-opacity="1" fill-rule="evenodd"/><path fill="#666666" d="M 576.582031 920.351562 L 587.191406 961.042969 L 619.511719 961.042969 L 629.289062 920.351562 Z M 576.582031 920.351562 " fill-opacity="1" fill-rule="nonzero"/><path fill="#333333" d="M 629.894531 921.957031 L 575.570312 921.957031 C 575.34375 921.976562 575.125 921.949219 574.914062 921.878906 C 574.699219 921.808594 574.511719 921.695312 574.34375 921.542969 C 574.179688 921.390625 574.050781 921.210938 573.960938 921.007812 C 573.867188 920.800781 573.824219 920.585938 573.824219 920.359375 C 573.824219 920.132812 573.867188 919.917969 573.960938 919.714844 C 574.050781 919.507812 574.179688 919.328125 574.34375 919.175781 C 574.511719 919.023438 574.699219 918.914062 574.914062 918.839844 C 575.125 918.769531 575.34375 918.742188 575.570312 918.761719 L 629.894531 918.761719 C 630.09375 918.78125 630.285156 918.832031 630.464844 918.921875 C 630.644531 919.011719 630.800781 919.128906 630.9375 919.277344 C 631.070312 919.425781 631.175781 919.59375 631.25 919.777344 C 631.320312 919.964844 631.355469 920.160156 631.355469 920.359375 C 631.355469 920.558594 631.320312 920.753906 631.25 920.941406 C 631.175781 921.125 631.070312 921.292969 630.9375 921.441406 C 630.800781 921.589844 630.644531 921.707031 630.464844 921.796875 C 630.285156 921.886719 630.09375 921.9375 629.894531 921.957031 Z M 629.894531 921.957031 " fill-opacity="1" fill-rule="nonzero"/><path fill="#00de91" d="M 225.980469 958.582031 C 225.980469 958.582031 231.574219 943.035156 247.746094 949.246094 C 247.746094 949.246094 250.867188 924.710938 272.914062 921.464844 C 294.960938 918.21875 304.335938 939.308594 304.335938 939.308594 C 304.335938 939.308594 310.550781 931.226562 320.492188 934.332031 C 330.4375 937.441406 330.371094 944.4375 330.371094 944.4375 C 330.371094 944.4375 334.871094 938.246094 345.632812 941.34375 C 356.398438 944.4375 354.707031 952.949219 354.707031 952.949219 C 354.707031 952.949219 377.078125 945.484375 382.058594 958.542969 Z M 225.980469 958.582031 " fill-opacity="1" fill-rule="nonzero"/><path fill="#00b272" d="M 453.878906 968.921875 C 453.878906 968.921875 448.484375 953.957031 432.921875 959.945312 C 432.921875 959.945312 436.523438 915.074219 406.578125 913.21875 C 376.636719 911.363281 378.457031 950.371094 378.457031 950.371094 C 378.457031 950.371094 372.46875 942.59375 362.890625 945.585938 C 353.316406 948.578125 354.503906 960.550781 354.503906 960.550781 C 354.503906 960.550781 343.320312 947.390625 333.027344 950.371094 C 322.730469 953.351562 330.03125 963.53125 330.03125 963.53125 C 330.03125 963.53125 308.476562 956.359375 303.691406 968.921875 Z M 453.878906 968.921875 " fill-opacity="1" fill-rule="nonzero"/><path fill="#5c546a" d="M 640.40625 608.347656 L 649.679688 598.246094 L 647.683594 593.066406 C 647.683594 593.066406 641.71875 593.914062 641.554688 594.417969 C 641.390625 594.925781 640.875 601.644531 640.796875 602.816406 C 640.722656 603.992188 640.40625 608.335938 640.40625 608.335938 " fill-opacity="1" fill-rule="nonzero"/><g clip-path="url(#fe60dbf4be)"><path fill="#b9bbc1" d="M 685.835938 557.507812 C 685.699219 557.359375 685.527344 557.265625 685.332031 557.21875 C 685.136719 557.171875 684.941406 557.183594 684.75 557.253906 L 622.199219 580.453125 C 622.007812 580.523438 621.851562 580.640625 621.730469 580.804688 C 621.609375 580.972656 621.542969 581.15625 621.535156 581.363281 C 621.527344 581.566406 621.578125 581.757812 621.683594 581.929688 C 621.792969 582.105469 621.9375 582.234375 622.125 582.320312 L 633.382812 587.511719 C 633.820312 587.714844 634.1875 588.003906 634.484375 588.382812 C 634.785156 588.761719 634.980469 589.1875 635.074219 589.660156 L 638.714844 607.820312 C 638.753906 608.027344 638.851562 608.203125 639.003906 608.351562 C 639.15625 608.5 639.339844 608.589844 639.546875 608.625 C 639.757812 608.652344 639.960938 608.617188 640.152344 608.519531 C 640.34375 608.421875 640.492188 608.28125 640.597656 608.097656 L 646.332031 597.449219 C 646.488281 597.148438 646.738281 596.972656 647.078125 596.933594 C 647.417969 596.882812 647.710938 596.984375 647.949219 597.234375 L 662.175781 612.390625 C 662.371094 612.601562 662.617188 612.707031 662.90625 612.707031 L 663.085938 612.707031 C 663.445312 612.636719 663.695312 612.4375 663.84375 612.101562 L 686.089844 558.59375 C 686.160156 558.402344 686.171875 558.207031 686.128906 558.011719 C 686.082031 557.8125 685.984375 557.644531 685.835938 557.507812 Z M 685.835938 557.507812 " fill-opacity="1" fill-rule="nonzero"/></g><path fill="#8b8996" d="M 685.382812 557.242188 L 634.292969 588.207031 C 634.6875 588.617188 634.941406 589.101562 635.0625 589.660156 L 638.699219 607.820312 C 638.742188 608.027344 638.839844 608.203125 638.992188 608.347656 C 639.144531 608.496094 639.324219 608.582031 639.535156 608.613281 C 639.746094 608.644531 639.949219 608.613281 640.140625 608.519531 C 640.332031 608.425781 640.480469 608.285156 640.582031 608.097656 L 646.320312 597.449219 C 646.363281 597.386719 646.414062 597.328125 646.472656 597.273438 L 685.824219 557.492188 C 685.699219 557.371094 685.550781 557.289062 685.382812 557.242188 Z M 685.382812 557.242188 " fill-opacity="1" fill-rule="nonzero"/><path fill="#3c415e" d="M 237.109375 796.808594 L 239.21875 795.175781 C 238.308594 794.007812 237.414062 792.820312 236.527344 791.617188 L 234.378906 793.207031 C 235.28125 794.417969 236.191406 795.621094 237.109375 796.808594 Z M 237.109375 796.808594 " fill-opacity="1" fill-rule="evenodd"/><path fill="#3c415e" d="M 242.164062 803.121094 L 244.222656 801.417969 C 243.261719 800.28125 242.328125 799.117188 241.40625 797.957031 L 239.308594 799.621094 C 240.253906 800.796875 241.203125 801.984375 242.164062 803.121094 Z M 242.164062 803.121094 " fill-opacity="1" fill-rule="evenodd"/><path fill="#3c415e" d="M 247.46875 809.222656 L 249.441406 807.414062 C 248.441406 806.328125 247.457031 805.21875 246.484375 804.09375 L 244.460938 805.835938 C 245.449219 807.035156 246.433594 808.109375 247.46875 809.222656 Z M 247.46875 809.222656 " fill-opacity="1" fill-rule="evenodd"/><path fill="#3c415e" d="M 223.289062 776.816406 L 225.5625 775.425781 L 224.398438 773.519531 L 223.277344 771.601562 L 220.964844 772.949219 L 222.113281 774.894531 Z M 223.289062 776.816406 " fill-opacity="1" fill-rule="evenodd"/><path fill="#3c415e" d="M 227.648438 783.636719 L 229.871094 782.15625 C 229.453125 781.539062 229.050781 780.894531 228.605469 780.300781 L 227.34375 778.417969 L 225.09375 779.859375 L 226.359375 781.753906 C 226.8125 782.386719 227.230469 783.042969 227.648438 783.636719 Z M 227.648438 783.636719 " fill-opacity="1" fill-rule="evenodd"/><path fill="#3c415e" d="M 232.234375 790.277344 L 234.40625 788.710938 C 233.546875 787.449219 232.675781 786.300781 231.878906 785.0625 L 229.679688 786.578125 C 230.488281 787.828125 231.359375 789.054688 232.234375 790.277344 Z M 232.234375 790.277344 " fill-opacity="1" fill-rule="evenodd"/><path fill="#3c415e" d="M 211.855469 755.371094 L 214.28125 754.273438 L 213.371094 752.238281 L 212.511719 750.195312 L 210.046875 751.230469 L 210.917969 753.300781 Z M 211.855469 755.371094 " fill-opacity="1" fill-rule="evenodd"/><path fill="#3c415e" d="M 215.339844 762.671875 L 217.730469 761.410156 C 217.074219 760.070312 216.390625 758.757812 215.769531 757.40625 L 213.359375 758.554688 C 213.988281 759.980469 214.683594 761.320312 215.339844 762.671875 Z M 215.339844 762.671875 " fill-opacity="1" fill-rule="evenodd"/><path fill="#3c415e" d="M 219.15625 769.792969 L 221.480469 768.53125 C 221.113281 767.886719 220.761719 767.269531 220.40625 766.585938 L 219.347656 764.628906 L 216.984375 765.890625 L 218.058594 767.875 C 218.425781 768.480469 218.777344 769.148438 219.15625 769.792969 Z M 219.15625 769.792969 " fill-opacity="1" fill-rule="evenodd"/><path fill="#3c415e" d="M 203.59375 732.527344 L 206.117188 731.84375 L 205.574219 729.699219 C 205.410156 728.976562 205.210938 728.257812 205.070312 727.539062 L 202.453125 728.132812 C 202.605469 728.863281 202.808594 729.597656 202.984375 730.328125 Z M 203.59375 732.527344 " fill-opacity="1" fill-rule="evenodd"/><path fill="#3c415e" d="M 205.917969 740.242188 L 208.445312 739.410156 C 208.191406 738.714844 207.988281 738.007812 207.761719 737.300781 L 207.105469 735.179688 L 204.578125 735.9375 L 205.246094 738.097656 C 205.449219 738.839844 205.664062 739.535156 205.917969 740.242188 Z M 205.917969 740.242188 " fill-opacity="1" fill-rule="evenodd"/><path fill="#3c415e" d="M 208.671875 747.84375 L 211.199219 746.871094 C 210.640625 745.496094 210.148438 744.105469 209.632812 742.71875 L 207.105469 743.613281 C 207.597656 745.027344 208.101562 746.417969 208.671875 747.84375 Z M 208.671875 747.84375 " fill-opacity="1" fill-rule="evenodd"/><path fill="#3c415e" d="M 199.851562 708.40625 L 202.519531 708.292969 L 202.441406 706.09375 L 202.453125 703.886719 L 199.777344 703.859375 L 199.777344 706.132812 Z M 199.851562 708.40625 " fill-opacity="1" fill-rule="evenodd"/><path fill="#3c415e" d="M 200.496094 716.5 L 203.148438 716.183594 L 202.898438 713.988281 C 202.808594 713.253906 202.785156 712.523438 202.71875 711.789062 L 200.054688 711.992188 C 200.117188 712.75 200.15625 713.507812 200.246094 714.253906 Z M 200.496094 716.5 " fill-opacity="1" fill-rule="evenodd"/><path fill="#3c415e" d="M 201.761719 724.507812 L 204.375 723.988281 L 203.984375 721.816406 C 203.984375 721.453125 203.84375 721.097656 203.78125 720.730469 L 203.617188 719.632812 L 200.976562 720.035156 L 201.152344 721.160156 C 201.152344 721.539062 201.28125 721.90625 201.34375 722.273438 Z M 201.761719 724.507812 " fill-opacity="1" fill-rule="evenodd"/><path fill="#3c415e" d="M 202.164062 684.121094 L 204.765625 684.753906 L 205.007812 683.679688 L 205.308594 682.617188 L 205.902344 680.496094 L 203.351562 679.738281 L 202.734375 681.921875 L 202.429688 683.007812 Z M 202.164062 684.121094 " fill-opacity="1" fill-rule="evenodd"/><path fill="#3c415e" d="M 200.648438 692.113281 L 203.289062 692.480469 C 203.453125 691.027344 203.769531 689.589844 204.007812 688.148438 L 201.394531 687.632812 C 201.128906 689.132812 200.8125 690.625 200.648438 692.113281 Z M 200.648438 692.113281 " fill-opacity="1" fill-rule="evenodd"/><path fill="#3c415e" d="M 199.890625 700.210938 L 202.554688 700.335938 L 202.605469 699.238281 L 202.632812 698.683594 L 202.683594 698.140625 L 202.871094 695.941406 L 200.21875 695.675781 L 200.015625 697.9375 L 199.964844 698.503906 L 199.941406 699.074219 Z M 199.890625 700.210938 " fill-opacity="1" fill-rule="evenodd"/><path fill="#3c415e" d="M 211.296875 661.503906 L 213.585938 662.839844 L 214.128906 661.894531 C 214.316406 661.578125 214.496094 661.25 214.695312 660.949219 L 215.898438 659.089844 L 213.648438 657.640625 L 212.386719 659.546875 C 212.171875 659.863281 211.992188 660.191406 211.804688 660.519531 Z M 211.296875 661.503906 " fill-opacity="1" fill-rule="evenodd"/><path fill="#3c415e" d="M 207.535156 668.726562 L 209.960938 669.851562 L 210.414062 668.839844 C 210.566406 668.511719 210.742188 668.183594 210.90625 667.855469 L 211.90625 665.898438 L 209.542969 664.636719 L 208.53125 666.679688 C 208.367188 667.007812 208.179688 667.351562 208.027344 667.691406 Z M 207.535156 668.726562 " fill-opacity="1" fill-rule="evenodd"/><path fill="#3c415e" d="M 204.488281 676.253906 L 207.003906 677.125 L 207.355469 676.089844 L 207.761719 675.066406 L 208.570312 673.019531 L 206.09375 671.996094 L 205.261719 674.121094 L 204.84375 675.179688 Z M 204.488281 676.253906 " fill-opacity="1" fill-rule="evenodd"/><path fill="#3c415e" d="M 226.144531 642.167969 L 228.050781 644.039062 L 228.820312 643.230469 L 229.617188 642.472656 L 231.210938 640.929688 L 229.378906 639 L 227.746094 640.566406 L 226.925781 641.347656 Z M 226.144531 642.167969 " fill-opacity="1" fill-rule="evenodd"/><path fill="#3c415e" d="M 220.6875 648.191406 L 222.730469 649.910156 C 223.707031 648.796875 224.652344 647.675781 225.636719 646.574219 L 223.691406 644.769531 C 222.65625 645.894531 221.683594 647.054688 220.6875 648.191406 Z M 220.6875 648.191406 " fill-opacity="1" fill-rule="evenodd"/><path fill="#3c415e" d="M 215.734375 654.609375 L 217.917969 656.160156 L 219.183594 654.355469 C 219.398438 654.050781 219.625 653.773438 219.851562 653.484375 L 220.535156 652.613281 L 218.4375 650.972656 L 217.730469 651.867188 C 217.488281 652.15625 217.261719 652.460938 217.046875 652.765625 Z M 215.734375 654.609375 " fill-opacity="1" fill-rule="evenodd"/><path fill="#3c415e" d="M 244.765625 626.445312 L 246.28125 628.644531 C 246.886719 628.226562 247.546875 627.808594 248.101562 627.378906 C 248.65625 626.949219 249.363281 626.585938 249.957031 626.21875 L 248.582031 623.933594 C 247.925781 624.324219 247.316406 624.742188 246.648438 625.195312 C 245.980469 625.648438 245.386719 626.027344 244.765625 626.445312 Z M 244.765625 626.445312 " fill-opacity="1" fill-rule="evenodd"/><path fill="#3c415e" d="M 238.246094 631.308594 L 239.902344 633.40625 C 240.46875 632.925781 241.078125 632.496094 241.65625 632.054688 L 243.4375 630.714844 L 241.847656 628.566406 L 240.039062 629.929688 C 239.433594 630.386719 238.851562 630.828125 238.246094 631.308594 Z M 238.246094 631.308594 " fill-opacity="1" fill-rule="evenodd"/><path fill="#3c415e" d="M 232.070312 636.523438 L 233.835938 638.519531 L 235.503906 637.042969 L 236.339844 636.308594 L 237.199219 635.613281 L 235.480469 633.554688 L 234.609375 634.277344 L 233.761719 635.019531 Z M 232.070312 636.523438 " fill-opacity="1" fill-rule="evenodd"/><path fill="#3c415e" d="M 266.914062 616.191406 L 267.59375 618.78125 L 268.644531 618.503906 L 269.71875 618.261719 C 270.4375 618.109375 271.144531 617.933594 271.867188 617.808594 L 271.359375 615.195312 C 270.613281 615.320312 269.867188 615.496094 269.136719 615.660156 L 268.023438 615.902344 Z M 266.914062 616.191406 " fill-opacity="1" fill-rule="evenodd"/><path fill="#3c415e" d="M 259.15625 618.730469 L 260.128906 621.253906 C 260.8125 620.992188 261.480469 620.710938 262.175781 620.484375 C 262.871094 620.257812 263.550781 619.992188 264.246094 619.777344 L 263.4375 617.253906 C 262.71875 617.46875 262 617.730469 261.277344 617.984375 C 260.558594 618.238281 259.863281 618.453125 259.15625 618.730469 Z M 259.15625 618.730469 " fill-opacity="1" fill-rule="evenodd"/><path fill="#3c415e" d="M 251.765625 622.164062 L 253.027344 624.515625 C 254.292969 623.804688 255.554688 623.25 256.945312 622.554688 L 255.832031 620.132812 C 254.46875 620.777344 253.105469 621.394531 251.765625 622.164062 Z M 251.765625 622.164062 " fill-opacity="1" fill-rule="evenodd"/><path fill="#3c415e" d="M 291.234375 614.070312 L 291.054688 616.734375 L 293.253906 616.910156 C 294 616.910156 294.71875 617.0625 295.453125 617.136719 L 295.757812 614.488281 C 295.011719 614.410156 294.253906 614.308594 293.496094 614.257812 Z M 291.234375 614.070312 " fill-opacity="1" fill-rule="evenodd"/><path fill="#3c415e" d="M 283.070312 613.917969 L 283.160156 616.59375 C 284.625 616.59375 286.089844 616.59375 287.554688 616.59375 L 287.621094 613.929688 C 286.117188 613.816406 284.601562 613.894531 283.070312 613.917969 Z M 283.070312 613.917969 " fill-opacity="1" fill-rule="evenodd"/><path fill="#3c415e" d="M 274.984375 614.601562 L 275.351562 617.238281 C 276.074219 617.125 276.804688 617.0625 277.523438 616.972656 L 278.613281 616.859375 L 279.710938 616.773438 L 279.507812 614.121094 L 278.371094 614.195312 L 277.246094 614.324219 C 276.488281 614.410156 275.730469 614.472656 274.984375 614.601562 Z M 274.984375 614.601562 " fill-opacity="1" fill-rule="evenodd"/><path fill="#3c415e" d="M 315.222656 618.390625 L 314.503906 620.914062 C 315.933594 621.320312 317.359375 621.722656 318.773438 622.175781 L 319.558594 619.652344 C 318.117188 619.210938 316.664062 618.867188 315.222656 618.390625 Z M 315.222656 618.390625 " fill-opacity="1" fill-rule="evenodd"/><path fill="#3c415e" d="M 307.355469 616.429688 L 306.773438 619.03125 C 308.210938 619.359375 309.664062 619.691406 311.09375 620.054688 L 311.75 617.53125 C 310.285156 617.089844 308.820312 616.757812 307.355469 616.429688 Z M 307.355469 616.429688 " fill-opacity="1" fill-rule="evenodd"/><path fill="#3c415e" d="M 299.382812 614.953125 L 298.988281 617.605469 L 301.175781 617.960938 C 301.910156 618.074219 302.628906 618.226562 303.347656 618.351562 L 303.855469 615.738281 C 303.109375 615.597656 302.363281 615.445312 301.617188 615.332031 Z M 299.382812 614.953125 " fill-opacity="1" fill-rule="evenodd"/><path fill="#3c415e" d="M 338.191406 626.332031 L 337.195312 628.859375 C 338.570312 629.425781 339.960938 629.980469 341.339844 630.5625 L 342.363281 628.101562 Z M 338.191406 626.332031 " fill-opacity="1" fill-rule="evenodd"/><path fill="#3c415e" d="M 330.652344 623.425781 L 329.714844 625.953125 C 331.117188 626.457031 332.507812 627 333.898438 627.53125 L 334.871094 625.007812 C 333.46875 624.488281 332.066406 623.921875 330.652344 623.425781 Z M 330.652344 623.425781 " fill-opacity="1" fill-rule="evenodd"/><path fill="#3c415e" d="M 323.03125 620.761719 L 322.199219 623.289062 L 324.308594 623.996094 L 326.417969 624.726562 L 327.300781 622.203125 L 325.167969 621.46875 Z M 323.03125 620.761719 " fill-opacity="1" fill-rule="evenodd"/><path fill="#3c415e" d="M 360.429688 636.054688 L 359.304688 638.480469 L 363.371094 640.375 L 364.496094 637.949219 Z M 360.429688 636.054688 " fill-opacity="1" fill-rule="evenodd"/><path fill="#3c415e" d="M 353.074219 632.695312 L 351.988281 635.132812 L 356.070312 636.992188 L 357.179688 634.566406 Z M 353.074219 632.695312 " fill-opacity="1" fill-rule="evenodd"/><path fill="#3c415e" d="M 345.710938 629.464844 L 344.648438 631.914062 L 348.753906 633.707031 L 349.839844 631.257812 Z M 345.710938 629.464844 " fill-opacity="1" fill-rule="evenodd"/><path fill="#3c415e" d="M 381.175781 648.824219 L 382.324219 646.417969 L 386.382812 648.347656 L 385.238281 650.753906 Z M 381.175781 648.824219 " fill-opacity="1" fill-rule="nonzero"/><path fill="#3c415e" d="M 373.898438 645.371094 L 375.046875 642.964844 L 379.105469 644.898438 L 377.960938 647.304688 Z M 373.898438 645.371094 " fill-opacity="1" fill-rule="nonzero"/><path fill="#3c415e" d="M 367.78125 639.492188 L 366.644531 641.917969 L 370.699219 643.835938 L 371.847656 641.421875 Z M 367.78125 639.492188 " fill-opacity="1" fill-rule="evenodd"/><path fill="#3c415e" d="M 404.269531 656.601562 L 403.167969 659.039062 L 407.289062 660.859375 L 408.359375 658.421875 Z M 404.269531 656.601562 " fill-opacity="1" fill-rule="evenodd"/><path fill="#3c415e" d="M 396.941406 653.269531 L 395.816406 655.695312 L 399.910156 657.5625 L 401.019531 655.136719 Z M 396.941406 653.269531 " fill-opacity="1" fill-rule="evenodd"/><path fill="#3c415e" d="M 389.664062 649.882812 L 388.527344 652.296875 L 392.59375 654.203125 L 393.730469 651.777344 Z M 389.664062 649.882812 " fill-opacity="1" fill-rule="evenodd"/><path fill="#3c415e" d="M 426.554688 665.921875 L 425.59375 668.449219 C 426.996094 668.992188 428.410156 669.507812 429.824219 670.039062 L 430.75 667.515625 C 429.347656 666.984375 427.945312 666.464844 426.554688 665.921875 Z M 426.554688 665.921875 " fill-opacity="1" fill-rule="evenodd"/><path fill="#3c415e" d="M 419.074219 662.96875 L 418.0625 665.492188 C 419.453125 666.074219 420.855469 666.628906 422.257812 667.1875 L 423.230469 664.660156 C 421.839844 664.09375 420.464844 663.535156 419.074219 662.96875 Z M 419.074219 662.96875 " fill-opacity="1" fill-rule="evenodd"/><path fill="#3c415e" d="M 411.683594 659.863281 L 410.671875 662.3125 L 414.828125 664.078125 L 415.867188 661.554688 Z M 411.683594 659.863281 " fill-opacity="1" fill-rule="evenodd"/><path fill="#3c415e" d="M 449.410156 673.640625 L 448.675781 676.164062 C 450.140625 676.570312 451.582031 676.984375 453.046875 677.351562 L 453.730469 674.828125 C 452.289062 674.433594 450.847656 674.03125 449.410156 673.640625 Z M 449.410156 673.640625 " fill-opacity="1" fill-rule="evenodd"/><path fill="#3c415e" d="M 441.726562 671.304688 L 440.90625 673.828125 C 442.347656 674.296875 443.785156 674.738281 445.226562 675.179688 L 445.996094 672.652344 C 444.582031 672.199219 443.140625 671.757812 441.726562 671.304688 Z M 441.726562 671.304688 " fill-opacity="1" fill-rule="evenodd"/><path fill="#3c415e" d="M 434.148438 668.738281 L 433.25 671.265625 C 434.675781 671.757812 436.09375 672.261719 437.53125 672.742188 L 438.378906 670.21875 C 436.964844 669.722656 435.550781 669.21875 434.148438 668.738281 Z M 434.148438 668.738281 " fill-opacity="1" fill-rule="evenodd"/><path fill="#3c415e" d="M 472.917969 678.816406 L 472.527344 681.457031 L 474.777344 681.785156 C 475.523438 681.898438 476.28125 681.972656 477.027344 682.074219 L 477.355469 679.421875 L 475.144531 679.144531 Z M 472.917969 678.816406 " fill-opacity="1" fill-rule="evenodd"/><path fill="#3c415e" d="M 465 677.429688 L 464.46875 680.054688 L 466.691406 680.484375 L 468.925781 680.886719 L 469.382812 678.25 C 468.648438 678.136719 467.917969 677.984375 467.183594 677.855469 C 466.453125 677.730469 465.757812 677.59375 465 677.429688 Z M 465 677.429688 " fill-opacity="1" fill-rule="evenodd"/><path fill="#3c415e" d="M 457.230469 675.699219 L 456.597656 678.285156 L 458.796875 678.816406 L 461.007812 679.320312 L 461.585938 676.707031 L 459.402344 676.214844 Z M 457.230469 675.699219 " fill-opacity="1" fill-rule="evenodd"/><path fill="#3c415e" d="M 496.898438 680.523438 L 496.898438 683.1875 C 498.414062 683.1875 499.929688 683.109375 501.445312 683.046875 L 501.320312 680.382812 C 499.867188 680.433594 498.390625 680.523438 496.898438 680.523438 Z M 496.898438 680.523438 " fill-opacity="1" fill-rule="evenodd"/><path fill="#3c415e" d="M 488.890625 680.410156 L 488.773438 683.074219 C 490.292969 683.074219 491.808594 683.1875 493.324219 683.199219 L 493.324219 680.523438 C 491.871094 680.523438 490.378906 680.457031 488.890625 680.410156 Z M 488.890625 680.410156 " fill-opacity="1" fill-rule="evenodd"/><path fill="#3c415e" d="M 480.929688 679.828125 L 480.664062 682.480469 C 481.421875 682.566406 482.179688 682.632812 482.9375 682.695312 L 485.199219 682.871094 L 485.375 680.207031 L 483.152344 680.03125 Z M 480.929688 679.828125 " fill-opacity="1" fill-rule="evenodd"/><path fill="#3c415e" d="M 520.75 677.921875 L 521.292969 680.535156 C 522.054688 680.394531 522.785156 680.21875 523.53125 680.054688 L 525.742188 679.535156 L 525.109375 677.011719 L 522.9375 677.515625 C 522.21875 677.617188 521.484375 677.78125 520.75 677.921875 Z M 520.75 677.921875 " fill-opacity="1" fill-rule="evenodd"/><path fill="#3c415e" d="M 512.878906 679.296875 L 513.246094 681.9375 L 515.507812 681.609375 L 517.746094 681.230469 L 517.277344 678.589844 L 515.078125 678.96875 Z M 512.878906 679.296875 " fill-opacity="1" fill-rule="evenodd"/><path fill="#3c415e" d="M 504.945312 680.167969 L 505.148438 682.832031 L 507.421875 682.617188 L 508.558594 682.515625 L 509.683594 682.390625 L 509.394531 679.738281 L 508.28125 679.863281 L 507.171875 679.964844 Z M 504.945312 680.167969 " fill-opacity="1" fill-rule="evenodd"/><path fill="#3c415e" d="M 543.667969 670.796875 L 544.707031 673.261719 C 546.109375 672.691406 547.484375 672.0625 548.875 671.441406 L 547.761719 669.003906 C 546.398438 669.625 545.046875 670.242188 543.667969 670.796875 Z M 543.667969 670.796875 " fill-opacity="1" fill-rule="evenodd"/><path fill="#3c415e" d="M 536.203125 673.652344 L 537.074219 676.175781 L 539.222656 675.417969 L 541.34375 674.613281 L 540.382812 672.125 L 538.300781 672.917969 Z M 536.203125 673.652344 " fill-opacity="1" fill-rule="evenodd"/><path fill="#3c415e" d="M 528.585938 676.039062 L 529.304688 678.601562 L 531.492188 677.972656 L 532.589844 677.65625 L 533.664062 677.300781 L 532.867188 674.761719 L 531.804688 675.105469 L 530.730469 675.417969 Z M 528.585938 676.039062 " fill-opacity="1" fill-rule="evenodd"/><path fill="#3c415e" d="M 564.957031 659.648438 L 566.386719 661.894531 C 567.027344 661.503906 567.648438 661.085938 568.292969 660.632812 L 570.1875 659.367188 L 568.695312 657.160156 L 566.828125 658.421875 C 566.207031 658.851562 565.589844 659.28125 564.957031 659.648438 Z M 564.957031 659.648438 " fill-opacity="1" fill-rule="evenodd"/><path fill="#3c415e" d="M 558.070312 663.75 L 559.335938 666.085938 C 560.003906 665.722656 560.597656 665.34375 561.304688 664.949219 L 563.265625 663.800781 L 561.886719 661.515625 L 559.96875 662.640625 C 559.375 663.070312 558.730469 663.398438 558.070312 663.75 Z M 558.070312 663.75 " fill-opacity="1" fill-rule="evenodd"/><path fill="#3c415e" d="M 551.007812 667.464844 L 552.183594 669.863281 L 553.207031 669.371094 L 554.21875 668.851562 L 556.238281 667.804688 L 554.988281 665.441406 L 553.003906 666.464844 L 552.019531 666.984375 Z M 551.007812 667.464844 " fill-opacity="1" fill-rule="evenodd"/><path fill="#3c415e" d="M 584.300781 645.390625 L 586.03125 647.433594 C 587.179688 646.449219 588.34375 645.476562 589.453125 644.46875 L 587.6875 642.472656 C 586.585938 643.417969 585.4375 644.378906 584.300781 645.390625 Z M 584.300781 645.390625 " fill-opacity="1" fill-rule="evenodd"/><path fill="#3c415e" d="M 578.070312 650.441406 L 579.714844 652.550781 C 580.308594 652.09375 580.914062 651.640625 581.507812 651.160156 L 583.265625 649.734375 L 581.570312 647.660156 L 579.839844 649.078125 C 579.257812 649.492188 578.703125 649.933594 578.070312 650.441406 Z M 578.070312 650.441406 " fill-opacity="1" fill-rule="evenodd"/><path fill="#3c415e" d="M 571.652344 655.152344 L 573.195312 657.335938 L 574.128906 656.691406 L 575.039062 656.007812 L 576.871094 654.671875 L 575.277344 652.535156 L 573.472656 653.851562 L 572.574219 654.519531 Z M 571.652344 655.152344 " fill-opacity="1" fill-rule="evenodd"/><path fill="#3c415e" d="M 601.785156 628.757812 L 603.730469 630.601562 C 604.753906 629.503906 605.816406 628.414062 606.8125 627.292969 L 604.84375 625.484375 C 603.855469 626.609375 602.808594 627.707031 601.785156 628.757812 Z M 601.785156 628.757812 " fill-opacity="1" fill-rule="evenodd"/><path fill="#3c415e" d="M 596.164062 634.492188 L 598.046875 636.398438 C 598.589844 635.867188 599.121094 635.335938 599.648438 634.792969 L 601.230469 633.191406 L 599.320312 631.320312 L 597.753906 632.910156 C 597.238281 633.441406 596.707031 634.023438 596.164062 634.492188 Z M 596.164062 634.492188 " fill-opacity="1" fill-rule="evenodd"/><path fill="#3c415e" d="M 590.363281 640.007812 L 592.171875 641.980469 C 593.28125 640.945312 594.394531 639.921875 595.480469 638.886719 L 593.636719 636.953125 C 592.601562 637.976562 591.464844 638.984375 590.363281 640.007812 Z M 590.363281 640.007812 " fill-opacity="1" fill-rule="evenodd"/><path fill="#3c415e" d="M 617.628906 610.570312 L 619.710938 612.238281 C 620.660156 611.0625 621.570312 609.863281 622.503906 608.691406 L 620.394531 607.046875 C 619.472656 608.222656 618.5625 609.398438 617.628906 610.570312 Z M 617.628906 610.570312 " fill-opacity="1" fill-rule="evenodd"/><path fill="#3c415e" d="M 612.523438 616.773438 L 614.558594 618.488281 C 615.53125 617.339844 616.515625 616.191406 617.449219 615.015625 L 615.339844 613.324219 C 614.457031 614.488281 613.484375 615.625 612.523438 616.773438 Z M 612.523438 616.773438 " fill-opacity="1" fill-rule="evenodd"/><path fill="#3c415e" d="M 607.28125 622.820312 L 609.265625 624.601562 L 612.246094 621.203125 L 610.222656 619.449219 Z M 607.28125 622.820312 " fill-opacity="1" fill-rule="evenodd"/><path fill="#3c415e" d="M 632.054688 591.210938 L 634.242188 592.726562 L 636.792969 589.015625 L 634.582031 587.511719 Z M 632.054688 591.210938 " fill-opacity="1" fill-rule="evenodd"/><path fill="#3c415e" d="M 627.382812 597.753906 L 629.542969 599.320312 L 630.878906 597.5 L 632.144531 595.65625 L 629.957031 594.117188 L 628.695312 595.949219 C 628.277344 596.554688 627.824219 597.148438 627.382812 597.753906 Z M 627.382812 597.753906 " fill-opacity="1" fill-rule="evenodd"/><path fill="#3c415e" d="M 622.605469 604.179688 L 624.726562 605.796875 L 627.445312 602.199219 L 625.296875 600.609375 C 624.410156 601.808594 623.503906 602.980469 622.605469 604.179688 Z M 622.605469 604.179688 " fill-opacity="1" fill-rule="evenodd"/><path fill="#ffd200" d="M 268.910156 651.96875 C 268.835938 652.449219 268.71875 652.921875 268.550781 653.378906 C 268.386719 653.839844 268.179688 654.277344 267.925781 654.695312 C 267.675781 655.113281 267.386719 655.5 267.054688 655.863281 C 266.726562 656.222656 266.367188 656.546875 265.976562 656.835938 C 265.582031 657.125 265.167969 657.375 264.726562 657.582031 C 264.285156 657.789062 263.824219 657.953125 263.351562 658.070312 C 262.878906 658.1875 262.398438 658.257812 261.910156 658.28125 C 261.425781 658.304688 260.941406 658.277344 260.457031 658.207031 C 259.976562 658.132812 259.503906 658.015625 259.046875 657.847656 C 258.585938 657.683594 258.148438 657.476562 257.730469 657.222656 C 257.3125 656.972656 256.921875 656.683594 256.5625 656.355469 C 256.203125 656.027344 255.875 655.667969 255.585938 655.273438 C 255.296875 654.882812 255.046875 654.464844 254.839844 654.023438 C 254.632812 653.582031 254.472656 653.125 254.351562 652.652344 C 254.234375 652.179688 254.164062 651.699219 254.144531 651.210938 C 254.121094 650.726562 254.144531 650.242188 254.21875 649.757812 C 254.289062 649.277344 254.410156 648.804688 254.574219 648.347656 C 254.738281 647.886719 254.949219 647.449219 255.199219 647.03125 C 255.449219 646.613281 255.742188 646.226562 256.070312 645.863281 C 256.398438 645.503906 256.757812 645.179688 257.148438 644.890625 C 257.542969 644.601562 257.960938 644.351562 258.402344 644.144531 C 258.84375 643.9375 259.300781 643.773438 259.773438 643.65625 C 260.246094 643.539062 260.726562 643.46875 261.214844 643.445312 C 261.699219 643.421875 262.183594 643.449219 262.667969 643.519531 C 263.148438 643.59375 263.621094 643.710938 264.078125 643.875 C 264.539062 644.042969 264.976562 644.25 265.394531 644.5 C 265.8125 644.753906 266.203125 645.042969 266.5625 645.371094 C 266.925781 645.699219 267.25 646.058594 267.539062 646.453125 C 267.828125 646.84375 268.078125 647.261719 268.285156 647.703125 C 268.492188 648.144531 268.65625 648.601562 268.773438 649.074219 C 268.890625 649.546875 268.960938 650.027344 268.984375 650.515625 C 269.007812 651 268.980469 651.484375 268.910156 651.96875 Z M 268.910156 651.96875 " fill-opacity="1" fill-rule="nonzero"/><path fill="#ffffff" d="M 260.332031 654.632812 C 260.246094 654.582031 260.175781 654.519531 260.117188 654.445312 L 257.589844 651.210938 C 257.515625 651.128906 257.460938 651.035156 257.425781 650.929688 C 257.390625 650.824219 257.378906 650.714844 257.390625 650.605469 C 257.402344 650.492188 257.433594 650.390625 257.488281 650.292969 C 257.542969 650.195312 257.613281 650.113281 257.699219 650.046875 C 257.789062 649.980469 257.886719 649.933594 257.996094 649.90625 C 258.101562 649.882812 258.210938 649.878906 258.320312 649.898438 C 258.429688 649.917969 258.53125 649.957031 258.625 650.019531 C 258.714844 650.082031 258.792969 650.15625 258.851562 650.25 L 260.773438 652.777344 L 264.777344 648.773438 C 264.933594 648.621094 265.121094 648.546875 265.339844 648.546875 C 265.558594 648.546875 265.746094 648.621094 265.902344 648.773438 C 266.054688 648.925781 266.132812 649.113281 266.132812 649.328125 C 266.132812 649.546875 266.054688 649.730469 265.902344 649.886719 L 261.265625 654.519531 C 261.097656 654.691406 260.898438 654.769531 260.660156 654.757812 C 260.539062 654.746094 260.429688 654.703125 260.332031 654.632812 Z M 260.332031 654.632812 " fill-opacity="1" fill-rule="nonzero"/><path fill="#ffd200" d="M 518.488281 561.042969 C 518.449219 561.308594 518.386719 561.574219 518.292969 561.828125 C 518.203125 562.082031 518.085938 562.328125 517.949219 562.558594 C 517.808594 562.792969 517.648438 563.011719 517.464844 563.210938 C 517.285156 563.414062 517.082031 563.59375 516.867188 563.757812 C 516.648438 563.917969 516.417969 564.058594 516.171875 564.171875 C 515.925781 564.289062 515.671875 564.378906 515.410156 564.445312 C 515.144531 564.511719 514.878906 564.550781 514.605469 564.566406 C 514.335938 564.578125 514.066406 564.566406 513.796875 564.527344 C 513.527344 564.484375 513.265625 564.421875 513.011719 564.328125 C 512.757812 564.238281 512.511719 564.121094 512.277344 563.984375 C 512.046875 563.84375 511.828125 563.683594 511.628906 563.5 C 511.425781 563.316406 511.246094 563.117188 511.082031 562.898438 C 510.921875 562.683594 510.785156 562.449219 510.667969 562.203125 C 510.550781 561.960938 510.460938 561.707031 510.394531 561.441406 C 510.328125 561.179688 510.289062 560.910156 510.277344 560.640625 C 510.261719 560.371094 510.277344 560.101562 510.316406 559.832031 C 510.355469 559.5625 510.421875 559.300781 510.515625 559.046875 C 510.605469 558.789062 510.722656 558.546875 510.863281 558.3125 C 511 558.082031 511.164062 557.863281 511.34375 557.664062 C 511.527344 557.464844 511.726562 557.28125 511.945312 557.121094 C 512.164062 556.960938 512.394531 556.820312 512.640625 556.707031 C 512.886719 556.589844 513.140625 556.5 513.40625 556.433594 C 513.667969 556.367188 513.933594 556.328125 514.207031 556.316406 C 514.476562 556.304688 514.746094 556.316406 515.015625 556.355469 C 515.285156 556.398438 515.542969 556.460938 515.800781 556.554688 C 516.054688 556.644531 516.296875 556.761719 516.53125 556.902344 C 516.761719 557.039062 516.980469 557.199219 517.179688 557.382812 C 517.378906 557.5625 517.5625 557.765625 517.722656 557.980469 C 517.882812 558.199219 518.023438 558.429688 518.136719 558.675781 C 518.253906 558.917969 518.34375 559.171875 518.410156 559.433594 C 518.476562 559.699219 518.515625 559.964844 518.527344 560.234375 C 518.542969 560.503906 518.53125 560.773438 518.488281 561.042969 Z M 518.488281 561.042969 " fill-opacity="1" fill-rule="nonzero"/><path fill="#ffffff" d="M 513.714844 562.53125 C 513.671875 562.496094 513.636719 562.460938 513.601562 562.417969 L 512.222656 560.625 C 512.152344 560.527344 512.121094 560.417969 512.140625 560.296875 C 512.15625 560.175781 512.214844 560.078125 512.3125 560.007812 C 512.40625 559.929688 512.515625 559.898438 512.636719 559.917969 C 512.753906 559.933594 512.851562 559.996094 512.917969 560.09375 L 513.992188 561.496094 L 516.214844 559.273438 C 516.296875 559.167969 516.402344 559.109375 516.539062 559.097656 C 516.671875 559.089844 516.789062 559.132812 516.882812 559.226562 C 516.976562 559.320312 517.019531 559.4375 517.011719 559.570312 C 517 559.703125 516.941406 559.8125 516.835938 559.894531 L 514.308594 562.417969 C 514.210938 562.507812 514.097656 562.550781 513.96875 562.542969 C 513.882812 562.558594 513.796875 562.554688 513.714844 562.53125 Z M 513.714844 562.53125 " fill-opacity="1" fill-rule="nonzero"/><path fill="#ffd200" d="M 141.574219 648.253906 C 141.53125 648.523438 141.464844 648.785156 141.375 649.039062 C 141.28125 649.296875 141.167969 649.539062 141.027344 649.773438 C 140.886719 650.003906 140.726562 650.21875 140.542969 650.421875 C 140.359375 650.621094 140.160156 650.800781 139.941406 650.964844 C 139.722656 651.125 139.492188 651.261719 139.246094 651.378906 C 139 651.492188 138.746094 651.585938 138.484375 651.648438 C 138.222656 651.714844 137.953125 651.753906 137.683594 651.765625 C 137.410156 651.78125 137.140625 651.765625 136.875 651.726562 C 136.605469 651.683594 136.34375 651.621094 136.089844 651.527344 C 135.832031 651.4375 135.589844 651.320312 135.359375 651.179688 C 135.125 651.039062 134.910156 650.878906 134.707031 650.699219 C 134.507812 650.515625 134.328125 650.316406 134.164062 650.097656 C 134.003906 649.878906 133.867188 649.648438 133.75 649.402344 C 133.632812 649.15625 133.542969 648.902344 133.476562 648.640625 C 133.414062 648.375 133.375 648.109375 133.359375 647.839844 C 133.347656 647.566406 133.363281 647.296875 133.402344 647.03125 C 133.441406 646.761719 133.507812 646.5 133.597656 646.246094 C 133.691406 645.988281 133.808594 645.746094 133.945312 645.515625 C 134.085938 645.28125 134.246094 645.066406 134.429688 644.863281 C 134.613281 644.664062 134.8125 644.484375 135.03125 644.320312 C 135.25 644.160156 135.480469 644.023438 135.726562 643.90625 C 135.972656 643.789062 136.226562 643.699219 136.488281 643.636719 C 136.75 643.570312 137.019531 643.53125 137.289062 643.515625 C 137.5625 643.503906 137.832031 643.519531 138.097656 643.558594 C 138.367188 643.597656 138.628906 643.664062 138.882812 643.757812 C 139.136719 643.851562 139.382812 643.964844 139.613281 644.105469 C 139.847656 644.246094 140.0625 644.40625 140.261719 644.589844 C 140.464844 644.773438 140.644531 644.972656 140.804688 645.191406 C 140.964844 645.40625 141.105469 645.640625 141.21875 645.886719 C 141.335938 646.128906 141.425781 646.382812 141.492188 646.648438 C 141.558594 646.910156 141.597656 647.175781 141.613281 647.449219 C 141.625 647.71875 141.613281 647.988281 141.574219 648.253906 Z M 141.574219 648.253906 " fill-opacity="1" fill-rule="nonzero"/><path fill="#ffffff" d="M 136.847656 649.734375 C 136.800781 649.707031 136.757812 649.671875 136.722656 649.632812 L 135.34375 647.828125 C 135.269531 647.730469 135.242188 647.621094 135.261719 647.5 C 135.277344 647.378906 135.335938 647.28125 135.433594 647.207031 C 135.53125 647.136719 135.640625 647.109375 135.761719 647.125 C 135.882812 647.140625 135.976562 647.199219 136.050781 647.296875 L 137.113281 648.699219 L 139.347656 646.476562 C 139.4375 646.410156 139.535156 646.378906 139.644531 646.386719 C 139.753906 646.394531 139.847656 646.4375 139.925781 646.515625 C 140.003906 646.59375 140.046875 646.6875 140.054688 646.796875 C 140.0625 646.90625 140.035156 647.003906 139.96875 647.09375 L 137.378906 649.621094 C 137.289062 649.714844 137.179688 649.757812 137.050781 649.746094 C 136.980469 649.761719 136.914062 649.757812 136.847656 649.734375 Z M 136.847656 649.734375 " fill-opacity="1" fill-rule="nonzero"/><g clip-path="url(#9b05184ae6)"><path fill="#ffd200" d="M 305.421875 467.007812 C 305.378906 467.277344 305.308594 467.535156 305.214844 467.789062 C 305.121094 468.042969 305.003906 468.285156 304.863281 468.515625 C 304.722656 468.746094 304.558594 468.960938 304.375 469.160156 C 304.191406 469.359375 303.992188 469.539062 303.773438 469.699219 C 303.554688 469.855469 303.320312 469.992188 303.074219 470.105469 C 302.828125 470.21875 302.574219 470.308594 302.3125 470.371094 C 302.050781 470.4375 301.78125 470.472656 301.511719 470.484375 C 301.242188 470.496094 300.972656 470.480469 300.707031 470.4375 C 300.4375 470.398438 300.175781 470.328125 299.921875 470.238281 C 299.667969 470.144531 299.425781 470.027344 299.195312 469.886719 C 298.964844 469.746094 298.75 469.585938 298.546875 469.402344 C 298.347656 469.21875 298.167969 469.019531 298.007812 468.800781 C 297.847656 468.582031 297.710938 468.351562 297.597656 468.105469 C 297.484375 467.859375 297.394531 467.605469 297.328125 467.34375 C 297.265625 467.082031 297.226562 466.816406 297.214844 466.542969 C 297.203125 466.273438 297.214844 466.003906 297.257812 465.738281 C 297.296875 465.46875 297.363281 465.210938 297.457031 464.953125 C 297.546875 464.699219 297.664062 464.457031 297.804688 464.226562 C 297.941406 463.996094 298.105469 463.777344 298.285156 463.578125 C 298.46875 463.378906 298.667969 463.199219 298.886719 463.039062 C 299.101562 462.875 299.335938 462.738281 299.578125 462.621094 C 299.824219 462.507812 300.078125 462.417969 300.339844 462.351562 C 300.601562 462.285156 300.871094 462.246094 301.140625 462.234375 C 301.410156 462.21875 301.679688 462.234375 301.945312 462.273438 C 302.214844 462.3125 302.480469 462.378906 302.738281 462.472656 C 302.996094 462.5625 303.238281 462.679688 303.472656 462.820312 C 303.707031 462.960938 303.925781 463.125 304.128906 463.308594 C 304.328125 463.492188 304.511719 463.695312 304.671875 463.917969 C 304.835938 464.136719 304.972656 464.371094 305.085938 464.617188 C 305.203125 464.867188 305.292969 465.121094 305.355469 465.386719 C 305.421875 465.652344 305.457031 465.921875 305.46875 466.195312 C 305.480469 466.46875 305.464844 466.738281 305.421875 467.007812 Z M 305.421875 467.007812 " fill-opacity="1" fill-rule="nonzero"/></g><path fill="#ffffff" d="M 300.644531 468.5 C 300.601562 468.46875 300.5625 468.429688 300.53125 468.386719 L 299.15625 466.59375 C 299.085938 466.492188 299.058594 466.382812 299.074219 466.265625 C 299.09375 466.144531 299.148438 466.046875 299.242188 465.972656 C 299.339844 465.90625 299.445312 465.878906 299.5625 465.894531 C 299.679688 465.914062 299.777344 465.96875 299.847656 466.0625 L 300.921875 467.464844 L 303.148438 465.242188 C 303.234375 465.152344 303.339844 465.109375 303.460938 465.109375 C 303.585938 465.109375 303.691406 465.152344 303.777344 465.242188 C 303.859375 465.328125 303.898438 465.429688 303.898438 465.550781 C 303.898438 465.667969 303.859375 465.773438 303.777344 465.859375 L 301.25 468.386719 C 301.15625 468.472656 301.042969 468.515625 300.910156 468.511719 C 300.820312 468.527344 300.734375 468.523438 300.644531 468.5 Z M 300.644531 468.5 " fill-opacity="1" fill-rule="nonzero"/><path fill="#ff666a" d="M 631.5625 774.203125 C 631.359375 774.203125 631.164062 774.164062 630.976562 774.085938 C 630.789062 774.007812 630.625 773.898438 630.480469 773.753906 C 630.339844 773.609375 630.226562 773.445312 630.152344 773.257812 C 630.074219 773.070312 630.035156 772.875 630.035156 772.671875 L 630.035156 761.9375 C 630.015625 761.726562 630.039062 761.515625 630.109375 761.3125 C 630.175781 761.109375 630.28125 760.929688 630.425781 760.769531 C 630.574219 760.613281 630.742188 760.488281 630.941406 760.402344 C 631.136719 760.316406 631.339844 760.273438 631.554688 760.273438 C 631.769531 760.273438 631.976562 760.316406 632.171875 760.402344 C 632.371094 760.488281 632.539062 760.613281 632.683594 760.769531 C 632.832031 760.929688 632.9375 761.109375 633.003906 761.3125 C 633.074219 761.515625 633.097656 761.726562 633.078125 761.9375 L 633.078125 772.671875 C 633.078125 772.875 633.039062 773.070312 632.964844 773.253906 C 632.886719 773.441406 632.777344 773.605469 632.636719 773.75 C 632.492188 773.890625 632.328125 774.003906 632.144531 774.082031 C 631.957031 774.160156 631.765625 774.199219 631.5625 774.203125 Z M 631.5625 774.203125 " fill-opacity="1" fill-rule="nonzero"/><path fill="#ff666a" d="M 636.933594 768.796875 L 626.195312 768.796875 C 625.980469 768.816406 625.769531 768.792969 625.566406 768.722656 C 625.363281 768.65625 625.183594 768.546875 625.023438 768.402344 C 624.867188 768.257812 624.742188 768.085938 624.65625 767.890625 C 624.570312 767.695312 624.527344 767.488281 624.527344 767.273438 C 624.527344 767.058594 624.570312 766.855469 624.65625 766.65625 C 624.742188 766.460938 624.867188 766.289062 625.023438 766.144531 C 625.183594 766 625.363281 765.894531 625.566406 765.828125 C 625.769531 765.757812 625.980469 765.734375 626.195312 765.753906 L 636.933594 765.753906 C 637.121094 765.769531 637.300781 765.820312 637.472656 765.90625 C 637.644531 765.992188 637.792969 766.101562 637.921875 766.246094 C 638.050781 766.386719 638.148438 766.542969 638.21875 766.722656 C 638.289062 766.898438 638.320312 767.082031 638.320312 767.273438 C 638.320312 767.464844 638.289062 767.648438 638.21875 767.828125 C 638.148438 768.003906 638.050781 768.164062 637.921875 768.304688 C 637.792969 768.445312 637.644531 768.558594 637.472656 768.644531 C 637.300781 768.726562 637.121094 768.777344 636.933594 768.796875 Z M 636.933594 768.796875 " fill-opacity="1" fill-rule="nonzero"/><path fill="#ff666a" d="M 141.574219 801.238281 C 141.320312 801.238281 141.105469 801.152344 140.929688 800.972656 C 140.75 800.796875 140.664062 800.582031 140.664062 800.332031 L 140.664062 793.902344 C 140.664062 793.652344 140.75 793.4375 140.929688 793.257812 C 141.105469 793.082031 141.320312 792.992188 141.574219 792.992188 C 141.824219 792.992188 142.039062 793.082031 142.214844 793.257812 C 142.394531 793.4375 142.480469 793.652344 142.480469 793.902344 L 142.480469 800.332031 C 142.480469 800.582031 142.394531 800.796875 142.214844 800.972656 C 142.039062 801.152344 141.824219 801.238281 141.574219 801.238281 Z M 141.574219 801.238281 " fill-opacity="1" fill-rule="nonzero"/><path fill="#ff666a" d="M 144.730469 798.03125 L 138.289062 798.03125 C 138.054688 798.003906 137.863281 797.902344 137.707031 797.730469 C 137.550781 797.554688 137.472656 797.351562 137.472656 797.117188 C 137.472656 796.882812 137.550781 796.679688 137.707031 796.503906 C 137.863281 796.328125 138.054688 796.226562 138.289062 796.199219 L 144.730469 796.199219 C 144.964844 796.226562 145.15625 796.328125 145.3125 796.503906 C 145.46875 796.679688 145.546875 796.882812 145.546875 797.117188 C 145.546875 797.351562 145.46875 797.554688 145.3125 797.730469 C 145.15625 797.902344 144.964844 798.003906 144.730469 798.03125 Z M 144.730469 798.03125 " fill-opacity="1" fill-rule="nonzero"/><path fill="#ff666a" d="M 195.519531 547.921875 C 195.273438 547.914062 195.0625 547.824219 194.890625 547.644531 C 194.71875 547.46875 194.632812 547.257812 194.632812 547.011719 L 194.632812 540.570312 C 194.632812 540.320312 194.722656 540.105469 194.902344 539.929688 C 195.078125 539.75 195.292969 539.660156 195.542969 539.660156 C 195.796875 539.660156 196.011719 539.75 196.1875 539.929688 C 196.363281 540.105469 196.453125 540.320312 196.453125 540.570312 L 196.453125 547.011719 C 196.453125 547.269531 196.363281 547.484375 196.179688 547.664062 C 195.996094 547.84375 195.773438 547.929688 195.519531 547.921875 Z M 195.519531 547.921875 " fill-opacity="1" fill-rule="nonzero"/><path fill="#ff666a" d="M 198.742188 544.699219 L 192.296875 544.699219 C 192.046875 544.699219 191.832031 544.613281 191.652344 544.433594 C 191.476562 544.257812 191.386719 544.042969 191.386719 543.792969 C 191.386719 543.539062 191.476562 543.324219 191.652344 543.148438 C 191.832031 542.972656 192.046875 542.882812 192.296875 542.882812 L 198.742188 542.882812 C 198.992188 542.882812 199.207031 542.972656 199.382812 543.148438 C 199.5625 543.324219 199.648438 543.539062 199.648438 543.792969 C 199.648438 544.042969 199.5625 544.257812 199.382812 544.433594 C 199.207031 544.613281 198.992188 544.699219 198.742188 544.699219 Z M 198.742188 544.699219 " fill-opacity="1" fill-rule="nonzero"/><path fill="#ff666a" d="M 624.917969 486.8125 C 624.667969 486.8125 624.453125 486.722656 624.273438 486.542969 C 624.097656 486.367188 624.007812 486.152344 624.007812 485.902344 L 624.007812 479.472656 C 624.007812 479.222656 624.097656 479.007812 624.273438 478.832031 C 624.453125 478.652344 624.667969 478.5625 624.917969 478.5625 C 625.167969 478.5625 625.382812 478.652344 625.5625 478.832031 C 625.738281 479.007812 625.828125 479.222656 625.828125 479.472656 L 625.828125 485.902344 C 625.828125 486.152344 625.738281 486.367188 625.5625 486.542969 C 625.382812 486.722656 625.167969 486.8125 624.917969 486.8125 Z M 624.917969 486.8125 " fill-opacity="1" fill-rule="nonzero"/><path fill="#ff666a" d="M 628.140625 483.601562 L 621.65625 483.601562 C 621.40625 483.597656 621.191406 483.507812 621.015625 483.328125 C 620.835938 483.148438 620.75 482.933594 620.75 482.679688 C 620.75 482.429688 620.835938 482.214844 621.015625 482.039062 C 621.191406 481.859375 621.40625 481.773438 621.65625 481.773438 L 628.101562 481.773438 C 628.351562 481.773438 628.566406 481.859375 628.746094 482.039062 C 628.921875 482.214844 629.011719 482.429688 629.011719 482.679688 C 629.011719 482.925781 628.925781 483.136719 628.757812 483.316406 C 628.589844 483.492188 628.382812 483.589844 628.140625 483.601562 Z M 628.140625 483.601562 " fill-opacity="1" fill-rule="nonzero"/><path fill="#ff666a" d="M 391.078125 568.683594 C 390.828125 568.683594 390.613281 568.59375 390.433594 568.417969 C 390.257812 568.238281 390.167969 568.023438 390.167969 567.773438 L 390.167969 561.34375 C 390.167969 561.09375 390.257812 560.878906 390.433594 560.703125 C 390.613281 560.523438 390.828125 560.4375 391.078125 560.4375 C 391.328125 560.4375 391.542969 560.523438 391.722656 560.703125 C 391.898438 560.878906 391.988281 561.09375 391.988281 561.34375 L 391.988281 567.773438 C 391.988281 568.023438 391.898438 568.238281 391.722656 568.417969 C 391.542969 568.59375 391.328125 568.683594 391.078125 568.683594 Z M 391.078125 568.683594 " fill-opacity="1" fill-rule="nonzero"/><path fill="#ff666a" d="M 394.25 565.460938 L 387.804688 565.460938 C 387.554688 565.460938 387.339844 565.375 387.164062 565.195312 C 386.984375 565.019531 386.894531 564.804688 386.894531 564.554688 C 386.894531 564.300781 386.984375 564.085938 387.164062 563.910156 C 387.339844 563.730469 387.554688 563.644531 387.804688 563.644531 L 394.25 563.644531 C 394.5 563.644531 394.714844 563.730469 394.890625 563.910156 C 395.070312 564.085938 395.160156 564.300781 395.160156 564.554688 C 395.160156 564.804688 395.070312 565.019531 394.890625 565.195312 C 394.714844 565.375 394.5 565.460938 394.25 565.460938 Z M 394.25 565.460938 " fill-opacity="1" fill-rule="nonzero"/><path fill="#ff666a" d="M 622.84375 662.121094 C 622.59375 662.121094 622.378906 662.035156 622.199219 661.855469 C 622.019531 661.679688 621.925781 661.464844 621.921875 661.210938 L 621.921875 654.773438 C 621.949219 654.539062 622.050781 654.347656 622.226562 654.191406 C 622.402344 654.035156 622.605469 653.957031 622.839844 653.957031 C 623.074219 653.957031 623.277344 654.035156 623.453125 654.191406 C 623.625 654.347656 623.726562 654.539062 623.753906 654.773438 L 623.753906 661.210938 C 623.753906 661.464844 623.667969 661.679688 623.488281 661.855469 C 623.3125 662.03125 623.097656 662.121094 622.84375 662.121094 Z M 622.84375 662.121094 " fill-opacity="1" fill-rule="nonzero"/><path fill="#ff666a" d="M 626.054688 658.902344 L 619.625 658.902344 C 619.371094 658.902344 619.160156 658.8125 618.980469 658.636719 C 618.804688 658.457031 618.714844 658.242188 618.714844 657.992188 C 618.714844 657.742188 618.804688 657.527344 618.980469 657.347656 C 619.160156 657.171875 619.371094 657.082031 619.625 657.082031 L 626.054688 657.082031 C 626.304688 657.082031 626.519531 657.171875 626.699219 657.347656 C 626.875 657.527344 626.964844 657.742188 626.964844 657.992188 C 626.964844 658.242188 626.875 658.457031 626.699219 658.636719 C 626.519531 658.8125 626.304688 658.902344 626.054688 658.902344 Z M 626.054688 658.902344 " fill-opacity="1" fill-rule="nonzero"/></svg>